<ttFont>
          <CharString index="0">
            rmoveto
            207 115 164 192 41 hvcurveto
            76 359 -42 callsubr
            -76 -359 rlineto
            -136 -29 -74 -139 -154 hhcurveto
            -113 -38 75 96 33 4 35 8 36 hvcurveto
            76 359 -42 callsubr
            -76 -359 rlineto
            -9 -41 -5 -40 -38 vvcurveto
            -132 60 -105 167 vhcurveto
            return
          </CharString>
          <CharString index="1">
            -65 callgsubr
            -99 callgsubr
            88 414 -68 callsubr
            return
          </CharString>
          <CharString index="2">
            rmoveto
            173 144 156 166 120 -74 99 -128 -171 -144 -156 -167 -119 72 -99 128 hvcurveto
            17 76 rmoveto
            -76 -50 65 88 126 106 110 102 76 50 -67 -87 -127 -105 -108 -103 hvcurveto
            return
          </CharString>
          <CharString index="3">
            -79 callgsubr
            hintmask 01111000
            -27 19 -17 36 -106 callsubr
            -69 -327 rlineto
            hintmask 10111000
            -102 callgsubr
            return
          </CharString>
          <CharString index="4">
            298 -5 -107 callsubr
            return
          </CharString>
          <CharString index="5">
            38 76 -103 callgsubr
            return
          </CharString>
          <CharString index="6">
            -74 callgsubr
            -369 hlineto
            52 245 rlineto
            313 hlineto
            16 75 rlineto
            -313 hlineto
            49 230 rlineto
            360 -74 callgsubr
            -450 hlineto
            return
          </CharString>
          <CharString index="7">
            -47 hmoveto
            96 hlineto
            121 208 rlineto
            278 hlineto
            34 -208 rlineto
            96 hlineto
            -123 710 rlineto
            -77 hlineto
            -176 -432 rmoveto
            193 328 49 -328 rlineto
            return
          </CharString>
          <CharString index="8">
            295 -5 -106 callgsubr
            return
          </CharString>
          <CharString index="9">
            rmoveto
            94 63 67 -63 53 24 -77 90 rlineto
            -64 0 callsubr
            -90 rlineto
            return
          </CharString>
          <CharString index="10">
            6 1 5 1 6 vhcurveto
            -51 hlineto
            -2 -9 -1 -8 -9 vvcurveto
            -50 33 -35 52 59 56 48 63 13 vhcurveto
            -50 hlineto
            return
          </CharString>
          <CharString index="11">
            79 39 85 58 67 hhcurveto
            47 24 -27 -58 -21 -3 -25 -6 -29 -18 callsubr
            35 5 32 29 vvcurveto
            74 -30 49 -84 -87 -90 -48 -73 -54 vhcurveto
            return
          </CharString>
          <CharString index="12">
            -23 -224 rmoveto
            99 2 63 50 91 146 80 129 rcurveline
            132 213 38 77 36 129 rrcurveto
            -87 hlineto
            -31 -121 -39 -83 -111 -183 -34 -56 rcurveline
            -72 443 rlineto
            -91 hlineto
            101 -533 -29 -44 -46 -69 -28 -17 -84 -12 rlinecurve
            return
          </CharString>
          <CharString index="13">
            -77 -75 -73 -36 -72 hhcurveto
            -110 -70 99 122 165 132 172 158 82 62 -40 -82 22 hvcurveto
            79 48 rlineto
            92 -25 -71 63 -130 hhcurveto
            -207 -193 -207 -216 -155 94 -142 153 77 74 32 68 73 hvcurveto
            return
          </CharString>
          <CharString index="14">
            rmoveto
            22 106 rlineto
            -79 hlineto
            -23 -106 rlineto
            endchar
          </CharString>
          <CharString index="15">
            rmoveto
            137 98 76 108 -4 callsubr
            hvcurveto
            -69 18 -30 13 37 vvcurveto
            68 58 32 68 53 50 -19 -39 34 vhcurveto
            51 53 rlineto
            41 -37 -61 28 -74 hhcurveto
            -121 -108 -70 -117 -62 47 -23 98 -27 hvcurveto
            79 -21 40 -15 -42 vvcurveto
            -64 callgsubr
            return
          </CharString>
          <CharString index="16">
            rmoveto
            50 20 -30 101 7 callgsubr
            -78 -121 rmoveto
            50 20 -29 101 rlineto
            -75 hlineto
            endchar
          </CharString>
          <CharString index="17">
            -89 callgsubr
            -118 69 -99 117 return
          </CharString>
          <CharString index="18">
            -20 -95 callgsubr
            return
          </CharString>
          <CharString index="19">
            rmoveto
            64 hlineto
            116 90 -43 24 -94 -63 -67 63 -53 -24 rlineto
            return
          </CharString>
          <CharString index="20">
            rmoveto
            30 46 9 12 30 hvcurveto
            3 71 rlineto
            -7 -18 -23 -5 -14 hhcurveto
            -29 -16 16 27 6 1 6 1 7 hvcurveto
            126 595 rlineto
            -87 hlineto
            -133 -627 rlineto
            -2 -11 -2 -11 -10 vvcurveto
            -49 32 -29 55 vhcurveto
            return
          </CharString>
          <CharString index="21">
            rmoveto
            82 39 88 15 3 hvcurveto
            -51 hlineto
            -4 -1 -15 -45 -48 hhcurveto
            return
          </CharString>
          <CharString index="22">
            rmoveto
            332 348 334 335 -35 37 -327 -345 -338 -337 rlineto
            return
          </CharString>
          <CharString index="23">
            14 64 rlineto
            -308 hlineto
            392 401 12 57 rlineto
            -398 hlineto
            -14 -64 51 callsubr
            -394 -401 rlineto
            return
          </CharString>
          <CharString index="24">
            rmoveto
            101 94 55 76 46 hvcurveto
            -81 26 rlineto
            -44 -24 -65 -37 -57 hhcurveto
            -75 -51 67 88 129 102 105 106 54 41 -29 -49 15 hvcurveto
            91 27 rlineto
            77 -20 -64 50 -99 hhcurveto
            -176 -141 -153 -168 -121 75 -99 128 hvcurveto
            return
          </CharString>
          <CharString index="25">
            88 hlineto
            68 322 43 76 78 45 83 2 rlinecurve
            16 76 rlineto
            1 -6 -8 1 -12 hhcurveto
            -64 -69 -50 -72 -50 hvcurveto
            return
          </CharString>
          <CharString index="26">
            -70 callgsubr
            -75 callgsubr
            return
          </CharString>
          <CharString index="27">
            -32 callsubr
            -99 callsubr
            return
          </CharString>
          <CharString index="28">
            -118 69 -99 117 vhcurveto
            -102 callsubr
            return
          </CharString>
          <CharString index="29">
            rlineto
            145 hlineto
            123 63 -86 -121 -181 -117 -162 -186 hvcurveto
            return
          </CharString>
          <CharString index="30">
            90 hlineto
            115 542 291 -542 rlineto
            75 -76 callsubr
            -117 -552 return
          </CharString>
          <CharString index="31">
            hlineto
            151 709 -42 callsubr
            return
          </CharString>
          <CharString index="32">
            30 callgsubr
            -94 callgsubr
            return
          </CharString>
          <CharString index="33">
            110 hmoveto
            -96 callgsubr
            return
          </CharString>
          <CharString index="34">
            rlineto
            5 17 35 8 27 hhcurveto
            25 17 -7 -21 -29 -24 -13 -39 -33 -32 10 9 -14 hvcurveto
            return
          </CharString>
          <CharString index="35">
            208 -10 rmoveto
            71 80 41 67 52 hvcurveto
            return
          </CharString>
          <CharString index="36">
            -10 23 31 -9 38 hhcurveto
            81 43 36 52 34 -25 17 -38 -10 -14 -1 -4 -11 hvcurveto
            return
          </CharString>
          <CharString index="37">
            rmoveto
            61 20 -34 101 rlineto
            -86 hlineto
            endchar
          </CharString>
          <CharString index="38">
            38 9 20 30 42 hhcurveto
            29 12 -14 -29 return
          </CharString>
          <CharString index="39">
            rlineto
            -88 hlineto
            return
          </CharString>
          <CharString index="40">
            rmoveto
            41 -27 30 -39 16 vhcurveto
            hintmask 11101010
            49 16 41 33 48 vvcurveto
            56 -60 35 -63 -75 -92 -47 -71 -34 24 -24 30 -12 vhcurveto
            hintmask 11110100
            -54 -19 -55 -37 -62 vvcurveto
            -58 53 -47 81 95 92 57 79 vhcurveto
            -55 -1 rmoveto
            -48 -63 -32 -55 -45 -46 23 39 48 62 33 58 45 44 -24 -39 vhcurveto
            hintmask 11101010
            -156 159 rmoveto
            39 50 25 51 41 37 -18 -32 -40 -58 -24 -44 -38 -39 18 32 vhcurveto
            endchar
          </CharString>
          <CharString index="41">
            -80 -66 -47 -108 -103 -82 50 45 -29 vhcurveto
            -59 -76 rlineto
            -65 62 89 -35 103 hhcurveto
            return
          </CharString>
          <CharString index="42">
            rmoveto
            64 105 31 82 61 hvcurveto
            -68 29 65 -45 90 hhcurveto
            101 96 55 77 49 hvcurveto
            -72 21 rlineto
            -52 -31 -66 -35 -61 hhcurveto
            -80 -57 59 86 11 1 9 2 10 hvcurveto
            417 hlineto
            3 8 12 22 50 vvcurveto
            123 -73 97 -127 -80 -73 -38 -57 -54 vhcurveto
            60 -19 -52 35 -80 hhcurveto
            -66 -69 -23 -45 -74 hvcurveto
            16 -57 rlineto
            40 64 56 21 50 hhcurveto
            68 37 -38 -48 -32 -17 -21 -10 -34 hvcurveto
            return
          </CharString>
          <CharString index="43">
            -6 -12 -33 -16 -33 hhcurveto
            -25 -20 12 28 5 1 5 1 5 hvcurveto
            69 31 callgsubr
            return
          </CharString>
          <CharString index="44">
            -11 -10 -45 callsubr
            return
          </CharString>
          <CharString index="45">
            rmoveto
            13 58 rlineto
            -279 hlineto
            -12 -58 rlineto
            return
          </CharString>
          <CharString index="46">
            -93 callgsubr
            endchar
          </CharString>
          <CharString index="47">
            -37 -174 rlineto
            -49 callsubr
            return
          </CharString>
          <CharString index="48">
            21 callgsubr
            231 -74 callgsubr
            -552 -21 callsubr
            231 hlineto
            return
          </CharString>
          <CharString index="49">
            49 16 42 33 48 vvcurveto
            56 -61 35 -63 -75 -92 -47 -71 -34 24 -24 30 -12 vhcurveto
            return
          </CharString>
          <CharString index="50">
            155 -10 -79 callgsubr
            return
          </CharString>
          <CharString index="51">
            35 21 -40 callsubr
            return
          </CharString>
          <CharString index="52">
            90 hlineto
            69 323 rlineto
            365 hlineto
            -69 -323 rlineto
            90 hlineto
            151 710 -42 callsubr
            -65 -307 rlineto
            -365 hlineto
            65 307 -42 callsubr
            return
          </CharString>
          <CharString index="53">
            hstem
            530 93 vstem
            -74 callsubr
            return
          </CharString>
          <CharString index="54">
            -78 -10 66 173 61 175 66 return
          </CharString>
          <CharString index="55">
            -98 callsubr
            endchar
          </CharString>
          <CharString index="56">
            -39 -12 -30 -29 -27 hhcurveto
            endchar
          </CharString>
          <CharString index="57">
            -39 callgsubr
            -43 callsubr
            return
          </CharString>
          <CharString index="58">
            -26 callgsubr
            68 hlineto
            -75 -351 rlineto
            -2 -10 -1 -10 -9 vvcurveto
            return
          </CharString>
          <CharString index="59">
            -36 callgsubr
            118 110 -17 callgsubr
            21 98 rmoveto
            88 hlineto
            23 110 -68 callsubr
            return
          </CharString>
          <CharString index="60">
            -94 callsubr
            endchar
          </CharString>
          <CharString index="61">
            rmoveto
            65 -53 50 -80 -47 -54 -22 -36 -26 vhcurveto
            91 20 58 53 69 hhcurveto
            45 36 -22 -32 11 hvcurveto
            41 37 rlineto
            44 -17 -46 25 -57 hhcurveto
            -134 -92 -122 -156 -85 49 -52 81 103 93 74 88 hvcurveto
            -183 -111 rmoveto
            -53 -39 35 43 53 return
          </CharString>
          <CharString index="62">
            -10 callsubr
            459 76 return
          </CharString>
          <CharString index="63">
            130 111 79 -44 91 -105 -132 -106 -131 -111 -80 45 -89 106 hvcurveto
            return
          </CharString>
          <CharString index="64">
            -32 callgsubr
            27 28 71 41 vhcurveto
            return
          </CharString>
          <CharString index="65">
            rlineto
            -90 hlineto
            return
          </CharString>
          <CharString index="66">
            21 -36 callgsubr
            return
          </CharString>
          <CharString index="67">
            -21 208 70 432 -20 return
          </CharString>
          <CharString index="68">
            rmoveto
            -25 -17 23 28 hvcurveto
            return
          </CharString>
          <CharString index="69">
            609 rmoveto
            109 121 rlineto
            -87 hlineto
            -76 -101 rlineto
            return
          </CharString>
          <CharString index="70">
            54 -12 -1 callsubr
            return
          </CharString>
          <CharString index="71">
            -20 hstem
            -103 -33 callgsubr
            return
          </CharString>
          <CharString index="72">
            -41 callsubr
            228 -20 hstem
            return
          </CharString>
          <CharString index="73">
            rmoveto
            21 99 1 callgsubr
            -99 rlineto
            73 333 rmoveto
            -38 -180 rlineto
            -160 hlineto
            endchar
          </CharString>
          <CharString index="74">
            79 49 -21 -39 -44 -57 -29 -64 -69 -34 39 29 hvcurveto
            -40 -38 rlineto
            -53 2 51 -33 79 hhcurveto
            return
          </CharString>
          <CharString index="75">
            hstem
            44 92 471 92 vstem
            return
          </CharString>
          <CharString index="76">
            -10 callsubr
            526 -20 return
          </CharString>
          <CharString index="77">
            76 7 callsubr
            return
          </CharString>
          <CharString index="78">
            vvcurveto
            58 -40 41 -82 -94 -66 -50 -18 -17 vhcurveto
            27 -40 rlineto
            23 25 45 31 61 hhcurveto
            52 26 -24 -33 -69 -82 -17 -69 -26 hvcurveto
            -93 -35 -47 -48 -22 -105 rrcurveto
            endchar
          </CharString>
          <CharString index="79">
            rmoveto
            95 93 57 79 41 -28 30 -39 16 hvcurveto
            return
          </CharString>
          <CharString index="80">
            104 -5 81 557 82 return
          </CharString>
          <CharString index="81">
            43 -43 111 hstemhm
            return
          </CharString>
          <CharString index="82">
            -294 553 rlineto
            -70 hlineto
            return
          </CharString>
          <CharString index="83">
            -54 -115 -24 -114 rlineto
            84 hlineto
            24 114 rlineto
            -29 hlineto
            43 115 rlineto
            return
          </CharString>
          <CharString index="84">
            -26 20 -19 37 return
          </CharString>
          <CharString index="85">
            20 hmoveto
            -56 callgsubr
            return
          </CharString>
          <CharString index="86">
            hlineto
            -17 -80 rlineto
            return
          </CharString>
          <CharString index="87">
            hstem
            -35 hmoveto
            -14 callgsubr
            return
          </CharString>
          <CharString index="88">
            90 hlineto
            46 217 141 128 168 -345 rlineto
            99 hlineto
            -200 397 336 313 rlineto
            -98 hlineto
            -425 -393 rlineto
            return
          </CharString>
          <CharString index="89">
            hvcurveto
            -62 -292 3 callsubr
            66 -1 callgsubr
            return
          </CharString>
          <CharString index="90">
            84 43 -29 35 -50 8 hvcurveto
            return
          </CharString>
          <CharString index="91">
            111 -43 43 hstemhm
            return
          </CharString>
          <CharString index="92">
            -21 630 80 hstem
            183 hmoveto
            90 hlineto
            -59 callsubr
            return
          </CharString>
          <CharString index="93">
            -39 -34 callgsubr
            199 -20 30 callgsubr
            return
          </CharString>
          <CharString index="94">
            -50 21 callsubr
            return
          </CharString>
          <CharString index="95">
            24 112 rlineto
            return
          </CharString>
          <CharString index="96">
            rmoveto
            -79 -47 68 84 117 101 120 110 66 57 -59 -68 hvcurveto
            -32 -150 rlineto
            -62 -45 -62 -50 -69 hhcurveto
            endchar
          </CharString>
          <CharString index="97">
            76 -49 -21 return
          </CharString>
          <CharString index="98">
            -28 38 47 -17 56 hhcurveto
            209 195 210 215 70 -19 68 -36 53 hvcurveto
            84 99 rlineto
            -592 -414 rmoveto
            return
          </CharString>
          <CharString index="99">
            30 -38 -48 19 -57 hhcurveto
            -209 -197 -210 -217 -72 20 -70 38 -53 hvcurveto
            -80 -93 rlineto
            98 hlineto
            34 40 rlineto
            return
          </CharString>
          <CharString index="100">
            76 357 rlineto
            -56 hlineto
            -3 -1 -67 -53 -45 hhcurveto
            -12 -55 rlineto
            35 59 31 18 18 hvcurveto
            -63 -295 rlineto
            -87 hlineto
            return
          </CharString>
          <CharString index="101">
            110 -68 callsubr
            endchar
          </CharString>
          <CharString index="102">
            -116 -203 -21 746 -20 return
          </CharString>
          <CharString index="103">
            69 -57 27 -110 29 return
          </CharString>
          <CharString index="104">
            98 -74 38 -115 29 return
          </CharString>
          <CharString index="105">
            114 -20 hstemhm
            return
          </CharString>
          <CharString index="106">
            55 6 -20 hstemhm
            return
          </CharString>
          <CharString index="107">
            hlineto
            -116 return
          </CharString>
          <CharString index="108">
            48 -53 74 hvcurveto
            9 48 rmoveto
            -40 -27 35 43 61 54 57 52 40 27 -35 -43 -61 -54 -57 -52 hvcurveto
            return
          </CharString>
          <CharString index="109">
            -21 452 79 return
          </CharString>
          <CharString index="110">
            rlineto
            88 hlineto
            return
          </CharString>
          <CharString index="111">
            hlineto
            -30 callgsubr
          </CharString>
          <CharString index="112">
            379 69 -69 243 hstemhm
            48 95 return
          </CharString>
          <CharString index="113">
            -263 21 -21 445 78 -1 -20 return
          </CharString>
          <CharString index="114">
            389 76 return
          </CharString>
          <CharString index="115">
            -21 709 -20 21 -20 hstemhm
            return
          </CharString>
          <CharString index="116">
            -43 callgsubr
            hstem
            return
          </CharString>
          <CharString index="117">
            rlineto
            -26 callgsubr
            return
          </CharString>
          <CharString index="118">
            0 callgsubr
            hstem
            return
          </CharString>
          <CharString index="119">
            -182 106 return
          </CharString>
          <CharString index="120">
            -64 callgsubr
            endchar
          </CharString>
          <CharString index="121">
            710 -20 return
          </CharString>
          <CharString index="122">
            -49 -23 43 -57 hhcurveto
            -44 -26 -22 -25 -16 hvcurveto
            40 -44 rlineto
            13 7 14 13 27 hhcurveto
            return
          </CharString>
          <CharString index="123">
            21 -21 522 -20 228 -20 -17 callgsubr
            return
          </CharString>
          <CharString index="124">
            50 callgsubr
            96 453 rlineto
            return
          </CharString>
          <CharString index="125">
            hmoveto
            -12 callsubr
            -74 hlineto
            -24 -112 rlineto
            return
          </CharString>
          <CharString index="126">
            39 224 56 -30 30 -30 60 return
          </CharString>
          <CharString index="127">
            -182 37 70 32 return
          </CharString>
          <CharString index="128">
            21 2 callsubr
            return
          </CharString>
          <CharString index="129">
            -54 callgsubr
            228 9 callgsubr
            hintmask 10110100
            return
          </CharString>
          <CharString index="130">
            -181 rmoveto
            -43 callsubr
            return
          </CharString>
          <CharString index="131">
            40 callgsubr
            29 25 27 65 39 vhcurveto
            return
          </CharString>
          <CharString index="132">
            62 hlineto
            315 406 rlineto
            -320 hlineto
            -12 -55 rlineto
            234 hlineto
            endchar
          </CharString>
          <CharString index="133">
            49 callgsubr
            11 callsubr
            36 callsubr
            vstem
            return
          </CharString>
          <CharString index="134">
            62 hhcurveto
            22 29 -4 -14 17 hvcurveto
            -15 -21 -13 -40 -5 -25 rrcurveto
            endchar
          </CharString>
          <CharString index="135">
            629 rmoveto
            53 -20 110 121 rlineto
            -110 hlineto
            -5 -38 rlineto
            return
          </CharString>
          <CharString index="136">
            -42 callgsubr
            79 return
          </CharString>
          <CharString index="137">
            80 0 92 -2 callsubr
            return
          </CharString>
          <CharString index="138">
            36 -6 81 558 81 return
          </CharString>
          <CharString index="139">
            710 rlineto
            -482 hlineto
            -17 -81 rlineto
            342 hlineto
            endchar
          </CharString>
          <CharString index="140">
            -62 -60 -73 -65 -106 -104 -72 -32 62 59 vhcurveto
            endchar
          </CharString>
          <CharString index="141">
            40 224 55 -30 30 -30 60 return
          </CharString>
          <CharString index="142">
            56 133 51 126 51 hstemhm
            return
          </CharString>
          <CharString index="143">
            60 87 177 89 return
          </CharString>
          <CharString index="144">
            52 callsubr
            hintmask 11101000
            return
          </CharString>
          <CharString index="145">
            545 0 64 -64 80 378 64 108 80 return
          </CharString>
          <CharString index="146">
            159 155 207 206 -159 154 return
          </CharString>
          <CharString index="147">
            -191 -21 202 -31 callsubr
            hstemhm
            return
          </CharString>
          <CharString index="148">
            307 0 80 128 80 34 80 228 80 return
          </CharString>
          <CharString index="149">
            72 7 callsubr
            -9 -20 return
          </CharString>
          <CharString index="150">
            -9 -20 228 -20 hstemhm
            return
          </CharString>
          <CharString index="151">
            hlineto
            -90 -201 rlineto
            73 hlineto
            89 201 rlineto
            return
          </CharString>
          <CharString index="152">
            60 43 -25 57 hhcurveto
            35 41 10 17 35 hvcurveto
            return
          </CharString>
          <CharString index="153">
            -45 -33 18 -51 hhcurveto
            -22 -24 -3 -7 -26 hvcurveto
            return
          </CharString>
          <CharString index="154">
            54 38 -34 -43 -53 -64 -48 -65 hvcurveto
            endchar
          </CharString>
          <CharString index="155">
            -10 76 -45 -21 455 76 return
          </CharString>
          <CharString index="156">
            hstem
            37 callgsubr
            vstem
            return
          </CharString>
          <CharString index="157">
            -30 callsubr
            -9 -20 hstemhm
            return
          </CharString>
          <CharString index="158">
            rlineto
            300 hlineto
            return
          </CharString>
          <CharString index="159">
            2 callsubr
            -9 -20 hstemhm
            422 95 return
          </CharString>
          <CharString index="160">
            -10 66 175 57 -27 53 153 64 return
          </CharString>
          <CharString index="161">
            46 216 rlineto
            -76 hlineto
            -46 -216 rlineto
            return
          </CharString>
        <CharString name=".notdef">
          -617 endchar
        </CharString>
        <CharString name="A">
          -56 callsubr
          hstem
          -100 callsubr
          endchar
        </CharString>
        <CharString name="A.sc">
          -50 21 -21 155 70 326 -20 hstem
          -45 hmoveto
          86 hlineto
          98 155 rlineto
          234 hlineto
          33 -155 rlineto
          84 hlineto
          -117 551 rlineto
          -66 hlineto
          -135 -326 rmoveto
          147 227 49 -227 rlineto
          endchar
        </CharString>
        <CharString name="AE">
          41 callsubr
          hstem
          -80 hmoveto
          -52 callgsubr
        </CharString>
        <CharString name="AEacute">
          41 callsubr
          206 -20 hstem
          700 916 -87 callgsubr
          -671 -795 rmoveto
          -52 callgsubr
        </CharString>
        <CharString name="Aacute">
          -56 callsubr
          226 -20 hstem
          -100 callsubr
          97 638 -40 callgsubr
        </CharString>
        <CharString name="Abreve">
          -56 callsubr
          115 -26 callsubr
          344 52 hintmask 11110100
          -100 callsubr
          -6 570 -39 callsubr
          hintmask 11101100
          -97 callsubr
          hintmask 11110100
          -51 callsubr
        </CharString>
        <CharString name="Acircumflex">
          -56 callsubr
          226 -20 hstem
          -100 callsubr
          -89 524 -52 callsubr
        </CharString>
        <CharString name="Adblgrave">
          -56 callsubr
          228 -20 hstem
          -100 callsubr
          44 519 -91 callsubr
        </CharString>
        <CharString name="Adieresis">
          -56 callsubr
          121 102 hstem
          -100 callsubr
          -61 533 -61 callsubr
        </CharString>
        <CharString name="Agrave">
          -56 callsubr
          227 -20 hstem
          -100 callsubr
          -45 518 -70 callsubr
        </CharString>
        <CharString name="Ainvertedbreve">
          -56 callsubr
          115 -16 callsubr
          490 50 hintmask 11110100
          -100 callsubr
          -116 527 rmoveto
          50 hlineto
          hintmask 11101100
          -69 callsubr
          hvcurveto
          hintmask 11110100
          -92 callgsubr
        </CharString>
        <CharString name="Amacron">
          -56 callsubr
          148 58 hstem
          -100 callsubr
          134 560 -62 callsubr
          endchar
        </CharString>
        <CharString name="Aogonek">
          35 -160 -21 202 -40 callsubr
          hstem
          426 54 vstem
          494 23 callsubr
          -123 710 rlineto
          -77 hlineto
          -425 -710 rlineto
          96 hlineto
          121 208 rlineto
          278 hlineto
          34 -208 rlineto
          41 hlineto
          -67 -40 -30 -37 -39 -39 callgsubr
          -292 459 rmoveto
          193 328 49 -328 rlineto
          endchar
        </CharString>
        <CharString name="Aring">
          -56 callsubr
          88 31 76 31 hstem
          364 41 79 40 vstem
          -100 callsubr
          -80 556 -85 callgsubr
          endchar
        </CharString>
        <CharString name="Aringacute">
          -56 callsubr
          228 -20 hstem
          344 41 79 40 vstem
          583 918 rmoveto
          -87 hlineto
          -68 -102 rlineto
          -47 -4 -37 -32 -45 vvcurveto
          -20 8 -16 14 -9 vhcurveto
          -413 -690 rlineto
          96 hlineto
          121 208 rlineto
          278 hlineto
          34 -208 rlineto
          96 hlineto
          -120 690 rlineto
          28 14 18 25 32 vvcurveto
          17 -6 14 -12 10 vhcurveto
          -284 -524 rmoveto
          193 328 49 -328 rlineto
          -12 508 rmoveto
          19 13 -12 -19 -26 -26 -19 -22 -19 -12 14 17 26 23 19 24 hvcurveto
          endchar
        </CharString>
        <CharString name="Atilde">
          -56 callsubr
          123 -37 callsubr
          hintmask 11110100
          -100 callsubr
          51 535 -86 callsubr
          hintmask 11101000
          -91 callgsubr
          hintmask 11110100
          -46 callgsubr
        </CharString>
        <CharString name="B">
          30 0 78 244 73 237 78 hstemhm
          495 89 -49 49 -49 94 hintmask 11110000
          20 hmoveto
          321 hlineto
          124 119 89 132 68 -33 55 -59 20 hvcurveto
          hintmask 11100100
          82 35 55 82 84 vvcurveto
          74 -41 71 -79 vhcurveto
          -338 hlineto
          -44 -632 rmoveto
          51 244 rlineto
          238 hlineto
          hintmask 11110000
          49 30 -45 -53 -76 -68 -70 -70 hvcurveto
          -163 317 rmoveto
          50 237 rlineto
          217 hlineto
          hintmask 11101000
          46 28 -40 -53 -77 -63 -67 -67 hvcurveto
          endchar
        </CharString>
        <CharString name="B.sc">
          -54 0 69 177 65 170 70 hstemhm
          411 80 -51 51 -51 83 hintmask 11110000
          14 hmoveto
          272 hlineto
          106 99 66 104 55 -29 42 -51 16 hvcurveto
          hintmask 11100100
          67 26 45 63 64 vvcurveto
          59 -35 56 -68 vhcurveto
          -289 hlineto
          -22 -482 rmoveto
          37 177 rlineto
          198 hlineto
          hintmask 11110000
          41 26 -34 -39 -55 -54 -49 -57 hvcurveto
          -140 242 rmoveto
          36 170 rlineto
          180 hlineto
          hintmask 11101000
          39 25 -28 -40 -57 -50 -45 -54 hvcurveto
          endchar
        </CharString>
        <CharString name="C">
          31 callsubr
          hstem
          45 91 vstem
          293 -6 -86 callgsubr
          endchar
        </CharString>
        <CharString name="C.sc">
          -47 -5 72 415 72 hstem
          30 82 vstem
          246 -5 rmoveto
          89 113 46 82 54 hvcurveto
          -58 38 rlineto
          -66 -46 -75 -28 -58 hhcurveto
          -96 -57 79 92 112 96 132 143 56 61 -22 -68 19 hvcurveto
          71 42 rlineto
          71 -20 -67 49 -102 hhcurveto
          -197 -142 -172 -150 -121 79 -116 137 hvcurveto
          endchar
        </CharString>
        <CharString name="CR">
          -617 endchar
        </CharString>
        <CharString name="Cacute">
          31 callsubr
          202 -20 hstem
          45 91 vstem
          580 916 -87 callgsubr
          -178 -801 -86 callgsubr
          endchar
        </CharString>
        <CharString name="Ccaron">
          31 callsubr
          0 88 -2 callsubr
          45 91 hintmask 10111000
          444 802 -88 callsubr
          -74 -898 rmoveto
          105 134 59 106 65 hvcurveto
          -66 41 rlineto
          -88 -57 -90 -37 -70 hhcurveto
          -111 -67 103 121 hvcurveto
          hintmask 11011000
          151 121 183 173 68 71 -30 -90 20 vhcurveto
          81 46 rlineto
          91 -23 -76 64 -120 hhcurveto
          -234 -172 -225 -195 -153 90 -147 158 hvcurveto
          endchar
        </CharString>
        <CharString name="Ccedilla">
          32 20 callsubr
          38 80 558 81 hstem
          41 91 187 46 vstem
          149 -163 rmoveto
          -71 callsubr
          34 43 103 4 126 58 63 102 rlinecurve
          -66 41 rlineto
          -88 -57 -90 -37 -70 hhcurveto
          -111 -67 103 121 151 121 183 173 68 71 -30 -90 20 hvcurveto
          81 46 rlineto
          91 -23 -76 64 -120 hhcurveto
          -234 -172 -225 -195 -143 78 -137 139 -18 hvcurveto
          -60 -84 -73 callsubr
          endchar
        </CharString>
        <CharString name="Ccircumflex">
          31 callsubr
          202 -20 hstem
          45 91 vstem
          400 802 -98 callsubr
          -64 -832 -86 callgsubr
          endchar
        </CharString>
        <CharString name="Cdotaccent">
          31 callsubr
          96 106 hstem
          45 91 vstem
          293 -6 -86 callgsubr
          228 816 -93 callsubr
        </CharString>
        <CharString name="D">
          75 0 80 550 80 hstem
          575 93 vstem
          -81 callsubr
          endchar
        </CharString>
        <CharString name="D.sc">
          -13 0 71 409 71 hstem
          479 83 vstem
          14 hmoveto
          202 hlineto
          198 148 140 194 122 -73 95 -156 hvcurveto
          -202 hlineto
          -22 -480 rmoveto
          87 409 rlineto
          122 hlineto
          106 55 -65 -93 -134 -94 -117 -154 hvcurveto
          endchar
        </CharString>
        <CharString name="Dcaron">
          75 18 callgsubr
          575 93 hintmask 10111000
          387 802 -88 callsubr
          -290 -892 rmoveto
          -83 callgsubr
          -44 -630 rmoveto
          hintmask 11011000
          117 550 -78 callsubr
          endchar
        </CharString>
        <CharString name="Dcroat">
          -67 callgsubr
        </CharString>
        <CharString name="Ddotbelow">
          75 12 callsubr
          76 80 550 80 hstem
          575 93 vstem
          -81 callsubr
          -8 -262 -93 callsubr
        </CharString>
        <CharString name="Delta">
          35 0 80 630 -20 hstem
          337 710 rmoveto
          -74 hlineto
          -265 -643 rlineto
          -67 602 67 vlineto
          -502 33 callgsubr
        </CharString>
        <CharString name="E">
          -60 callgsubr
          hstem
          20 hmoveto
          459 -101 callsubr
          endchar
        </CharString>
        <CharString name="E.sc">
          -107 0 71 177 66 166 71 hstem
          14 hmoveto
          393 hlineto
          15 71 rlineto
          -313 hlineto
          38 177 rlineto
          266 hlineto
          14 66 rlineto
          -266 hlineto
          35 166 rlineto
          306 hlineto
          15 71 rlineto
          -386 hlineto
          endchar
        </CharString>
        <CharString name="Eacute">
          -60 callgsubr
          206 -20 hstem
          541 916 -87 callgsubr
          -412 -795 rmoveto
          459 -101 callsubr
          endchar
        </CharString>
        <CharString name="Ebreve">
          -60 callgsubr
          95 -26 callsubr
          323 52 hintmask 11110100
          20 hmoveto
          459 -101 callsubr
          246 138 -39 callsubr
          hintmask 11101100
          -97 callsubr
          hintmask 11110100
          -51 callsubr
        </CharString>
        <CharString name="Ecaron">
          -60 callgsubr
          0 92 114 -20 hstemhm
          hintmask 11011000
          379 802 -88 callsubr
          -282 -892 rmoveto
          459 -74 callgsubr
          -369 hlineto
          52 245 rlineto
          313 hlineto
          16 75 rlineto
          -313 hlineto
          hintmask 11101000
          49 230 rlineto
          360 -74 callgsubr
          -450 hlineto
          endchar
        </CharString>
        <CharString name="Ecircumflex">
          -60 callgsubr
          206 -20 hstem
          346 802 -98 callsubr
          -283 -826 rmoveto
          459 -101 callsubr
          endchar
        </CharString>
        <CharString name="Edblgrave">
          -60 callgsubr
          208 -20 hstem
          20 hmoveto
          459 -101 callsubr
          315 87 -91 callsubr
        </CharString>
        <CharString name="Edieresis">
          -60 callgsubr
          101 102 hstem
          378 811 -93 callgsubr
          -441 -811 rmoveto
          459 -101 callsubr
          endchar
        </CharString>
        <CharString name="Edotaccent">
          -60 callgsubr
          100 106 hstem
          20 hmoveto
          459 -101 callsubr
          288 100 -93 callsubr
        </CharString>
        <CharString name="Edotbelow">
          -37 12 callsubr
          76 80 245 75 230 80 hstem
          20 hmoveto
          459 -101 callsubr
          77 -892 -93 callsubr
        </CharString>
        <CharString name="Egrave">
          -60 callgsubr
          207 -20 hstem
          20 hmoveto
          459 -101 callsubr
          239 86 -70 callsubr
        </CharString>
        <CharString name="Einvertedbreve">
          -60 callgsubr
          95 -16 callsubr
          479 50 hintmask 11110100
          20 hmoveto
          459 -101 callsubr
          146 95 rmoveto
          50 hlineto
          hintmask 11101100
          -69 callsubr
          hvcurveto
          hintmask 11110100
          -92 callgsubr
        </CharString>
        <CharString name="Emacron">
          -60 callgsubr
          128 58 hstem
          20 hmoveto
          459 -101 callsubr
          391 128 -62 callsubr
          endchar
        </CharString>
        <CharString name="Eng">
          115 -186 78 129 8 callsubr
          hintmask 11100000
          387 -186 rmoveto
          81 90 68 98 21 hvcurveto
          155 729 -42 callsubr
          -117 -548 rlineto
          hintmask 11010000
          -287 549 rlineto
          -69 hlineto
          -151 -710 rlineto
          90 hlineto
          115 540 273 -525 -8 -38 rlineto
          -49 -10 -46 -36 -41 hhcurveto
          -22 -23 6 17 -13 hvcurveto
          -53 -59 rlineto
          -29 24 38 -13 43 hhcurveto
          endchar
        </CharString>
        <CharString name="Eogonek">
          -37 -160 -21 181 80 245 75 230 80 hstem
          131 54 vstem
          20 hmoveto
          208 hlineto
          -67 -40 -30 -37 -39 -50 callsubr
          196 -101 callsubr
          endchar
        </CharString>
        <CharString name="Eth">
          -67 callgsubr
        </CharString>
        <CharString name="Etilde">
          -60 callgsubr
          103 -37 callsubr
          hintmask 11110100
          20 hmoveto
          459 -101 callsubr
          302 103 -86 callsubr
          hintmask 11101000
          -91 callgsubr
          hintmask 11110100
          -46 callgsubr
        </CharString>
        <CharString name="Euro">
          140 -6 81 184 52 59 52 211 81 hstem
          103 422 rmoveto
          -33 -52 rlineto
          67 hlineto
          -4 -20 -3 -20 -1 -19 rrcurveto
          -71 hlineto
          -33 -52 rlineto
          105 hlineto
          -140 13 88 -125 146 hhcurveto
          105 134 59 106 65 hvcurveto
          -66 41 rlineto
          -88 -57 -91 -37 -69 hhcurveto
          -99 -64 81 103 -13 hvcurveto
          230 hlineto
          33 52 rlineto
          -265 hlineto
          1 19 3 20 4 20 rrcurveto
          281 hlineto
          33 52 rlineto
          -298 hlineto
          112 43 100 99 127 hhcurveto
          67 72 -30 -90 20 hvcurveto
          81 46 rlineto
          91 -23 -76 64 -120 hhcurveto
          -184 -145 -138 -154 -54 hvcurveto
          endchar
        </CharString>
        <CharString name="F">
          -52 21 -21 318 75 237 80 hstem
          20 hmoveto
          90 hlineto
          68 318 rlineto
          299 hlineto
          16 75 rlineto
          -299 hlineto
          50 237 rlineto
          356 -74 callgsubr
          -446 hlineto
          endchar
        </CharString>
        <CharString name="F.sc">
          -122 21 -21 241 67 172 71 hstem
          55 callgsubr
          51 241 rlineto
          254 hlineto
          15 67 rlineto
          -255 hlineto
          37 172 rlineto
          302 hlineto
          15 71 rlineto
          -382 hlineto
          endchar
        </CharString>
        <CharString name="G">
          -28 callgsubr
          hstemhm
          45 91 hintmask 01111000
          13 callgsubr
          hintmask 10111000
          -47 callsubr
        </CharString>
        <CharString name="G.alt">
          82 -5 81 201 80 277 81 hstem
          45 91 vstem
          301 -5 rmoveto
          173 152 146 167 47 hvcurveto
          2 6 9 39 1 4 rrcurveto
          -277 -21 callsubr
          179 hlineto
          -103 -40 -105 -98 -114 hhcurveto
          -116 -59 107 114 159 131 178 163 95 50 -69 -59 19 hvcurveto
          83 57 rlineto
          92 -33 -79 60 -113 hhcurveto
          -219 -188 -213 -211 -156 94 -140 162 hvcurveto
          endchar
        </CharString>
        <CharString name="G.sc">
          -23 -4 72 -47 -21 217 60 206 72 hstemhm
          31 81 hintmask 01111000
          414 hmoveto
          67 hlineto
          59 277 rlineto
          -190 hlineto
          -12 -60 rlineto
          122 hlineto
          -14 -65 rlineto
          hintmask 10111000
          -56 -61 -61 -28 -59 hhcurveto
          -93 -60 75 93 122 105 125 129 68 53 -30 -62 18 hvcurveto
          71 44 rlineto
          71 -22 -62 49 -108 hhcurveto
          -175 -158 -156 -168 -123 82 -112 131 63 61 24 51 61 hvcurveto
          endchar
        </CharString>
        <CharString name="Gacute">
          -28 callgsubr
          201 -20 hstemhm
          45 91 hintmask 01111100
          13 callgsubr
          hintmask 10111100
          -94 callsubr
          hintmask 01111100
          47 821 -40 callgsubr
        </CharString>
        <CharString name="Gbreve">
          -28 callgsubr
          90 -26 callsubr
          45 91 237 52 hintmask 01111011
          13 callgsubr
          hintmask 10111011
          -94 callsubr
          hintmask 01111011
          -49 753 -39 callsubr
          hintmask 10110111
          -97 callsubr
          hintmask 10111011
          -51 callsubr
        </CharString>
        <CharString name="Gcircumflex">
          -28 callgsubr
          201 -20 hstemhm
          45 91 hintmask 01111100
          384 802 -98 callsubr
          155 -826 rmoveto
          -62 callgsubr
          hintmask 10111100
          -47 callsubr
        </CharString>
        <CharString name="Gcommaaccent">
          69 -2 callgsubr
          43 0 81 -55 -21 286 68 280 81 hstemhm
          45 91 hintmask 11011110
          260 -88 callgsubr
          279 213 rmoveto
          -62 callgsubr
          hintmask 10101110
          -47 callsubr
        </CharString>
        <CharString name="Gdotaccent">
          -28 callgsubr
          95 106 hstemhm
          45 91 hintmask 01111100
          13 callgsubr
          hintmask 10111100
          -94 callsubr
          hintmask 01111100
          -5 715 -93 callsubr
        </CharString>
        <CharString name="H">
          96 21 -21 323 80 307 -20 hstem
          20 hmoveto
          -55 callsubr
          endchar
        </CharString>
        <CharString name="H.sc">
          5 21 -21 246 72 233 -20 hstem
          55 callgsubr
          52 246 rlineto
          307 hlineto
          -52 -246 rlineto
          80 hlineto
          117 551 rlineto
          -80 hlineto
          -49 -233 rlineto
          -308 hlineto
          50 233 rlineto
          -80 hlineto
          endchar
        </CharString>
        <CharString name="Hbar">
          106 21 -21 323 80 145 47 -47 162 hstemhm
          hintmask 11100000
          95 548 rmoveto
          47 0 callsubr
          -548 rlineto
          90 hlineto
          69 323 rlineto
          365 hlineto
          -69 -323 rlineto
          90 hlineto
          116 548 rlineto
          48 hlineto
          10 47 rlineto
          -48 hlineto
          hintmask 11010000
          25 115 -42 callsubr
          hintmask 11100000
          -25 -115 rlineto
          -365 hlineto
          hintmask 11010000
          25 115 -42 callsubr
          hintmask 11100000
          -25 -115 rlineto
          -47 hlineto
          97 -192 rmoveto
          30 145 rlineto
          365 hlineto
          -30 -145 rlineto
          endchar
        </CharString>
        <CharString name="Hcircumflex">
          96 21 -21 323 80 307 -20 226 -20 hstem
          379 802 -98 callsubr
          -316 -826 rmoveto
          -55 callsubr
          endchar
        </CharString>
        <CharString name="Hdotbelow">
          96 12 callsubr
          97 -21 323 80 307 -20 hstem
          20 hmoveto
          -55 callsubr
          124 -892 -93 callsubr
        </CharString>
        <CharString name="I">
          11 callgsubr
          709 -20 hstem
          20 hmoveto
          90 -76 callsubr
          endchar
        </CharString>
        <CharString name="I.sc">
          -382 -12 callgsubr
          55 callgsubr
          117 551 rlineto
          -80 hlineto
          endchar
        </CharString>
        <CharString name="IJ">
          113 -11 81 -49 -21 709 -20 hstemhm
          hintmask 01100000
          20 hmoveto
          90 -76 callsubr
          hintmask 10100000
          185 -720 rmoveto
          206 56 144 216 46 hvcurveto
          77 360 -42 callsubr
          -77 -360 rlineto
          -181 -39 -36 -98 -126 hhcurveto
          -54 -42 18 18 -20 hvcurveto
          -38 -73 rlineto
          -29 34 45 -15 58 hhcurveto
          endchar
        </CharString>
        <CharString name="Iacute">
          11 callgsubr
          916 -20 hstem
          20 hmoveto
          90 -76 callsubr
          167 207 -40 callgsubr
        </CharString>
        <CharString name="Ibreve">
          11 callgsubr
          805 -26 callsubr
          138 52 hintmask 11010000
          20 hmoveto
          90 -76 callsubr
          61 139 -39 callsubr
          hintmask 10110000
          -97 callsubr
          hintmask 11010000
          -51 callsubr
        </CharString>
        <CharString name="Icircumflex">
          11 callgsubr
          916 -20 hstem
          20 hmoveto
          90 -76 callsubr
          -18 93 -52 callsubr
        </CharString>
        <CharString name="Idblgrave">
          11 callgsubr
          918 -20 hstem
          20 hmoveto
          90 -76 callsubr
          121 88 -91 callsubr
        </CharString>
        <CharString name="Idieresis">
          11 callgsubr
          811 102 hstem
          20 hmoveto
          90 -76 callsubr
          24 102 -61 callsubr
        </CharString>
        <CharString name="Idotaccent">
          11 callgsubr
          810 106 hstem
          20 hmoveto
          90 -76 callsubr
          105 101 -93 callsubr
        </CharString>
        <CharString name="Idotbelow">
          -359 12 callsubr
          97 -21 709 -20 hstem
          20 hmoveto
          90 -76 callsubr
          -107 -891 -93 callsubr
        </CharString>
        <CharString name="Igrave">
          11 callgsubr
          917 -20 hstem
          20 hmoveto
          90 -76 callsubr
          52 87 -70 callsubr
        </CharString>
        <CharString name="Iinvertedbreve">
          11 callgsubr
          873 43 hstem
          294 50 vstem
          20 hmoveto
          90 -76 callsubr
          -39 96 rmoveto
          50 hlineto
          -69 callsubr
          -8 -1 -8 -1 -9 hvcurveto
          49 hlineto
          2 8 1 8 8 vvcurveto
          48 -34 39 -51 -58 -56 -48 -63 -13 vhcurveto
          endchar
        </CharString>
        <CharString name="Imacron">
          11 callgsubr
          838 58 hstem
          20 hmoveto
          90 -76 callsubr
          211 129 -62 callsubr
          endchar
        </CharString>
        <CharString name="Iogonek">
          -359 -160 -21 202 -21 709 -20 hstem
          -42 54 vstem
          20 hmoveto
          35 hlineto
          -67 -40 -30 -37 -39 -50 callsubr
          151 709 -42 callsubr
          endchar
        </CharString>
        <CharString name="Itilde">
          11 callgsubr
          813 -37 callsubr
          hintmask 11010000
          20 hmoveto
          90 -76 callsubr
          128 104 -86 callsubr
          hintmask 10100000
          -91 callgsubr
          hintmask 11010000
          -46 callgsubr
        </CharString>
        <CharString name="J">
          -145 -11 81 639 -20 hstem
          98 -11 rmoveto
          206 56 144 216 46 hvcurveto
          77 360 -42 callsubr
          -77 -360 rlineto
          -181 -39 -36 -98 -126 hhcurveto
          -54 -42 18 18 -20 hvcurveto
          -38 -73 rlineto
          -29 34 45 -15 58 hhcurveto
          endchar
        </CharString>
        <CharString name="J.sc">
          -200 -8 71 488 -20 hstem
          82 -8 rmoveto
          177 45 111 168 36 hvcurveto
          60 280 rlineto
          -80 hlineto
          -60 -280 rlineto
          -136 -29 -28 -72 -106 hhcurveto
          -47 -36 15 13 -16 hvcurveto
          -35 -66 rlineto
          -22 30 39 -11 50 hhcurveto
          endchar
        </CharString>
        <CharString name="Jcircumflex">
          -145 -11 81 846 -20 hstem
          376 802 -98 callsubr
          -235 -837 rmoveto
          206 56 144 216 46 hvcurveto
          77 360 -42 callsubr
          -77 -360 rlineto
          -181 -39 -36 -98 -126 hhcurveto
          -54 -42 18 18 -20 hvcurveto
          -38 -73 rlineto
          -29 34 45 -15 58 hhcurveto
          endchar
        </CharString>
        <CharString name="K">
          8 21 8 callsubr
          hintmask 10100000
          20 hmoveto
          -19 callsubr
          hintmask 11000000
          84 392 -42 callsubr
          endchar
        </CharString>
        <CharString name="K.sc">
          -68 -12 callgsubr
          55 callgsubr
          36 168 115 93 150 -261 rlineto
          86 hlineto
          -177 308 281 243 rlineto
          -86 hlineto
          -351 -295 63 295 rlineto
          -80 hlineto
          endchar
        </CharString>
        <CharString name="Kcommaaccent">
          8 -192 -21 234 8 callsubr
          hintmask 11010000
          241 -88 callgsubr
          -178 213 rmoveto
          -19 callsubr
          hintmask 11100000
          84 392 -42 callsubr
          endchar
        </CharString>
        <CharString name="L">
          -58 0 80 630 -20 hstem
          -22 callsubr
          endchar
        </CharString>
        <CharString name="L.sc">
          -149 0 71 480 -20 hstem
          14 hmoveto
          378 hlineto
          15 71 rlineto
          -298 hlineto
          102 480 rlineto
          -80 hlineto
          endchar
        </CharString>
        <CharString name="Lacute">
          -58 0 80 630 -20 226 -20 hstem
          353 916 -87 callgsubr
          -224 -795 rmoveto
          -56 callgsubr
          endchar
        </CharString>
        <CharString name="Lcaron">
          -58 0 80 650 -20 hstem
          371 -38 callsubr
          -297 -629 rmoveto
          -56 callgsubr
          endchar
        </CharString>
        <CharString name="Lcommaaccent">
          -58 -2 callgsubr
          48 14 callsubr
          hstemhm
          221 -88 callgsubr
          -158 213 rmoveto
          463 hlineto
          hintmask 11100000
          17 80 rlineto
          -373 hlineto
          21 callgsubr
          -90 hlineto
          endchar
        </CharString>
        <CharString name="Ldot">
          -58 0 80 263 124 243 -20 hstem
          -22 callsubr
          230 -367 -19 callgsubr
        </CharString>
        <CharString name="Lslash">
          -52 0 80 630 -20 hstem
          24 233 rmoveto
          61 42 -58 -275 rlineto
          463 -74 callgsubr
          -373 hlineto
          57 268 183 126 -14 49 -154 -106 62 293 -42 callsubr
          -78 -365 -91 -62 rlineto
          endchar
        </CharString>
        <CharString name="M">
          221 9 callsubr
          20 hmoveto
          90 hlineto
          117 549 130 -421 rlineto
          51 hlineto
          309 421 -117 -549 rlineto
          90 hlineto
          151 710 rlineto
          -94 hlineto
          -339 -461 -142 461 rlineto
          -95 hlineto
          endchar
        </CharString>
        <CharString name="M.sc">
          111 -12 callgsubr
          55 callgsubr
          87 409 118 -311 rlineto
          45 hlineto
          250 311 -87 -409 rlineto
          80 hlineto
          117 551 rlineto
          -84 hlineto
          -275 -345 -129 345 rlineto
          -85 hlineto
          endchar
        </CharString>
        <CharString name="N">
          122 21 8 callsubr
          hintmask 11000000
          20 hmoveto
          -77 callsubr
          rlineto
          hintmask 10100000
          -25 callsubr
          endchar
        </CharString>
        <CharString name="N.sc">
          27 -12 callgsubr
          55 callgsubr
          85 402 257 -402 rlineto
          67 hlineto
          117 551 rlineto
          -80 hlineto
          -87 -410 -260 410 rlineto
          -62 hlineto
          endchar
        </CharString>
        <CharString name="NULL">
          -617 endchar
        </CharString>
        <CharString name="Nacute">
          122 6 callgsubr
          590 916 -87 callgsubr
          -461 -795 rmoveto
          -77 callsubr
          -25 callsubr
          endchar
        </CharString>
        <CharString name="Ncaron">
          122 6 callgsubr
          435 802 -88 callsubr
          -338 -892 rmoveto
          -77 callsubr
          -25 callsubr
          endchar
        </CharString>
        <CharString name="Ncommaaccent">
          122 -192 -21 234 8 callsubr
          hintmask 11100000
          271 -88 callgsubr
          -208 213 rmoveto
          -77 callsubr
          rlineto
          hintmask 11010000
          -25 callsubr
          endchar
        </CharString>
        <CharString name="Ndotaccent">
          122 -43 callgsubr
          120 106 hstem
          514 810 rmoveto
          22 106 rlineto
          -79 hlineto
          -23 -106 rlineto
          -414 -810 rmoveto
          -77 callsubr
          -25 callsubr
          endchar
        </CharString>
        <CharString name="Ntilde">
          122 -43 callgsubr
          123 -37 callsubr
          hintmask 11101000
          20 hmoveto
          -77 callsubr
          -25 callsubr
          367 103 -86 callsubr
          hintmask 11010000
          -91 callgsubr
          hintmask 11101000
          -46 callgsubr
        </CharString>
        <CharString name="O">
          -27 callsubr
          -80 callsubr
          endchar
        </CharString>
        <CharString name="O.sc">
          8 -4 72 414 72 hstem
          29 82 391 82 vstem
          247 -4 rmoveto
          177 160 160 165 120 -77 113 -140 -177 -161 -160 -166 -121 79 -111 139 hvcurveto
          17 72 rmoveto
          -99 -54 79 89 117 105 129 135 96 55 -78 -90 -115 -103 -131 -135 hvcurveto
          endchar
        </CharString>
        <CharString name="OE">
          460 0 80 -64 -21 327 80 232 76 5 -20 hstemhm
          44 92 hintmask 01110100
          295 -5 rmoveto
          101 100 70 92 63 hvcurveto
          hintmask 10110100
          -34 -157 rlineto
          451 -74 callgsubr
          -361 hlineto
          52 242 rlineto
          301 -74 callgsubr
          -301 hlineto
          48 228 rlineto
          353 -74 callgsubr
          -443 hlineto
          -33 -157 rlineto
          hintmask 01101100
          90 -23 -67 72 -104 hhcurveto
          -209 -196 -210 -217 -53 callgsubr
          hvcurveto
          17 81 rmoveto
          -114 -62 102 118 hvcurveto
          hintmask 10110100
          160 131 178 164 112 63 -103 -117 -159 -130 -179 -164 vhcurveto
          endchar
        </CharString>
        <CharString name="Oacute">
          -27 callsubr
          201 35 callgsubr
          583 916 -87 callgsubr
          -179 -800 -106 callgsubr
          endchar
        </CharString>
        <CharString name="Obreve">
          -27 callsubr
          90 -26 callsubr
          44 92 242 52 177 92 hintmask 11101110
          -99 callsubr
          159 772 -39 callsubr
          hintmask 11011110
          -97 callsubr
          hintmask 11101110
          -51 callsubr
        </CharString>
        <CharString name="Ocircumflex">
          -27 callsubr
          201 35 callgsubr
          395 802 -98 callsubr
          -57 -831 -106 callgsubr
          endchar
        </CharString>
        <CharString name="Odblgrave">
          -27 callsubr
          203 -20 -80 callsubr
          235 721 -91 callsubr
        </CharString>
        <CharString name="Odieresis">
          -27 callsubr
          96 102 -32 callsubr
          430 811 -93 callgsubr
          -218 -816 -106 callgsubr
          endchar
        </CharString>
        <CharString name="Odotbelow">
          104 12 callsubr
          71 81 557 82 -80 callsubr
          -8 -258 -93 callsubr
        </CharString>
        <CharString name="Ograve">
          -27 callsubr
          202 -20 -80 callsubr
          167 720 -70 callsubr
        </CharString>
        <CharString name="Ohungarumlaut">
          -27 callsubr
          202 35 callgsubr
          514 917 -58 callgsubr
          -245 -801 -106 callgsubr
          endchar
        </CharString>
        <CharString name="Oinvertedbreve">
          -27 callsubr
          90 -16 callsubr
          44 92 403 50 18 92 hintmask 11101110
          -99 callsubr
          64 729 rmoveto
          50 hlineto
          hintmask 11011110
          -69 callsubr
          hvcurveto
          hintmask 11101110
          -92 callgsubr
        </CharString>
        <CharString name="Omacron">
          -27 callsubr
          123 58 -32 callsubr
          618 838 -62 callsubr
          -45 -843 -106 callgsubr
          endchar
        </CharString>
        <CharString name="Omega">
          -68 callgsubr
        </CharString>
        <CharString name="Oogonek">
          103 -160 -21 177 80 557 82 hstem
          44 92 33 54 384 92 vstem
          237 24 callsubr
          202 11 184 204 209 vvcurveto
          151 -88 144 -161 -209 -197 -210 -217 -143 78 -131 140 -17 vhcurveto
          -64 -39 -29 -36 -38 -39 callgsubr
          76 257 rmoveto
          -115 -62 102 118 160 131 177 164 113 63 -102 -118 -158 -130 -179 -164 hvcurveto
          endchar
        </CharString>
        <CharString name="Oslash">
          104 -5 81 -55 -21 633 82 -5 -20 hstemhm
          44 92 471 92 hintmask 10011100
          630 710 rmoveto
          -37 -44 rlineto
          hintmask 01101100
          -8 callsubr
          hintmask 10011100
          -9 callsubr
          hintmask 10101100
          -44 callgsubr
          endchar
        </CharString>
        <CharString name="Oslashacute">
          104 -5 81 -55 -21 633 82 -5 -20 226 -20 hstemhm
          44 92 471 92 hintmask 10011110
          630 710 rmoveto
          -37 -44 rlineto
          hintmask 01101110
          -8 callsubr
          hintmask 10011110
          -9 callsubr
          hintmask 10101110
          -44 callgsubr
          276 840 -40 callgsubr
        </CharString>
        <CharString name="Otilde">
          -27 callsubr
          98 -37 callsubr
          44 92 471 92 hintmask 11101110
          -99 callsubr
          219 737 -86 callsubr
          hintmask 11010110
          -91 callgsubr
          hintmask 11101110
          -46 callgsubr
        </CharString>
        <CharString name="P">
          -16 -4 callgsubr
          hstem
          523 92 vstem
          20 hmoveto
          90 hlineto
          54 255 rlineto
          197 hlineto
          138 116 138 129 96 -60 92 -102 hvcurveto
          -282 hlineto
          10 -375 rmoveto
          63 295 rlineto
          186 hlineto
          54 39 -49 -67 -91 -69 -88 -81 hvcurveto
          endchar
        </CharString>
        <CharString name="P.sc">
          -90 21 -21 194 71 215 71 hstem
          432 82 vstem
          55 callgsubr
          41 194 rlineto
          166 hlineto
          117 96 106 101 76 -53 74 -89 hvcurveto
          -241 hlineto
          19 -286 rmoveto
          46 215 rlineto
          156 hlineto
          47 33 -36 -51 -68 -54 -60 -67 hvcurveto
          endchar
        </CharString>
        <CharString name="Q">
          103 -5 81 -81 237 -211 -21 634 81 hstemhm
          44 92 471 92 hintmask 00111100
          522 hmoveto
          88 hlineto
          -62 100 rlineto
          90 81 61 119 120 vvcurveto
          151 -88 144 -161 -209 -197 -210 -217 vhcurveto
          hintmask 10011100
          -53 callgsubr
          68 66 22 37 59 vhcurveto
          hintmask 00111100
          hintmask 10011100
          -175 22 rmoveto
          -115 -62 102 118 160 131 178 164 113 63 -103 -118 -87 -39 -92 -62 -67 hvcurveto
          hintmask 01011100
          -40 65 rlineto
          -87 hlineto
          69 -113 rlineto
          hintmask 10011100
          -27 -40 -46 -16 -49 hhcurveto
          endchar
        </CharString>
        <CharString name="Q.sc">
          7 -4 72 -72 191 -166 -21 483 72 hstemhm
          29 82 391 82 hintmask 00111100
          440 hmoveto
          78 hlineto
          -55 80 rlineto
          73 62 48 88 91 vvcurveto
          120 -77 114 -140 -176 -162 -161 -166 vhcurveto
          hintmask 10011100
          -121 79 -111 139 58 56 17 29 50 vhcurveto
          hintmask 00111100
          hintmask 10011100
          -147 26 rmoveto
          -99 -54 79 89 117 105 130 135 97 54 -79 -89 -62 -30 -67 -48 -48 hvcurveto
          hintmask 01011100
          -33 49 rlineto
          -79 hlineto
          61 -89 rlineto
          hintmask 10011100
          -19 -33 -37 -11 -39 hhcurveto
          endchar
        </CharString>
        <CharString name="R">
          5 callgsubr
          -54 callsubr
          endchar
        </CharString>
        <CharString name="R.sc">
          -61 21 -21 194 71 215 71 hstem
          439 82 vstem
          55 callgsubr
          41 194 rlineto
          146 hlineto
          87 -194 rlineto
          92 hlineto
          -94 210 rlineto
          87 23 68 83 85 vvcurveto
          76 -52 74 -90 vhcurveto
          -248 hlineto
          19 -286 rmoveto
          46 215 rlineto
          163 hlineto
          48 32 -39 -49 -64 -56 -63 -65 hvcurveto
          endchar
        </CharString>
        <CharString name="Racute">
          5 callgsubr
          208 -20 hstem
          530 93 vstem
          518 918 -87 callgsubr
          -299 -797 rmoveto
          -96 callgsubr
          endchar
        </CharString>
        <CharString name="Rcaron">
          5 callgsubr
          0 94 -2 callsubr
          530 93 hintmask 11011100
          385 804 -88 callsubr
          -198 -894 rmoveto
          54 255 rlineto
          174 hlineto
          98 -255 rlineto
          102 hlineto
          -105 272 rlineto
          106 27 84 112 111 vvcurveto
          96 -60 92 -102 vhcurveto
          -290 hlineto
          -151 -710 rlineto
          161 335 rmoveto
          hintmask 11101100
          63 295 rlineto
          195 hlineto
          53 38 -53 -65 -87 -68 -90 -80 hvcurveto
          endchar
        </CharString>
        <CharString name="Rcommaaccent">
          16 -192 -21 234 -25 callgsubr
          hstem
          530 93 vstem
          219 -88 callgsubr
          -66 213 rmoveto
          -96 callgsubr
          endchar
        </CharString>
        <CharString name="Rdblgrave">
          5 callgsubr
          208 -20 -54 callsubr
          88 462 -91 callsubr
        </CharString>
        <CharString name="Rdotbelow">
          16 12 callsubr
          97 -25 callgsubr
          -54 callsubr
          -127 -517 -93 callsubr
        </CharString>
        <CharString name="Rinvertedbreve">
          5 callgsubr
          95 -16 callsubr
          472 50 8 93 hintmask 11110110
          -74 callsubr
          -72 470 rmoveto
          50 hlineto
          hintmask 11101110
          -69 callsubr
          hvcurveto
          hintmask 11110110
          -92 callgsubr
        </CharString>
        <CharString name="S">
          -29 -7 81 561 80 hstem
          36 callgsubr
          vstem
          242 -7 rmoveto
          159 134 76 160 -3 callsubr
          hvcurveto
          -100 25 -51 20 59 vvcurveto
          79 54 58 121 80 65 -37 -37 22 vhcurveto
          57 73 rlineto
          49 -46 -69 32 -90 hhcurveto
          -161 -132 -92 -154 -85 62 -36 110 -30 hvcurveto
          104 -28 63 -24 -65 vvcurveto
          -66 callsubr
          endchar
        </CharString>
        <CharString name="S.sc">
          -107 -6 72 418 71 hstem
          72 86 197 90 vstem
          201 -6 rmoveto
          132 112 58 127 78 -64 28 -96 24 hvcurveto
          -84 21 -43 15 43 vvcurveto
          56 43 40 97 67 52 -27 -30 22 vhcurveto
          49 65 rlineto
          38 -39 -59 25 -76 hhcurveto
          -132 -110 -70 -121 -68 50 -30 93 -23 hvcurveto
          88 -22 52 -17 -48 vvcurveto
          -58 -53 -32 -84 -87 -66 35 37 -28 vhcurveto
          -52 -68 rlineto
          -49 53 77 -27 86 hhcurveto
          endchar
        </CharString>
        <CharString name="Sacute">
          -29 -7 81 561 80 215 -20 hstem
          36 callgsubr
          vstem
          522 930 -87 callgsubr
          -171 -816 rmoveto
          159 134 76 160 -3 callsubr
          hvcurveto
          -100 25 -51 20 59 vvcurveto
          79 54 58 121 80 65 -37 -37 22 vhcurveto
          57 73 rlineto
          49 -46 -69 32 -90 hhcurveto
          -161 -132 -92 -154 -85 62 -36 110 -30 hvcurveto
          104 -28 63 -24 -65 vvcurveto
          -66 callsubr
          endchar
        </CharString>
        <CharString name="Scaron">
          -29 -7 81 561 80 0 101 -2 callsubr
          36 callgsubr
          hintmask 10111100
          369 816 -88 callsubr
          -50 -913 rmoveto
          159 134 76 160 -3 callsubr
          hvcurveto
          -100 25 -51 20 59 vvcurveto
          hintmask 11011100
          79 54 58 121 80 65 -37 -37 22 vhcurveto
          57 73 rlineto
          49 -46 -69 32 -90 hhcurveto
          -161 -132 -92 -154 -85 62 -36 110 -30 hvcurveto
          104 -28 63 -24 -65 vvcurveto
          -66 callsubr
          endchar
        </CharString>
        <CharString name="Schwa">
          89 -5 81 238 78 240 83 hstem
          27 88 471 98 vstem
          282 -5 rmoveto
          206 196 197 234 163 -97 126 -149 -118 -129 -72 -105 -72 hvcurveto
          78 -39 rlineto
          77 39 91 56 86 hhcurveto
          103 70 -85 -119 -12 -1 -12 -1 -12 hvcurveto
          -536 hlineto
          -7 -14 -14 -39 -57 vvcurveto
          -160 102 -127 153 vhcurveto
          19 81 rmoveto
          -119 -67 83 104 17 1 17 4 17 hvcurveto
          449 hlineto
          -137 -38 -113 -101 -117 hhcurveto
          endchar
        </CharString>
        <CharString name="Scircumflex">
          -29 -7 81 561 80 215 -20 hstem
          36 callgsubr
          vstem
          329 816 -98 callsubr
          -44 -847 rmoveto
          159 134 76 160 -3 callsubr
          hvcurveto
          -100 25 -51 20 59 vvcurveto
          79 54 58 121 80 65 -37 -37 22 vhcurveto
          57 73 rlineto
          49 -46 -69 32 -90 hhcurveto
          -161 -132 -92 -154 -85 62 -36 110 -30 hvcurveto
          104 -28 63 -24 -65 vvcurveto
          -66 callsubr
          endchar
        </CharString>
        <CharString name="Sdotbelow">
          -29 12 callsubr
          69 81 561 80 hstem
          36 callgsubr
          vstem
          242 -7 rmoveto
          159 134 76 160 -3 callsubr
          hvcurveto
          -100 25 -51 20 59 vvcurveto
          79 54 58 121 80 65 -37 -37 22 vhcurveto
          57 73 rlineto
          49 -46 -69 32 -90 hhcurveto
          -161 -132 -92 -154 -85 62 -36 110 -30 hvcurveto
          104 -28 63 -24 -65 vvcurveto
          -66 callsubr
          -2 -175 -93 callsubr
        </CharString>
        <CharString name="T">
          -31 21 -15 callsubr
          endchar
        </CharString>
        <CharString name="T.sc">
          -102 21 -21 480 71 hstem
          154 hmoveto
          80 hlineto
          102 480 rlineto
          195 hlineto
          15 71 rlineto
          -472 hlineto
          -15 -71 rlineto
          197 hlineto
          endchar
        </CharString>
        <CharString name="Tbar">
          0 21 -21 350 47 233 80 hstem
          74 350 rmoveto
          198 hlineto
          -74 -350 rlineto
          90 hlineto
          74 350 rlineto
          199 hlineto
          10 47 rlineto
          -199 hlineto
          50 233 rlineto
          231 -74 callgsubr
          -552 -21 callsubr
          231 hlineto
          -50 -233 rlineto
          -198 hlineto
          endchar
        </CharString>
        <CharString name="Tcaron">
          -31 21 -21 630 30 callsubr
          hintmask 10110000
          361 802 -88 callsubr
          -101 -892 rmoveto
          90 hlineto
          hintmask 11010000
          -30 callgsubr
        </CharString>
        <CharString name="Tdotbelow">
          -31 12 callsubr
          97 -15 callsubr
          -88 -812 -93 callsubr
        </CharString>
        <CharString name="Thorn">
          -36 21 -21 118 80 295 80 -80 217 hstemhm
          477 92 hintmask 11101000
          20 hmoveto
          90 hlineto
          25 118 rlineto
          180 hlineto
          138 116 137 130 96 -60 92 -103 hvcurveto
          -174 hlineto
          hintmask 11011000
          29 137 -42 callsubr
          -19 -512 rmoveto
          63 295 rlineto
          170 hlineto
          55 37 -52 -65 -86 -67 -92 -82 hvcurveto
          endchar
        </CharString>
        <CharString name="U">
          108 -5 81 634 -89 callsubr
          endchar
        </CharString>
        <CharString name="U.sc">
          8 -4 72 483 -20 hstem
          53 82 vstem
          249 -4 rmoveto
          175 95 126 150 32 47 callgsubr
          -102 -22 -58 -102 -128 hhcurveto
          -95 -33 59 75 22 3 24 5 24 47 callgsubr
          -6 -29 -4 -29 -27 vvcurveto
          -106 52 -85 144 vhcurveto
          endchar
        </CharString>
        <CharString name="Uacute">
          -31 callgsubr
          226 -20 hstem
          71 92 vstem
          573 916 -87 callgsubr
          -166 -800 -107 callsubr
          endchar
        </CharString>
        <CharString name="Ubreve">
          -31 callgsubr
          115 -26 callsubr
          71 92 208 52 hintmask 11101100
          -103 callsubr
          167 853 -39 callsubr
          hintmask 11011100
          -97 callsubr
          hintmask 11101100
          -51 callsubr
        </CharString>
        <CharString name="Ucircumflex">
          -31 callgsubr
          226 -20 hstem
          71 92 vstem
          382 802 -98 callsubr
          -41 -831 -107 callsubr
          endchar
        </CharString>
        <CharString name="Udblgrave">
          -31 callgsubr
          228 -89 callsubr
          228 802 -91 callsubr
        </CharString>
        <CharString name="Udieresis">
          -31 callgsubr
          121 102 hstem
          71 92 vstem
          421 811 -93 callgsubr
          -206 -816 -107 callsubr
          endchar
        </CharString>
        <CharString name="Udotbelow">
          107 12 callsubr
          71 81 634 -89 callsubr
          -4 -177 -93 callsubr
        </CharString>
        <CharString name="Ugrave">
          -31 callgsubr
          227 -89 callsubr
          162 801 -70 callsubr
        </CharString>
        <CharString name="Uhungarumlaut">
          -31 callgsubr
          227 -89 callsubr
          193 922 -58 callgsubr
          endchar
        </CharString>
        <CharString name="Uinvertedbreve">
          -31 callgsubr
          115 -16 callsubr
          71 92 364 50 hintmask 11101100
          -103 callsubr
          67 810 rmoveto
          50 hlineto
          hintmask 11011100
          -69 callsubr
          hvcurveto
          hintmask 11101100
          -92 callgsubr
        </CharString>
        <CharString name="Umacron">
          -31 callgsubr
          148 58 -95 callgsubr
          311 843 -62 callsubr
          endchar
        </CharString>
        <CharString name="Uogonek">
          107 -160 -21 177 80 634 -20 hstem
          71 92 9 54 vstem
          240 24 callsubr
          196 9 109 160 40 186 76 359 rcurveline
          -90 hlineto
          -76 -359 rlineto
          -136 -29 -74 -139 -154 hhcurveto
          -113 -38 75 96 33 4 35 8 36 hvcurveto
          76 359 -42 callsubr
          -76 -359 rlineto
          -9 -41 -5 -40 -38 vvcurveto
          -123 51 -99 142 -13 vhcurveto
          -64 -39 -28 -37 -37 -39 callgsubr
          endchar
        </CharString>
        <CharString name="Uring">
          -31 callgsubr
          88 31 76 31 hstem
          71 92 231 41 79 40 vstem
          394 834 -85 callgsubr
          -184 -890 -107 callsubr
          endchar
        </CharString>
        <CharString name="Utilde">
          -31 callgsubr
          123 -37 callsubr
          71 92 hintmask 11101100
          -103 callsubr
          224 818 -86 callsubr
          hintmask 11010100
          -91 callgsubr
          hintmask 11101100
          -46 callgsubr
        </CharString>
        <CharString name="V">
          33 9 callsubr
          219 hmoveto
          78 hlineto
          425 710 rlineto
          -95 hlineto
          -345 -597 -92 597 rlineto
          -95 hlineto
          endchar
        </CharString>
        <CharString name="V.sc">
          -54 -12 callgsubr
          180 hmoveto
          69 hlineto
          351 551 rlineto
          -85 hlineto
          -276 -439 -91 439 rlineto
          -85 hlineto
          endchar
        </CharString>
        <CharString name="W">
          385 9 callsubr
          223 hmoveto
          -90 callgsubr
          endchar
        </CharString>
        <CharString name="W.alt">
          407 9 callsubr
          160 hmoveto
          94 hlineto
          306 563 72 -563 rlineto
          94 hlineto
          365 710 rlineto
          -102 hlineto
          -290 -577 -59 577 rlineto
          -98 hlineto
          -299 -577 -45 577 rlineto
          -101 hlineto
          endchar
        </CharString>
        <CharString name="W.sc">
          248 -12 callgsubr
          184 hmoveto
          70 hlineto
          165 252 59 -252 rlineto
          68 hlineto
          358 551 -68 callsubr
          -289 -454 -47 208 151 243 rlineto
          -75 hlineto
          -115 -189 -34 189 rlineto
          -75 hlineto
          48 -243 -134 -208 -97 454 rlineto
          -87 hlineto
          endchar
        </CharString>
        <CharString name="Wacute">
          385 6 callgsubr
          699 916 -87 callgsubr
          -367 -795 rmoveto
          -90 callgsubr
          endchar
        </CharString>
        <CharString name="Wcircumflex">
          385 6 callgsubr
          520 802 -98 callsubr
          -254 -826 rmoveto
          -90 callgsubr
          endchar
        </CharString>
        <CharString name="Wdieresis">
          385 -43 callgsubr
          121 102 hstem
          551 811 -93 callgsubr
          -411 -811 rmoveto
          -90 callgsubr
          endchar
        </CharString>
        <CharString name="Wgrave">
          385 -43 callgsubr
          227 -20 hstem
          223 hmoveto
          -90 callgsubr
          478 86 -70 callsubr
        </CharString>
        <CharString name="X">
          -7 9 callsubr
          -52 hmoveto
          100 hlineto
          254 286 133 -286 rlineto
          99 hlineto
          -170 350 329 360 rlineto
          -99 hlineto
          -264 -296 -139 296 rlineto
          -100 hlineto
          176 -360 rlineto
          endchar
        </CharString>
        <CharString name="X.sc">
          -81 -12 callgsubr
          -47 hmoveto
          89 hlineto
          208 214 118 -214 3 callsubr
          -151 272 274 279 -68 callsubr
          -217 -222 -122 222 rlineto
          -89 hlineto
          156 -279 rlineto
          endchar
        </CharString>
        <CharString name="Y">
          -5 9 callsubr
          -80 callgsubr
          endchar
        </CharString>
        <CharString name="Y.sc">
          -86 -12 callgsubr
          157 hmoveto
          80 hlineto
          42 199 293 352 -68 callsubr
          -230 -281 -109 281 rlineto
          -87 hlineto
          142 -351 rlineto
          endchar
        </CharString>
        <CharString name="Yacute">
          -5 6 callgsubr
          -80 callgsubr
          265 655 -40 callgsubr
        </CharString>
        <CharString name="Ycircumflex">
          -5 6 callgsubr
          -80 callgsubr
          68 541 -52 callsubr
        </CharString>
        <CharString name="Ydieresis">
          -5 -43 callgsubr
          121 102 hstem
          -80 callgsubr
          117 550 -61 callsubr
        </CharString>
        <CharString name="Ygrave">
          -5 -43 callgsubr
          227 -20 hstem
          -80 callgsubr
          144 535 -70 callsubr
        </CharString>
        <CharString name="Ytilde">
          -5 -43 callgsubr
          123 -37 callsubr
          hintmask 11101000
          -80 callgsubr
          209 552 -86 callsubr
          hintmask 11010000
          -91 callgsubr
          hintmask 11101000
          -46 callgsubr
        </CharString>
        <CharString name="Z">
          -17 0 80 550 80 hstem
          -34 hmoveto
          -72 callgsubr
          endchar
        </CharString>
        <CharString name="Z.sc">
          -86 0 71 409 71 hstem
          -28 hmoveto
          457 hlineto
          15 71 rlineto
          -356 hlineto
          445 418 13 62 rlineto
          -449 hlineto
          -15 -71 rlineto
          355 hlineto
          -452 -418 rlineto
          endchar
        </CharString>
        <CharString name="Zacute">
          -17 0 80 550 80 206 -20 hstem
          506 916 -87 callgsubr
          -431 -795 rmoveto
          -72 callgsubr
          endchar
        </CharString>
        <CharString name="Zcaron">
          -17 18 callgsubr
          hintmask 10110000
          362 802 -88 callsubr
          -319 -892 15 callgsubr
          hintmask 11010000
          34 callgsubr
        </CharString>
        <CharString name="Zdotaccent">
          -17 0 80 550 80 100 106 hstem
          -34 hmoveto
          -72 callgsubr
          457 740 -93 callsubr
        </CharString>
        <CharString name="Zdotbelow">
          -17 12 callsubr
          76 80 550 80 hstem
          -34 hmoveto
          -72 callgsubr
          262 -252 -93 callsubr
        </CharString>
        <CharString name="a">
          -63 callsubr
          -9 3 callgsubr
          hintmask 10101000
          -72 callsubr
          -6 -27 -3 -18 -12 vvcurveto
          hintmask 01011000
          -23 callsubr
          -106 callsubr
          -23 -104 rlineto
          hintmask 10101000
          -104 callgsubr
          endchar
        </CharString>
        <CharString name="a.alt">
          -15 48 callsubr
          hstemhm
          22 93 hintmask 10110000
          207 -10 rmoveto
          77 69 43 66 49 hvcurveto
          hintmask 01110000
          -21 -99 3 callsubr
          110 517 -68 callsubr
          -22 -100 rlineto
          67 -20 -56 47 -79 hhcurveto
          -148 -144 -153 -172 hvcurveto
          hintmask 10110000
          -118 68 -98 117 vhcurveto
          37 76 rmoveto
          -81 -48 69 85 111 98 124 110 68 49 -53 -72 11 hvcurveto
          -32 -148 rlineto
          -66 -41 -64 -50 -70 hhcurveto
          endchar
        </CharString>
        <CharString name="a.alt2">
          -90 -10 66 -35 -21 261 53 153 64 hstemhm
          -6 87 305 88 hintmask 10111100
          130 -10 rmoveto
          72 74 28 61 55 hvcurveto
          hintmask 01111100
          -16 -79 rlineto
          85 hlineto
          68 321 rlineto
          4 20 2 20 18 vvcurveto
          93 -57 59 -114 -71 -71 -28 -40 -66 vhcurveto
          16 -57 rlineto
          40 63 56 21 52 hhcurveto
          67 37 -38 -60 -12 -1 -13 -3 -14 hvcurveto
          -9 -42 rlineto
          12 -23 -46 14 -63 hhcurveto
          -116 -131 -61 -129 hvcurveto
          hintmask 10111100
          -76 54 -58 82 vhcurveto
          37 66 rmoveto
          -49 -37 34 51 86 90 34 72 40 42 -8 -17 36 hvcurveto
          -16 -77 -3 -12 -10 -13 -13 -14 rlinecurve
          -43 -39 -63 -21 -50 hhcurveto
          endchar
        </CharString>
        <CharString name="aacute">
          -63 callsubr
          43 callsubr
          22 93 hintmask 10101100
          -72 callsubr
          -6 -27 -3 -18 -12 vvcurveto
          hintmask 01011100
          -23 callsubr
          -106 callsubr
          -23 -104 rlineto
          hintmask 10101100
          -104 callgsubr
          217 664 -40 callgsubr
        </CharString>
        <CharString name="abreve">
          -63 callsubr
          -9 -20 117 -26 callsubr
          22 93 140 52 hintmask 10101011
          -72 callsubr
          -6 -27 -3 -18 -12 vvcurveto
          hintmask 01011011
          -23 callsubr
          -106 callsubr
          -23 -104 rlineto
          hintmask 10101011
          -104 callgsubr
          103 596 -39 callsubr
          hintmask 10100111
          -97 callsubr
          hintmask 10101011
          -51 callsubr
        </CharString>
        <CharString name="acircumflex">
          -63 callsubr
          43 callsubr
          22 93 hintmask 10101100
          -72 callsubr
          -6 -27 -3 -18 -12 vvcurveto
          hintmask 01011100
          -23 callsubr
          -106 callsubr
          -23 -104 rlineto
          hintmask 10101100
          -104 callgsubr
          20 550 -52 callsubr
        </CharString>
        <CharString name="acute">
          -395 -6 callgsubr
          192 730 -40 callgsubr
        </CharString>
        <CharString name="adblgrave">
          -63 callsubr
          43 callsubr
          22 93 hintmask 10101100
          -72 callsubr
          -6 -27 -3 -18 -12 vvcurveto
          hintmask 01011100
          -23 callsubr
          -106 callsubr
          -23 -104 rlineto
          hintmask 10101100
          -104 callgsubr
          145 543 -91 callsubr
        </CharString>
        <CharString name="adieresis">
          -63 callsubr
          -9 -20 122 102 hstemhm
          22 93 hintmask 10101100
          -72 callsubr
          -6 -27 -3 -18 -12 vvcurveto
          hintmask 01011100
          -23 callsubr
          -106 callsubr
          -23 -104 rlineto
          hintmask 10101100
          -104 callgsubr
          60 558 -61 callsubr
        </CharString>
        <CharString name="ae">
          271 53 callsubr
          hstemhm
          -6 86 262 84 351 84 hintmask 11011110
          133 -10 -65 callsubr
          hintmask 10111110
          -41 callgsubr
          hintmask 11011110
          4 callgsubr
        </CharString>
        <CharString name="aeacute">
          269 53 callsubr
          0 callgsubr
          hstemhm
          -8 86 262 84 351 84 hintmask 11011111
          623 730 -87 callgsubr
          -383 -619 -65 callsubr
          hintmask 10111111
          -41 callgsubr
          hintmask 11011111
          4 callgsubr
        </CharString>
        <CharString name="afii61352">
          488 21 -21 344 61 244 62 -1 -20 hstemhm
          782 72 211 73 hintmask 11011100
          515 hmoveto
          75 -76 callsubr
          -117 -552 -25 callsubr
          -151 -710 rlineto
          90 hlineto
          115 542 rlineto
          697 -198 rmoveto
          121 96 107 112 hvcurveto
          hintmask 11101100
          82 -51 66 -88 -121 -96 -105 -114 -80 49 -68 90 vhcurveto
          -67 157 rmoveto
          81 65 67 67 47 32 -41 -55 -80 -65 -68 -66 -48 -32 41 55 vhcurveto
          endchar
        </CharString>
        <CharString name="agrave">
          -63 callsubr
          43 callsubr
          22 93 hintmask 10101100
          -72 callsubr
          -6 -27 -3 -18 -12 vvcurveto
          hintmask 01011100
          -23 callsubr
          -106 callsubr
          -23 -104 rlineto
          hintmask 10101100
          -104 callgsubr
          75 543 -70 callsubr
        </CharString>
        <CharString name="ainvertedbreve">
          -63 callsubr
          -9 -20 117 -16 callsubr
          22 93 287 51 hintmask 10101011
          -72 callsubr
          -6 -27 -3 -18 -12 vvcurveto
          hintmask 01011011
          -23 callsubr
          -106 callsubr
          -23 -104 rlineto
          hintmask 10101011
          -104 callgsubr
          -5 553 rmoveto
          50 hlineto
          hintmask 10100111
          -69 callsubr
          hvcurveto
          hintmask 10101011
          -92 callgsubr
        </CharString>
        <CharString name="amacron">
          -63 callsubr
          -9 -20 150 58 hstemhm
          22 93 hintmask 10101100
          -72 callsubr
          -6 -27 -3 -18 -12 vvcurveto
          hintmask 01011100
          -23 callsubr
          -106 callsubr
          -23 -104 rlineto
          hintmask 10101100
          -104 callgsubr
          258 586 -62 callsubr
          endchar
        </CharString>
        <CharString name="ampersand">
          55 -10 70 -39 -21 347 69 236 67 hstemhm
          17 86 42 83 hintmask 01111100
          469 hmoveto
          109 hlineto
          -119 170 33 51 28 60 19 66 rlinecurve
          99 hlineto
          15 69 rlineto
          -176 hlineto
          -12 -68 -22 -63 -28 -53 -127 183 rcurveline
          -48 69 -12 37 27 vvcurveto
          54 53 50 62 50 44 -40 -52 19 vhcurveto
          60 54 rlineto
          65 -28 -59 40 -72 hhcurveto
          -113 -99 -82 -103 -39 16 -41 38 -59 hvcurveto
          -95 -59 -87 -68 -114 vvcurveto
          hintmask 10111100
          -95 69 -69 98 76 77 40 68 65 vhcurveto
          hintmask 01111100
          hintmask 10111100
          -199 -38 rmoveto
          -56 -44 38 67 72 55 52 78 50 hvcurveto
          128 -186 rlineto
          -59 -48 -57 -34 -56 hhcurveto
          endchar
        </CharString>
        <CharString name="aogonek">
          -11 -160 -21 171 50 callsubr
          22 93 227 54 hintmask 11011100
          410 23 callsubr
          16 76 rlineto
          -15 1 -7 5 13 vvcurveto
          4 1 4 1 5 vhcurveto
          88 414 -68 callsubr
          -23 -104 rlineto
          hintmask 11101100
          -90 callsubr
          71 80 41 67 52 hvcurveto
          -6 -27 -3 -18 -12 vvcurveto
          -21 12 -16 23 -5 vhcurveto
          -66 -40 -29 -37 -38 -39 callgsubr
          -164 247 -103 callgsubr
          endchar
        </CharString>
        <CharString name="apostrophe">
          -82 -6 callgsubr
          273 28 callsubr
          endchar
        </CharString>
        <CharString name="approxequal">
          -175 157 64 -22 22 -22 65 25 64 -22 22 -22 65 hstemhm
          hintmask 10001000
          331 375 rmoveto
          -11 -10 -16 -11 -30 hhcurveto
          hintmask 10000100
          15 callsubr
          hintmask 01010000
          43 26 -42 60 hhcurveto
          45 29 21 25 18 hvcurveto
          -38 -92 rmoveto
          -12 -10 -16 -10 -30 hhcurveto
          hintmask 00110000
          15 callsubr
          hintmask 10010000
          43 26 -42 60 hhcurveto
          45 29 19 22 18 hvcurveto
          endchar
        </CharString>
        <CharString name="aring">
          -63 callsubr
          -9 -20 90 31 76 31 hstemhm
          22 93 157 41 89 30 hintmask 1010111110000000
          -72 callsubr
          -6 -27 -3 -18 -12 vvcurveto
          hintmask 0101111110000000
          -23 callsubr
          -106 callsubr
          -23 -104 rlineto
          hintmask 1010111110000000
          -104 callgsubr
          26 582 -85 callgsubr
          endchar
        </CharString>
        <CharString name="aringacute">
          -63 callsubr
          -9 -20 90 31 76 31 156 3 callgsubr
          156 41 90 29 hintmask 1010111111000000
          -72 callsubr
          -6 -27 -3 -18 -12 vvcurveto
          hintmask 0101111111000000
          -23 callsubr
          -106 callsubr
          -23 -104 rlineto
          hintmask 1010111111000000
          -104 callgsubr
          248 820 -87 callgsubr
          -114 -117 -85 callgsubr
          endchar
        </CharString>
        <CharString name="asciicircum">
          -61 324 -21 407 -20 hstem
          124 303 rmoveto
          162 328 159 -328 rlineto
          75 hlineto
          -197 407 7 callgsubr
          -198 -407 rlineto
          endchar
        </CharString>
        <CharString name="asciitilde">
          -104 237 55 1 56 hstem
          49 237 rmoveto
          52 hlineto
          2 25 54 48 vhcurveto
          49 31 -56 65 hhcurveto
          90 49 99 8 2 hvcurveto
          -51 hlineto
          -5 -1 -26 -47 -50 -54 -30 57 -62 hhcurveto
          -84 -49 -96 -16 -4 hvcurveto
          endchar
        </CharString>
        <CharString name="asterisk">
          -295 534 -21 201 -20 hstem
          162 513 rmoveto
          57 67 26 -67 43 25 -29 65 70 22 -3 42 -73 -27 19 74 rlineto
          -51 hlineto
          -12 -74 -61 27 -22 -42 61 -22 -56 -65 rlineto
          endchar
        </CharString>
        <CharString name="at">
          191 -146 40 90 44 -29 50 358 51 105 40 hstemhm
          24 42 98 59 264 50 168 42 hintmask 1101111110000000
          569 28 rmoveto
          -22 -10 11 27 8 1 12 3 13 hvcurveto
          75 351 rlineto
          -56 hlineto
          -18 -88 rlineto
          54 -19 -45 42 -71 hhcurveto
          -125 -118 -133 -142 hvcurveto
          hintmask 1011111110000000
          -100 59 -84 99 60 63 31 43 44 vhcurveto
          -2 -8 0 -8 -7 vvcurveto
          hintmask 1101111110000000
          -49 30 -17 39 146 45 233 97 147 -102 142 -182 -205 -234 -180 -263 -183 113 -123 163 53 58 13 27 57 vhcurveto
          -5 38 rlineto
          -23 -52 -47 -15 -55 hhcurveto
          -152 -91 117 153 224 194 175 193 167 85 -131 -130 -99 -50 -175 -86 hvcurveto
          hintmask 1011111110000000
          -222 21 rmoveto
          -68 -56 62 88 115 97 93 86 51 47 -32 -75 21 hvcurveto
          -24 -137 rlineto
          -60 -23 -67 -54 -64 hhcurveto
          endchar
        </CharString>
        <CharString name="atilde">
          -63 callsubr
          -9 -20 125 -37 callsubr
          22 93 hintmask 10101011
          -72 callsubr
          -6 -27 -3 -18 -12 vvcurveto
          hintmask 01011011
          -23 callsubr
          -106 callsubr
          -23 -104 rlineto
          hintmask 10101011
          -104 callgsubr
          156 561 -86 callsubr
          hintmask 10100101
          -91 callgsubr
          hintmask 10101011
          -46 callgsubr
        </CharString>
        <CharString name="b">
          -18 48 callsubr
          0 callgsubr
          hstemhm
          467 93 hintmask 10111000
          263 -10 rmoveto
          150 147 152 176 112 -59 101 -115 -77 -72 -45 -68 -55 hvcurveto
          66 312 -68 callsubr
          hintmask 01111000
          -155 -730 rlineto
          78 hlineto
          21 98 rlineto
          hintmask 10111000
          -63 22 55 -45 82 hhcurveto
          -3 76 rmoveto
          -70 -58 52 64 hvcurveto
          32 151 rlineto
          66 43 68 56 69 hhcurveto
          79 44 -73 -80 -121 -102 -115 -105 hvcurveto
          endchar
        </CharString>
        <CharString name="backslash">
          -61 9 callsubr
          108 710 rmoveto
          263 -710 rlineto
          98 hlineto
          -262 710 rlineto
          endchar
        </CharString>
        <CharString name="bar">
          -315 -109 -21 905 -20 hstem
          118 76 vstem
          194 -130 rmoveto
          905 -76 -905 vlineto
          endchar
        </CharString>
        <CharString name="braceleft">
          -352 -10 -21 771 -20 hstem
          297 668 rmoveto
          16 72 rlineto
          -111 hlineto
          -6 -17 -5 -25 -5 hvcurveto
          -55 -260 rlineto
          -20 -4 -22 -37 -27 hhcurveto
          -14 -64 rlineto
          19 -3 10 -19 -22 vvcurveto
          -5 0 -5 -1 -5 vhcurveto
          -57 -271 rlineto
          -1 -4 0 -4 -3 vvcurveto
          -14 8 -5 8 vhcurveto
          111 hlineto
          15 72 rlineto
          -52 hlineto
          54 255 rlineto
          1 5 0 5 5 vvcurveto
          17 -4 19 -12 13 vhcurveto
          24 19 14 26 4 19 52 244 rcurveline
          endchar
        </CharString>
        <CharString name="braceright">
          -353 -10 -21 771 -20 hstem
          176 668 rmoveto
          -52 -244 rlineto
          -1 -5 -1 -5 -6 vvcurveto
          -16 5 -18 11 -14 vhcurveto
          -23 -18 -14 -28 -4 -18 -54 -255 rcurveline
          -53 hlineto
          -15 -72 rlineto
          110 hlineto
          9 15 7 23 5 hvcurveto
          57 271 6 29 22 26 25 4 rlinecurve
          14 64 rlineto
          -22 -8 25 20 4 0 4 1 4 hvcurveto
          56 260 rlineto
          1 3 0 3 3 vvcurveto
          17 -12 4 -5 vhcurveto
          -110 hlineto
          -15 -72 rlineto
          endchar
        </CharString>
        <CharString name="bracketleft">
          -352 -19 -21 780 -20 hstem
          148 -40 rmoveto
          15 72 rlineto
          -56 hlineto
          135 636 rlineto
          56 hlineto
          15 72 rlineto
          -137 hlineto
          -166 -780 rlineto
          endchar
        </CharString>
        <CharString name="bracketright">
          -352 -19 -21 780 -20 hstem
          111 -40 rmoveto
          165 780 rlineto
          -137 hlineto
          -16 -72 rlineto
          56 hlineto
          -135 -636 rlineto
          -56 hlineto
          -15 -72 rlineto
          endchar
        </CharString>
        <CharString name="breve">
          -333 619 -26 callsubr
          65 52 hintmask 10100000
          159 662 -39 callsubr
          hintmask 01100000
          -97 callsubr
          hintmask 10100000
          -51 callsubr
        </CharString>
        <CharString name="brokenbar">
          -321 -109 -21 905 -20 hstem
          115 76 vstem
          115 273 rmoveto
          -403 76 403 vlineto
          -76 502 rmoveto
          -403 76 403 vlineto
          endchar
        </CharString>
        <CharString name="bullet">
          -272 253 188 hstem
          88 185 vstem
          273 363 rmoveto
          43 -29 35 -44 -55 -57 -52 -58 -44 30 -34 42 57 56 51 59 vhcurveto
          endchar
        </CharString>
        <CharString name="c">
          -86 -34 callgsubr
          hstem
          22 91 vstem
          225 -10 -83 callsubr
          endchar
        </CharString>
        <CharString name="c_t">
          245 -7 73 -55 -21 465 76 -9 -20 198 44 hstemhm
          22 91 339 41 80 96 13 89 hintmask 0110111110000000
          224 -10 rmoveto
          93 100 49 82 49 hvcurveto
          -80 26 rlineto
          hintmask 1010111110000000
          -50 -27 -71 -31 -48 hhcurveto
          -77 -50 69 86 112 92 122 113 55 41 -25 -53 17 hvcurveto
          91 27 rlineto
          -6 29 -23 75 59 vvcurveto
          68 37 65 78 56 18 -27 -44 vhcurveto
          hintmask 1001111110000000
          -29 -8 -37 -9 -41 vhcurveto
          -49 callsubr
          -55 40 -25 53 54 52 23 10 23 vhcurveto
          -4 70 rlineto
          -5 -12 -33 -17 -33 hhcurveto
          -25 -19 13 28 4 0 5 1 5 hvcurveto
          68 31 callgsubr
          15 69 rlineto
          -110 hlineto
          10 44 8 41 34 vvcurveto
          62 -28 41 -102 -119 -70 -75 -95 -31 8 -32 7 -23 vhcurveto
          hintmask 0110111110000000
          27 -32 -36 16 -62 hhcurveto
          -181 -134 -163 -158 -116 71 -104 131 hvcurveto
          endchar
        </CharString>
        <CharString name="cacute">
          -86 -34 callgsubr
          11 callsubr
          22 91 vstem
          451 730 -87 callgsubr
          -117 -619 -83 callsubr
          endchar
        </CharString>
        <CharString name="caron">
          -290 637 -21 114 -20 hstem
          152 616 -88 callsubr
          endchar
        </CharString>
        <CharString name="caron.alt">
          -395 -6 callgsubr
          113 -38 callsubr
          endchar
        </CharString>
        <CharString name="ccaron">
          -86 -34 callgsubr
          0 85 -2 callsubr
          22 91 hintmask 10111000
          318 616 -88 callsubr
          -16 -716 rmoveto
          101 94 55 76 46 hvcurveto
          -81 26 rlineto
          -44 -24 -65 -37 -57 hhcurveto
          -75 -51 67 88 hvcurveto
          hintmask 11011000
          129 102 105 106 54 41 -29 -49 15 vhcurveto
          91 27 rlineto
          77 -20 -64 50 -99 hhcurveto
          -176 -141 -153 -168 -121 75 -99 128 hvcurveto
          endchar
        </CharString>
        <CharString name="ccedilla">
          -86 20 callsubr
          34 75 7 callsubr
          hstem
          22 91 147 46 vstem
          90 -163 rmoveto
          -71 callsubr
          31 39 96 5 87 52 44 73 rlinecurve
          -81 26 rlineto
          -44 -24 -65 -37 -57 hhcurveto
          -75 -51 67 88 129 102 105 106 54 41 -29 -49 15 hvcurveto
          91 27 rlineto
          77 -20 -64 50 -99 hhcurveto
          -176 -141 -153 -168 -112 63 -93 111 -13 hvcurveto
          -57 -80 -73 callsubr
          endchar
        </CharString>
        <CharString name="ccircumflex">
          -86 -34 callgsubr
          11 callsubr
          22 91 vstem
          274 616 -98 callsubr
          -6 -650 -83 callsubr
          endchar
        </CharString>
        <CharString name="cdotaccent">
          -86 -34 callgsubr
          93 106 hstem
          22 91 vstem
          225 -10 -83 callsubr
          172 634 -93 callsubr
        </CharString>
        <CharString name="cedilla">
          -334 20 callsubr
          64 -20 hstem
          156 46 vstem
          -14 -163 rmoveto
          -71 callsubr
          45 55 -36 14 -78 -109 -73 callsubr
          endchar
        </CharString>
        <CharString name="cent">
          -69 -99 -21 131 -21 462 78 115 -20 hstem
          28 91 vstem
          220 -120 rmoveto
          23 110 rlineto
          67 112 44 87 51 hvcurveto
          -81 26 -22 -45 -66 -30 -44 -4 rlinecurve
          81 384 46 -3 36 -24 15 -48 rlinecurve
          91 27 -22 77 -58 46 -91 3 rlinecurve
          24 115 rlineto
          -43 hlineto
          -25 -115 rlineto
          -167 -19 -119 -152 -148 vvcurveto
          -107 63 -104 109 -9 vhcurveto
          -24 -111 rlineto
          -57 341 rmoveto
          99 77 116 101 13 vhcurveto
          -80 -377 rlineto
          -61 13 -37 64 72 vvcurveto
          endchar
        </CharString>
        <CharString name="circumflex">
          -290 637 -21 114 -20 hstem
          104 616 -52 callsubr
        </CharString>
        <CharString name="colon">
          -419 0 112 294 32 callgsubr
          -24 -112 rlineto
          -13 -406 rmoveto
          54 callgsubr
          endchar
        </CharString>
        <CharString name="colonmonetary">
          -81 -120 186 -55 -21 465 190 -114 -20 hstemhm
          24 91 hintmask 10101000
          129 -120 rmoveto
          43 hlineto
          -12 callsubr
          hintmask 01101000
          -1 10 10 -1 11 hhcurveto
          8 9 0 1 9 hvcurveto
          hintmask 10101000
          -24 -111 rlineto
          44 hlineto
          25 119 72 18 63 46 35 58 rlinecurve
          -81 26 rlineto
          -44 -24 -65 -37 -57 hhcurveto
          -75 -51 67 88 129 102 105 106 54 41 -29 -49 15 hvcurveto
          91 27 -15 57 -40 42 -60 18 rlinecurve
          27 124 rlineto
          -44 hlineto
          -25 -116 rlineto
          hintmask 10011000
          1 -6 -11 1 -9 hhcurveto
          -11 -10 -1 -1 -10 hvcurveto
          hintmask 10101000
          25 116 rlineto
          -44 hlineto
          -26 -124 rlineto
          -139 -36 -102 -132 -143 vvcurveto
          -96 47 -82 83 -30 vhcurveto
          endchar
        </CharString>
        <CharString name="comma">
          -409 -60 -21 193 -20 hstem
          36 -81 26 callgsubr
        </CharString>
        <CharString name="commaaccent">
          -454 -2 callgsubr
          -20 hstem
          59 -88 callgsubr
          endchar
        </CharString>
        <CharString name="copyright">
          232 -7 38 90 76 317 76 87 38 hstem
          65 40 98 90 473 41 vstem
          434 -7 rmoveto
          214 39 callsubr
          -214 -212 38 callgsubr
          212 hvcurveto
          38 vmoveto
          -189 -140 140 183 184 141 139 188 191 141 -139 -185 -191 -145 -131 -187 hvcurveto
          8 90 rmoveto
          105 75 66 54 22 hvcurveto
          -85 26 rlineto
          -44 -21 -53 -26 -46 hhcurveto
          -67 -79 57 101 79 49 80 95 37 54 -13 -54 25 hvcurveto
          85 27 rlineto
          74 -32 -76 42 -93 hhcurveto
          -158 -76 -120 -115 -139 109 -95 130 hvcurveto
          endchar
        </CharString>
        <CharString name="currency">
          -50 142 -21 33 61 244 62 37 -20 hstem
          108 72 220 72 vstem
          110 558 rmoveto
          -41 -41 71 -72 rlineto
          -21 -30 -11 -38 -40 vvcurveto
          -40 12 -37 21 -31 vhcurveto
          -72 -72 36 -36 73 69 rlineto
          -22 30 38 -14 44 hhcurveto
          44 38 14 22 29 hvcurveto
          74 -69 36 36 -73 72 rlineto
          22 31 12 37 40 vvcurveto
          40 -12 38 -21 30 vhcurveto
          72 72 -41 41 -71 -72 rlineto
          22 -30 -37 13 -42 hhcurveto
          -43 -37 -13 -22 -29 hvcurveto
          -1 -150 rmoveto
          70 49 53 61 61 49 -52 -69 -69 -49 -54 -61 -61 -49 53 68 vhcurveto
          endchar
        </CharString>
        <CharString name="d">
          -63 callsubr
          199 3 callgsubr
          hintmask 10111000
          -13 callgsubr
          hintmask 01111000
          -23 callsubr
          -65 callgsubr
          vhcurveto
          -82 callgsubr
          hintmask 10111000
          -79 callsubr
          endchar
        </CharString>
        <CharString name="d.alt">
          -17 48 callsubr
          199 3 callgsubr
          hintmask 10111000
          208 -10 rmoveto
          71 70 40 62 49 hvcurveto
          hintmask 01111000
          -19 -92 3 callsubr
          155 730 -68 callsubr
          -67 -312 rlineto
          63 -25 -51 50 -81 hhcurveto
          -150 -138 -156 -168 hvcurveto
          hintmask 10111000
          -118 69 -99 117 vhcurveto
          37 76 rmoveto
          -79 -51 69 86 112 95 122 110 62 60 -53 -69 7 hvcurveto
          -31 -150 rlineto
          -65 -25 -88 -52 -60 hhcurveto
          endchar
        </CharString>
        <CharString name="dagger">
          -207 -109 -21 361 80 464 -20 hstem
          156 -130 rmoveto
          76 361 rlineto
          125 -74 callgsubr
          -125 hlineto
          99 464 rlineto
          -84 hlineto
          -99 -464 rlineto
          -125 -21 callsubr
          125 hlineto
          -76 -361 rlineto
          endchar
        </CharString>
        <CharString name="daggerdbl">
          -208 -109 -21 272 80 111 80 362 -20 hstem
          156 -130 rmoveto
          57 272 rlineto
          125 -74 callgsubr
          -125 hlineto
          24 111 rlineto
          124 -74 callgsubr
          -124 hlineto
          77 362 rlineto
          -84 hlineto
          -77 -362 rlineto
          -125 -21 callsubr
          125 hlineto
          -24 -111 rlineto
          -125 -21 callsubr
          125 hlineto
          -57 -272 rlineto
          endchar
        </CharString>
        <CharString name="dcaron">
          -63 callsubr
          199 3 callgsubr
          hintmask 10111000
          700 -38 callsubr
          -438 -639 rmoveto
          71 80 41 67 52 hvcurveto
          -7 -29 -2 -16 -12 vvcurveto
          hintmask 01111000
          -23 callsubr
          -65 callgsubr
          vhcurveto
          -82 callgsubr
          hintmask 10111000
          -79 callsubr
          endchar
        </CharString>
        <CharString name="dcroat">
          -63 callsubr
          70 56 -56 129 hstemhm
          22 93 hintmask 10110100
          415 601 rmoveto
          91 hlineto
          -39 -183 rlineto
          -90 callsubr
          71 80 41 67 52 hvcurveto
          -7 -30 -2 -17 -10 vvcurveto
          hintmask 01110100
          -23 callsubr
          -65 callgsubr
          -99 callgsubr
          104 493 rlineto
          77 hlineto
          12 56 rlineto
          -77 hlineto
          hintmask 10101100
          16 73 -68 callsubr
          hintmask 10110100
          -16 -73 rlineto
          -91 hlineto
          -181 -591 -103 callgsubr
          endchar
        </CharString>
        <CharString name="ddotbelow">
          -11 12 callsubr
          66 -45 callsubr
          199 3 callgsubr
          hintmask 11011100
          -13 callgsubr
          hintmask 10111100
          -23 callsubr
          -65 callgsubr
          vhcurveto
          -82 callgsubr
          hintmask 11011100
          -79 callsubr
          -9 -248 -93 callsubr
        </CharString>
        <CharString name="degree">
          -352 546 47 84 47 hstem
          113 47 81 48 vstem
          182 546 rmoveto
          57 50 48 59 40 -27 31 -42 -59 -48 -54 -54 -41 28 -29 41 hvcurveto
          10 47 rmoveto
          -19 -13 13 22 26 26 23 24 19 12 -14 -20 -27 -26 -23 -23 hvcurveto
          endchar
        </CharString>
        <CharString name="dieresis">
          -260 624 102 hstem
          147 624 -61 callsubr
        </CharString>
        <CharString name="divide">
          -84 66 102 83 72 82 102 hstem
          225 75 vstem
          300 405 rmoveto
          102 -75 -102 vlineto
          75 -339 rmoveto
          102 -75 -102 vlineto
          239 185 rmoveto
          72 -403 -72 vlineto
          endchar
        </CharString>
        <CharString name="dollar">
          -21 -86 -21 100 81 560 80 101 -20 hstem
          99 99 240 100 vstem
          597 634 rmoveto
          -43 45 -62 31 -82 4 21 101 rcurveline
          -43 hlineto
          -22 -101 rlineto
          -148 -9 -119 -90 -146 vvcurveto
          -85 62 -36 110 -30 vhcurveto
          5 -2 5 -1 5 -1 -51 -239 rcurveline
          -89 8 -70 45 -26 41 -59 -76 rcurveline
          55 -59 78 -34 89 -6 -21 -101 rcurveline
          43 hlineto
          21 100 rlineto
          154 4 128 76 156 vvcurveto
          98 -74 38 -128 32 vhcurveto
          50 237 74 -4 59 -34 21 -35 rlinecurve
          -102 -360 rmoveto
          -79 -65 -47 -106 -1 vhcurveto
          49 231 rlineto
          77 -24 45 -25 -55 vvcurveto
          -240 297 rmoveto
          75 48 56 109 5 vhcurveto
          -49 -229 rlineto
          -72 21 -36 22 50 vvcurveto
          endchar
        </CharString>
        <CharString name="dotaccent">
          -443 624 106 hstem
          136 624 -93 callsubr
        </CharString>
        <CharString name="dotbelow">
          -442 12 callsubr
          hstem
          89 -182 -93 callsubr
        </CharString>
        <CharString name="dotlessi">
          21 -21 522 -20 -17 callgsubr
          endchar
        </CharString>
        <CharString name="dotlessj">
          -186 78 630 -36 callsubr
          endchar
        </CharString>
        <CharString name="e">
          -53 callsubr
          -100 callgsubr
          endchar
        </CharString>
        <CharString name="eacute">
          23 callgsubr
          453 730 -87 callgsubr
          -116 -619 -107 callgsubr
          endchar
        </CharString>
        <CharString name="ebreve">
          -53 callsubr
          88 -26 callsubr
          23 89 148 52 122 79 hintmask 11110111
          -105 callgsubr
          21 197 -39 callsubr
          hintmask 11101111
          -97 callsubr
          hintmask 11110111
          -51 callsubr
        </CharString>
        <CharString name="ecaron">
          -78 -10 66 173 61 0 175 66 85 -2 callsubr
          -10 callgsubr
          hintmask 11011110
          320 616 -88 callsubr
          -15 -716 rmoveto
          98 97 55 77 49 hvcurveto
          -71 21 rlineto
          -53 -33 -65 -34 -61 hhcurveto
          -89 -41 72 83 7 0 8 1 8 hvcurveto
          -4 43 40 -1 32 hhcurveto
          193 92 55 106 93 -70 48 -102 -181 -137 -153 -168 -123 74 -97 131 hvcurveto
          hintmask 10111110
          105 475 rmoveto
          61 40 -23 -51 -58 -52 -43 -151 -31 -35 1 4 -40 hvcurveto
          86 26 67 84 115 hhcurveto
          endchar
        </CharString>
        <CharString name="ecircumflex">
          23 callgsubr
          277 616 -98 callsubr
          -6 -650 -107 callgsubr
          endchar
        </CharString>
        <CharString name="edblgrave">
          -78 -10 66 173 61 175 66 199 -20 -100 callgsubr
          77 144 -91 callsubr
        </CharString>
        <CharString name="edieresis">
          -53 callsubr
          93 102 hstem
          -10 callgsubr
          vstem
          310 624 -93 callgsubr
          -165 -634 -107 callgsubr
          endchar
        </CharString>
        <CharString name="edotaccent">
          -53 callsubr
          93 106 -100 callgsubr
          63 159 -93 callsubr
        </CharString>
        <CharString name="edotbelow">
          -78 12 callsubr
          66 66 173 61 175 66 -100 callgsubr
          -99 -647 -93 callsubr
        </CharString>
        <CharString name="egrave">
          -78 -10 66 173 61 175 66 199 -20 -100 callgsubr
          8 144 -70 callsubr
        </CharString>
        <CharString name="eight">
          24 callgsubr
          45 -45 92 hintmask 11110100
          220 -8 rmoveto
          146 143 99 142 69 -40 54 -52 24 hvcurveto
          hintmask 11110001
          -24 callgsubr
          19 79 rmoveto
          -63 -60 43 70 94 96 65 83 hvcurveto
          hintmask 11101100
          64 61 -42 -71 -94 -99 -65 -82 hvcurveto
          72 340 rmoveto
          -52 -54 33 59 78 78 50 74 hvcurveto
          hintmask 11110010
          59 48 -34 -56 -83 -88 -47 -65 hvcurveto
          endchar
        </CharString>
        <CharString name="eight.denominator">
          -226 51 callgsubr
          115 53 hstemhm
          -5 -21 callgsubr
          hintmask 11110100
          129 -5 -28 callsubr
          hintmask 11101001
          -58 callsubr
          hintmask 11110100
          -77 callgsubr
          hintmask 11101010
          -49 callgsubr
          endchar
        </CharString>
        <CharString name="eight.lnum">
          24 callgsubr
          92 hintmask 11110100
          509 233 rmoveto
          69 -40 54 -52 24 vhcurveto
          hintmask 11110010
          -24 callgsubr
          hintmask 11101100
          146 143 99 142 hvcurveto
          -89 -3 rmoveto
          -94 -99 -65 -82 -63 -60 43 70 94 96 65 83 64 61 -42 -71 vhcurveto
          -215 273 rmoveto
          78 78 50 74 vhcurveto
          hintmask 11101010
          59 48 -34 -56 -83 -88 -47 -65 -52 -54 33 59 hvcurveto
          endchar
        </CharString>
        <CharString name="eight.numerator">
          -227 319 55 143 46 114 53 hstemhm
          64 57 -2 55 156 55 -32 56 hintmask 11110100
          385 455 -67 callsubr
        </CharString>
        <CharString name="eightinferior">
          -226 -85 55 143 45 115 53 hstemhm
          -22 57 -2 55 156 56 -33 57 hintmask 11110100
          300 51 rmoveto
          41 -28 30 -39 16 vhcurveto
          hintmask 11101010
          -58 callsubr
          hintmask 11110100
          -54 -19 -55 -37 -62 vvcurveto
          -58 53 -47 81 95 93 57 79 vhcurveto
          -56 -1 rmoveto
          -48 -63 -32 -55 -45 -46 23 38 49 63 33 57 45 44 -24 -39 vhcurveto
          hintmask 11101010
          -156 158 rmoveto
          40 50 25 51 42 36 -19 -31 -40 -58 -25 -44 -38 -39 19 31 vhcurveto
          endchar
        </CharString>
        <CharString name="eightsuperior">
          -228 399 55 143 46 114 53 hstemhm
          80 57 -2 55 156 55 -32 56 hintmask 11110100
          401 535 -67 callsubr
        </CharString>
        <CharString name="einvertedbreve">
          -53 callsubr
          88 -16 callsubr
          23 89 306 50 -34 79 hintmask 11110101
          -105 callgsubr
          -77 154 rmoveto
          50 hlineto
          hintmask 11101110
          -69 callsubr
          hvcurveto
          hintmask 11110110
          -92 callgsubr
        </CharString>
        <CharString name="ellipsis">
          -124 0 112 hstem
          74 18 callsubr
          220 hmoveto
          54 callgsubr
          220 18 callsubr
          endchar
        </CharString>
        <CharString name="emacron">
          -53 callsubr
          121 58 -100 callgsubr
          161 187 -62 callsubr
          endchar
        </CharString>
        <CharString name="emdash">
          255 233 80 hstem
          795 233 rmoveto
          17 80 rlineto
          -747 -21 callsubr
          endchar
        </CharString>
        <CharString name="emspace">
          258 endchar
        </CharString>
        <CharString name="endash">
          14 callgsubr
        </CharString>
        <CharString name="eng">
          -50 -186 78 129 37 callsubr
          243 -186 rmoveto
          82 89 70 99 21 hvcurveto
          70 329 rlineto
          7 35 5 32 29 vvcurveto
          74 -30 49 -84 -87 -90 -48 -73 -54 vhcurveto
          hintmask 11011000
          -27 callgsubr
          -111 -522 rlineto
          -42 callgsubr
          hintmask 11101000
          79 39 85 58 67 hhcurveto
          47 24 -27 -58 -21 -3 -25 -6 -29 hvcurveto
          -67 -315 rlineto
          -49 -11 -46 -36 -39 hhcurveto
          -23 -23 6 17 -14 hvcurveto
          -53 -59 rlineto
          -29 25 37 -13 44 hhcurveto
          endchar
        </CharString>
        <CharString name="enspace">
          -59 endchar
        </CharString>
        <CharString name="eogonek">
          -78 -165 -21 176 66 173 61 175 66 hstem
          23 89 12 54 256 79 vstem
          192 25 callgsubr
          81 14 75 49 42 65 -71 21 rcurveline
          -53 -33 -65 -34 -61 hhcurveto
          -89 -41 72 83 7 0 8 1 8 hvcurveto
          -4 43 40 -1 32 hhcurveto
          193 92 55 106 93 -70 48 -102 -181 -137 -153 -168 -119 69 -94 122 -7 hvcurveto
          -62 -38 -28 -36 -37 -39 callgsubr
          141 651 rmoveto
          61 40 -23 -51 -58 -52 -43 -151 -31 -35 1 4 -40 hvcurveto
          86 26 67 84 115 hhcurveto
          endchar
        </CharString>
        <CharString name="equal">
          -138 179 60 74 60 hstem
          386 179 rmoveto
          60 -305 -60 vlineto
          305 134 rmoveto
          60 -305 -60 vlineto
          endchar
        </CharString>
        <CharString name="estimated">
          -11 -10 37 228 40 199 37 hstem
          37 107 314 106 vstem
          300 27 rmoveto
          -62 -56 30 48 -38 hvcurveto
          150 420 vlineto
          152 -108 124 -156 -155 -108 -125 -146 -145 106 -125 157 100 68 36 47 47 vhcurveto
          -26 28 rlineto
          -40 -38 -59 -34 -92 hhcurveto
          467 vmoveto
          63 56 -31 -50 39 hvcurveto
          -118 -314 119 vlineto
          49 38 56 31 62 hhcurveto
          endchar
        </CharString>
        <CharString name="eth">
          -34 -10 76 335 72 257 -20 hstem
          18 91 332 108 vstem
          544 713 rmoveto
          -92 -51 -20 25 -24 23 -28 20 rlinecurve
          -122 hlineto
          50 -34 39 -35 29 -34 -103 -58 rcurveline
          19 -37 110 62 36 -53 16 -54 7 -55 rlinecurve
          3 -21 1 -21 -22 vvcurveto
          63 -21 -60 42 -78 hhcurveto
          -145 -143 -132 -150 -113 82 -88 118 164 167 148 234 78 -20 96 -53 82 hvcurveto
          87 48 rlineto
          -454 -474 rmoveto
          107 99 92 104 77 52 -57 -76 -104 -99 -98 -105 -76 -52 60 76 vhcurveto
          endchar
        </CharString>
        <CharString name="etilde">
          -53 callsubr
          96 -37 callsubr
          -10 callgsubr
          hintmask 11110111
          -105 callgsubr
          77 162 -86 callsubr
          hintmask 11101011
          -91 callgsubr
          hintmask 11110111
          -46 callgsubr
        </CharString>
        <CharString name="exclam">
          -359 0 124 593 -20 hstem
          160 240 rmoveto
          101 477 -68 callsubr
          -101 -477 rlineto
          37 -240 rmoveto
          26 124 -68 callsubr
          -26 -124 rlineto
          endchar
        </CharString>
        <CharString name="exclamdown">
          -360 18 -21 593 124 hstem
          121 474 rmoveto
          -101 -477 3 callsubr
          101 477 rlineto
          -37 240 rmoveto
          -26 -124 3 callsubr
          26 124 rlineto
          endchar
        </CharString>
        <CharString name="f">
          -283 -191 -21 665 69 143 75 hstem
          -15 -212 rmoveto
          88 hlineto
          141 665 rlineto
          131 hlineto
          15 69 rlineto
          -131 hlineto
          3 14 rlineto
          83 18 39 46 54 hhcurveto
          24 27 -9 -13 15 hvcurveto
          36 65 rlineto
          20 -28 -37 12 -39 hhcurveto
          -94 -79 -78 -129 -25 hvcurveto
          -2 -11 19 callgsubr
          endchar
        </CharString>
        <CharString name="f_f">
          -37 -20 callgsubr
          148 hlineto
          14 69 rlineto
          -147 hlineto
          3 14 rlineto
          62 13 42 66 69 hhcurveto
          35 16 -11 -10 13 hvcurveto
          35 65 rlineto
          9 -19 -25 23 -56 hhcurveto
          -59 -46 -26 -39 -36 52 callgsubr
          -69 -84 -92 -23 hvcurveto
          -1 -4 19 callgsubr
          103 69 rmoveto
          1 5 rlineto
          53 11 33 46 27 callsubr
        </CharString>
        <CharString name="f_f_i">
          119 -20 callgsubr
          167 50 callgsubr
          111 522 rlineto
          -255 hlineto
          3 14 rlineto
          62 13 44 66 75 hhcurveto
          44 41 -19 -22 20 hvcurveto
          51 65 rlineto
          23 -31 -51 29 -66 hhcurveto
          -65 -54 -26 -39 -39 52 callgsubr
          -72 -92 -84 -20 hvcurveto
          -1 -4 19 callgsubr
          103 69 rmoveto
          1 5 rlineto
          49 10 34 50 27 callsubr
        </CharString>
        <CharString name="f_f_l">
          200 0 72 -58 -21 460 69 104 76 -38 38 -38 76 hstemhm
          561 97 7 93 hintmask 01110011
          650 -7 rmoveto
          48 55 17 2 1 hvcurveto
          5 72 rlineto
          hintmask 10100111
          -2 -37 -12 -23 hhcurveto
          -28 -11 22 22 6 1 6 1 5 hvcurveto
          93 439 rlineto
          3 15 2 15 13 vvcurveto
          75 -49 50 -104 -66 -55 -23 -42 -40 vhcurveto
          hintmask 10101011
          14 -27 -30 13 -46 hhcurveto
          -100 -77 -86 -90 -22 hvcurveto
          -1 -4 rlineto
          -67 hlineto
          -15 -69 rlineto
          67 17 callsubr
          145 17 callsubr
          96 hlineto
          14 69 rlineto
          -95 hlineto
          1 4 rlineto
          75 18 38 63 71 hhcurveto
          57 18 -36 -41 -11 -2 -12 -2 -11 hvcurveto
          -93 -434 rlineto
          -5 -22 -2 -11 -14 vvcurveto
          hintmask 01110011
          -45 30 -34 59 vhcurveto
          -421 529 rmoveto
          1 7 rlineto
          46 8 44 51 60 hhcurveto
          20 24 -3 -14 17 hvcurveto
          -12 -19 -11 -40 -6 -28 rrcurveto
          endchar
        </CharString>
        <CharString name="f_i">
          -111 21 -21 453 69 142 76 hstem
          30 hmoveto
          88 hlineto
          96 453 rlineto
          167 50 callgsubr
          111 522 rlineto
          -255 hlineto
          3 14 rlineto
          62 13 45 66 72 hhcurveto
          46 40 -18 -23 21 hvcurveto
          51 65 rlineto
          23 -28 -49 29 -70 hhcurveto
          -124 -86 -104 -103 -20 hvcurveto
          -2 -11 19 callgsubr
          endchar
        </CharString>
        <CharString name="f_l">
          -32 0 72 -58 -21 460 69 142 76 hstemhm
          329 97 7 93 hintmask 01111100
          417 -7 rmoveto
          49 54 17 2 2 hvcurveto
          4 72 rlineto
          hintmask 10111100
          -1 -37 -12 -23 hhcurveto
          -28 -11 22 23 5 1 6 1 5 hvcurveto
          93 439 rlineto
          3 15 2 14 14 vvcurveto
          75 -49 50 -105 -120 -80 -79 -121 -27 vhcurveto
          -4 -18 rlineto
          -67 hlineto
          -15 -69 rlineto
          67 17 callsubr
          97 hlineto
          14 69 rlineto
          -96 hlineto
          2 9 rlineto
          78 17 41 55 68 hhcurveto
          58 18 -37 -40 -11 -2 -12 -2 -11 hvcurveto
          -94 -439 rlineto
          -4 -20 -2 -11 -11 vvcurveto
          hintmask 01111100
          -45 30 -34 58 vhcurveto
          endchar
        </CharString>
        <CharString name="five">
          -89 -149 78 308 77 176 81 hstem
          359 92 vstem
          156 -149 rmoveto
          153 142 118 163 108 -71 74 -107 -51 -46 -19 -31 -33 hvcurveto
          87 226 rlineto
          264 hlineto
          17 81 rlineto
          -328 hlineto
          -2 -148 -378 -29 -13 hvcurveto
          79 hlineto
          47 39 55 26 53 hhcurveto
          68 45 -49 -72 -106 -88 -81 -98 -67 -53 41 61 -22 hvcurveto
          -65 -48 rlineto
          -80 22 72 -52 96 hhcurveto
          endchar
        </CharString>
        <CharString name="five.denominator">
          -248 -5 52 170 43 91 55 hstem
          246 57 vstem
          111 -5 rmoveto
          101 91 66 91 64 -50 44 -74 -81 callgsubr
          -60 -57 -40 -64 -49 -36 22 33 -17 hvcurveto
          -42 -34 rlineto
          -44 17 49 -29 64 hhcurveto
          endchar
        </CharString>
        <CharString name="five.lnum">
          -78 -10 79 308 76 176 81 hstem
          394 92 vstem
          191 -10 rmoveto
          154 141 119 162 107 -71 75 -107 -51 -46 -18 -32 -34 hvcurveto
          88 226 rlineto
          263 hlineto
          18 81 rlineto
          -329 hlineto
          -1 -148 -377 -29 -13 hvcurveto
          79 hlineto
          46 39 56 27 52 hhcurveto
          68 45 -50 -72 -105 -88 -81 -98 -67 -53 40 62 -22 hvcurveto
          -65 -48 rlineto
          -81 23 71 -52 96 hhcurveto
          endchar
        </CharString>
        <CharString name="five.numerator">
          -249 319 53 169 43 91 55 hstem
          314 57 vstem
          247 584 rmoveto
          -81 callgsubr
          -60 -57 -39 -64 -49 -37 21 34 -16 hvcurveto
          -42 -34 rlineto
          -45 16 50 -29 63 28 callgsubr
          endchar
        </CharString>
        <CharString name="fiveeighths">
          247 51 callgsubr
          81 53 -19 53 135 43 91 55 hstemhm
          320 57 90 -21 callgsubr
          hintmask 1110111101000000
          601 -5 -28 callsubr
          hintmask 1101111010010000
          -58 callsubr
          hintmask 1110111101000000
          -77 callgsubr
          hintmask 1101111010100000
          -49 callgsubr
          -401 346 rmoveto
          -81 callgsubr
          hvcurveto
          hintmask 1110111101000000
          -60 -57 -39 -64 -49 -37 21 34 -16 vhcurveto
          -42 -34 rlineto
          -45 16 50 -29 63 28 callgsubr
          -133 -589 -85 callsubr
          endchar
        </CharString>
        <CharString name="fiveinferior">
          -248 -85 52 170 43 91 55 hstem
          229 57 vstem
          162 180 rmoveto
          -81 callgsubr
          -60 -57 -40 -64 -49 -36 22 33 -17 hvcurveto
          -42 -34 rlineto
          -44 17 49 -29 64 hhcurveto
          101 91 66 91 64 -50 44 -74 hvcurveto
          endchar
        </CharString>
        <CharString name="fivesuperior">
          -249 399 53 169 43 91 55 hstem
          331 57 vstem
          264 664 rmoveto
          -81 callgsubr
          -60 -57 -39 -64 -49 -37 21 34 -16 hvcurveto
          -42 -34 rlineto
          -45 16 49 -29 64 28 callgsubr
          endchar
        </CharString>
        <CharString name="florin">
          -105 -186 78 500 69 204 75 hstem
          42 -186 rmoveto
          82 88 68 97 21 hvcurveto
          88 413 rlineto
          131 hlineto
          15 69 rlineto
          -131 hlineto
          16 75 rlineto
          83 18 38 46 54 hhcurveto
          25 27 -9 -13 15 hvcurveto
          35 65 rlineto
          20 -27 -38 12 -39 hhcurveto
          -94 -76 -79 -128 -27 hvcurveto
          -15 -72 rlineto
          -68 hlineto
          -14 -69 rlineto
          67 hlineto
          -88 -415 rlineto
          -49 -10 -46 -36 -40 hhcurveto
          -23 -23 6 17 -14 hvcurveto
          -53 -59 rlineto
          -29 25 38 -13 43 hhcurveto
          endchar
        </CharString>
        <CharString name="four">
          -78 -127 249 -80 80 449 -20 hstemhm
          hintmask 10100000
          238 -127 rmoveto
          88 hlineto
          hintmask 01100000
          36 169 rlineto
          84 -74 callgsubr
          -84 hlineto
          96 449 rlineto
          -60 hlineto
          -426 -451 -17 -78 rlineto
          302 hlineto
          hintmask 10100000
          -194 80 rmoveto
          287 313 -67 -313 rlineto
          endchar
        </CharString>
        <CharString name="four.denominator">
          -240 21 -21 100 54 252 -20 hstem
          174 hmoveto
          55 hlineto
          21 100 -71 callgsubr
          -146 54 rmoveto
          198 180 -38 -180 rlineto
          endchar
        </CharString>
        <CharString name="four.lnum">
          -63 21 -21 181 80 449 -20 hstem
          366 hmoveto
          38 181 rlineto
          84 -74 callgsubr
          -84 hlineto
          95 449 rlineto
          -61 hlineto
          -436 -450 -17 -79 rlineto
          314 hlineto
          -38 -181 rlineto
          -167 261 rmoveto
          298 314 -67 -314 rlineto
          endchar
        </CharString>
        <CharString name="four.numerator">
          -238 346 -21 99 54 252 -20 hstem
          299 325 -34 callsubr
        </CharString>
        <CharString name="fourinferior">
          -240 -59 -21 100 54 252 -20 hstem
          212 -80 rmoveto
          21 100 1 callgsubr
          -100 rlineto
          73 334 rmoveto
          -38 -180 rlineto
          -160 hlineto
          endchar
        </CharString>
        <CharString name="foursuperior">
          -238 426 -21 99 54 252 -20 hstem
          316 405 -34 callsubr
        </CharString>
        <CharString name="fraction">
          -449 16 -21 720 -20 hstem
          -220 -5 -85 callsubr
          endchar
        </CharString>
        <CharString name="franc">
          -28 0 195 -68 68 123 75 237 80 hstemhm
          hintmask 10110000
          142 hmoveto
          hintmask 01110000
          27 127 rlineto
          112 hlineto
          14 68 rlineto
          -112 hlineto
          27 123 51 callsubr
          16 75 rlineto
          -300 hlineto
          50 237 rlineto
          357 -74 callgsubr
          -447 hlineto
          -110 -515 rlineto
          -85 hlineto
          -14 -68 rlineto
          85 hlineto
          hintmask 10110000
          -27 -127 rlineto
          endchar
        </CharString>
        <CharString name="g">
          8 callgsubr
          hstemhm
          22 91 hintmask 11011000
          -38 callgsubr
          hintmask 11101000
          -98 callgsubr
          endchar
        </CharString>
        <CharString name="gacute">
          8 callgsubr
          228 -20 hstemhm
          22 91 hintmask 11011100
          -38 callgsubr
          hintmask 11101100
          -98 callgsubr
          192 664 -40 callgsubr
        </CharString>
        <CharString name="gbreve">
          8 callgsubr
          117 -26 callsubr
          22 91 135 52 hintmask 11011011
          -38 callgsubr
          hintmask 11101011
          -98 callgsubr
          98 596 -39 callsubr
          hintmask 11100111
          -97 callsubr
          hintmask 11101011
          -51 callsubr
        </CharString>
        <CharString name="gcircumflex">
          8 callgsubr
          228 -20 hstemhm
          22 91 hintmask 11011100
          264 616 -98 callsubr
          -57 -863 -66 callgsubr
          hintmask 11101100
          -98 callgsubr
          endchar
        </CharString>
        <CharString name="gcommaaccent">
          -18 -223 68 0 149 0 42 callsubr
          29 49 165 -20 hstemhm
          22 91 hintmask 10101111
          -38 callgsubr
          hintmask 01010011
          65 -28 -50 48 -82 hhcurveto
          -158 -137 -157 -167 -114 66 -99 113 70 78 40 64 49 hvcurveto
          -19 -92 rlineto
          -109 -23 -88 -52 -90 hhcurveto
          -71 -59 31 61 -26 hvcurveto
          -60 -45 rlineto
          hintmask 10110011
          -71 32 58 -44 112 hhcurveto
          80 289 rmoveto
          -79 -52 70 85 108 92 126 114 64 55 -51 -71 11 hvcurveto
          -32 -150 rlineto
          -59 -26 -78 -58 -69 hhcurveto
          117 679 rmoveto
          -46 -81 rlineto
          hintmask 10101111
          -18 -84 rlineto
          77 hlineto
          18 84 rlineto
          -25 hlineto
          37 81 rlineto
          endchar
        </CharString>
        <CharString name="gdotaccent">
          8 callgsubr
          122 106 hstemhm
          22 91 hintmask 11011100
          -38 callgsubr
          hintmask 11101100
          -98 callgsubr
          134 558 -93 callsubr
        </CharString>
        <CharString name="germandbls">
          -85 -6 81 -54 -21 357 80 201 76 hstemhm
          390 91 -64 64 -64 88 hintmask 10110100
          167 -6 rmoveto
          174 6 140 87 162 vvcurveto
          74 -36 63 -70 16 vhcurveto
          hintmask 01110010
          64 18 66 80 81 vvcurveto
          80 -61 53 -89 -115 -100 -81 -116 -25 vhcurveto
          -110 -517 rlineto
          84 hlineto
          107 503 rlineto
          71 15 47 64 77 hhcurveto
          45 37 -25 -52 -71 -55 -53 -69 hvcurveto
          -18 -21 callsubr
          19 hlineto
          hintmask 10111000
          70 43 -44 -68 -116 -88 -52 -118 -2 hvcurveto
          endchar
        </CharString>
        <CharString name="grave">
          -394 -6 callgsubr
          131 609 -70 callsubr
        </CharString>
        <CharString name="greater">
          -71 5 -21 549 -20 hstem
          498 280 rmoveto
          -420 253 rlineto
          -94 vlineto
          292 -180 -292 -177 rlineto
          -98 vlineto
          420 250 rlineto
          endchar
        </CharString>
        <CharString name="greaterequal">
          -136 51 72 430 -20 hstem
          70 51 rmoveto
          332 72 -332 hlineto
          3 61 rmoveto
          330 160 rlineto
          46 vlineto
          -330 163 rlineto
          -84 vlineto
          202 -100 -202 -97 rlineto
          endchar
        </CharString>
        <CharString name="guillemotleft">
          -41 -15 callgsubr
          225 -46 rmoveto
          204 -174 16 74 -144 125 198 128 15 74 -280 -181 rlineto
          endchar
        </CharString>
        <CharString name="guillemotright">
          -41 81 -21 401 -20 hstem
          531 280 rmoveto
          -203 181 -16 -74 143 -128 -197 -125 -15 -74 278 174 rlineto
          -225 46 2 callgsubr
        </CharString>
        <CharString name="guilsinglleft">
          -276 -15 callgsubr
          endchar
        </CharString>
        <CharString name="guilsinglright">
          -276 81 -21 401 -20 hstem
          296 280 2 callgsubr
        </CharString>
        <CharString name="h">
          -13 callsubr
          11 callsubr
          421 94 vstem
          5 hmoveto
          -78 callgsubr
          68 320 -68 callsubr
          endchar
        </CharString>
        <CharString name="hbar">
          -13 callsubr
          70 56 -56 129 hstemhm
          421 94 hintmask 11101000
          63 601 rmoveto
          69 hlineto
          -127 -601 rlineto
          -78 callgsubr
          40 191 rlineto
          99 hlineto
          12 56 rlineto
          -99 hlineto
          hintmask 11011000
          16 73 -68 callsubr
          hintmask 11101000
          -16 -73 rlineto
          -69 hlineto
          endchar
        </CharString>
        <CharString name="hcircumflex">
          -13 callsubr
          198 -20 21 -20 hstemhm
          421 94 hintmask 11101000
          315 616 rmoveto
          88 62 62 -62 49 24 -72 89 rlineto
          -59 hlineto
          -107 -89 rlineto
          -271 -640 rmoveto
          -78 callgsubr
          hintmask 11011000
          68 320 -68 callsubr
          endchar
        </CharString>
        <CharString name="hdotbelow">
          -50 12 callsubr
          97 2 callsubr
          11 callsubr
          421 94 vstem
          5 hmoveto
          -78 callgsubr
          68 320 -68 callsubr
          57 -912 -93 callsubr
        </CharString>
        <CharString name="hungarumlaut">
          -293 -6 callgsubr
          190 730 -58 callgsubr
          endchar
        </CharString>
        <CharString name="hyphen">
          -211 233 80 hstem
          329 233 rmoveto
          17 80 rlineto
          -281 -21 callsubr
          endchar
        </CharString>
        <CharString name="i">
          21 -48 callsubr
          endchar
        </CharString>
        <CharString name="iacute">
          -35 callsubr
          290 730 -87 callgsubr
          -176 -609 rmoveto
          -63 callgsubr
          endchar
        </CharString>
        <CharString name="ibreve">
          -41 callsubr
          117 -26 callsubr
          85 52 hintmask 11101000
          5 hmoveto
          -63 callgsubr
          63 140 -39 callsubr
          hintmask 11011000
          -97 callsubr
          hintmask 11101000
          -51 callsubr
        </CharString>
        <CharString name="icircumflex">
          -35 callsubr
          103 616 -98 callsubr
          -55 -640 rmoveto
          -63 callgsubr
          endchar
        </CharString>
        <CharString name="idblgrave">
          16 callsubr
          118 87 -91 callsubr
        </CharString>
        <CharString name="idieresis">
          -41 callsubr
          122 102 hstem
          136 624 -93 callgsubr
          -214 -624 rmoveto
          -63 callgsubr
          endchar
        </CharString>
        <CharString name="idotbelow">
          12 callsubr
          97 -48 callsubr
          -110 -912 -93 callsubr
        </CharString>
        <CharString name="igrave">
          16 callsubr
          41 87 -70 callsubr
        </CharString>
        <CharString name="iinvertedbreve">
          -41 callsubr
          117 -16 callsubr
          237 50 hintmask 11101000
          5 hmoveto
          -63 callgsubr
          -41 97 rmoveto
          50 hlineto
          hintmask 11011000
          -69 callsubr
          hvcurveto
          hintmask 11101000
          -92 callgsubr
        </CharString>
        <CharString name="ij">
          -159 -186 78 129 -48 callsubr
          -31 -916 rmoveto
          83 88 70 99 21 hvcurveto
          115 539 rlineto
          -88 0 callsubr
          -545 rlineto
          -49 -10 -46 -36 -40 hhcurveto
          -23 -23 6 17 -14 hvcurveto
          -53 -59 rlineto
          -29 25 37 -13 44 hhcurveto
          -51 callgsubr
        </CharString>
        <CharString name="imacron">
          -41 callsubr
          150 58 -17 callgsubr
          203 130 -62 callsubr
          endchar
        </CharString>
        <CharString name="infinity">
          71 186 70 190 71 hstem
          53 70 459 70 vstem
          213 517 rmoveto
          -91 -69 -74 -91 -91 79 -75 81 78 37 38 45 27 hvcurveto
          -45 28 37 -38 72 hhcurveto
          91 69 74 91 91 -62 75 -97 -76 -35 -42 -50 -29 hvcurveto
          50 -29 -36 42 -75 hhcurveto
          -261 vmoveto
          -43 -47 28 68 67 47 27 43 58 28 -44 -52 26 hvcurveto
          -51 -26 -29 -43 -57 hhcurveto
          280 hmoveto
          -56 -29 41 49 -25 hvcurveto
          54 24 26 46 60 hhcurveto
          43 46 -27 -67 -68 -46 -28 -43 hvcurveto
          endchar
        </CharString>
        <CharString name="integral">
          -306 -167 70 847 70 hstemhm
          100 83 -40 79 hintmask 11010000
          142 -12 rmoveto
          1 -25 0 -2 -1 vvcurveto
          -35 -22 -22 -34 -15 -21 5 7 -18 vhcurveto
          -21 -61 rlineto
          -12 30 44 -9 31 hhcurveto
          66 39 37 64 3 0 3 -2 38 hvcurveto
          hintmask 11100000
          -37 675 rlineto
          -2 40 -1 6 12 vvcurveto
          26 23 13 34 15 22 -5 -7 18 vhcurveto
          21 61 rlineto
          12 -30 -45 9 -31 hhcurveto
          -68 -39 -33 -50 -8 1 -13 3 -47 hvcurveto
          endchar
        </CharString>
        <CharString name="iogonek">
          -160 -21 202 -21 522 98 hstemhm
          -59 54 vstemhm
          5 hmoveto
          33 hlineto
          -67 -40 -30 -37 -39 -50 callsubr
          111 522 -68 callsubr
          21 98 rmoveto
          88 hlineto
          hintmask 11110000
          23 -6 callsubr
        </CharString>
        <CharString name="itilde">
          -41 callsubr
          125 -37 callsubr
          hintmask 11101000
          5 hmoveto
          -63 callgsubr
          122 105 -86 callsubr
          hintmask 11010000
          -91 callgsubr
          hintmask 11101000
          -46 callgsubr
        </CharString>
        <CharString name="j">
          -385 -186 78 630 -20 118 110 hstem
          -97 -33 callgsubr
          -51 callgsubr
        </CharString>
        <CharString name="j.alt">
          -192 -21 833 102 hstem
          -40 -213 rmoveto
          88 hlineto
          155 730 -68 callsubr
          22 103 rmoveto
          88 hlineto
          22 102 -68 callsubr
          endchar
        </CharString>
        <CharString name="jcircumflex">
          -186 78 630 -20 228 -36 callsubr
          200 802 -52 callsubr
        </CharString>
        <CharString name="k">
          -75 21 -21 459 72 11 callsubr
          433 80 vstem
          5 hmoveto
          -50 callgsubr
        </CharString>
        <CharString name="kcommaaccent">
          -75 -192 -21 234 -21 459 72 11 callsubr
          433 80 vstem
          188 -88 callgsubr
          -140 213 rmoveto
          -50 callgsubr
        </CharString>
        <CharString name="kgreenlandic">
          -99 21 -21 521 -20 21 -20 hstemhm
          hintmask 11000000
          5 hmoveto
          88 hlineto
          34 161 113 94 114 -255 rlineto
          95 hlineto
          -142 305 242 216 rlineto
          -96 hlineto
          -307 -271 rlineto
          hintmask 10100000
          58 272 -68 callsubr
          endchar
        </CharString>
        <CharString name="l">
          -337 -7 80 657 -20 -47 callgsubr
          endchar
        </CharString>
        <CharString name="l.alt">
          -381 21 -21 730 -20 hstem
          10 hmoveto
          88 hlineto
          155 730 -68 callsubr
          endchar
        </CharString>
        <CharString name="lacute">
          -337 -7 80 657 -20 181 -20 hstemhm
          37 callgsubr
          hintmask 11101000
          328 891 -87 callgsubr
          -107 -777 rmoveto
          30 46 9 12 30 hvcurveto
          3 71 rlineto
          -7 -18 -23 -5 -14 hhcurveto
          hintmask 11110000
          -29 -16 16 27 6 1 6 1 7 hvcurveto
          126 595 rlineto
          -87 hlineto
          -133 -627 rlineto
          -2 -11 -2 -11 -10 vvcurveto
          -49 32 -29 55 vhcurveto
          endchar
        </CharString>
        <CharString name="lcaron">
          -346 -7 80 657 -20 49 callsubr
          339 -38 callsubr
          -173 -636 -87 callsubr
          endchar
        </CharString>
        <CharString name="lcommaaccent">
          -337 -2 callgsubr
          41 737 -20 49 callsubr
          72 -88 callgsubr
          83 206 -87 callsubr
          endchar
        </CharString>
        <CharString name="ldot">
          -292 -7 80 196 124 337 -20 -47 callgsubr
          193 276 -19 callgsubr
        </CharString>
        <CharString name="less">
          -70 5 -21 549 -20 hstem
          30 234 rmoveto
          420 -250 rlineto
          98 vlineto
          -292 177 292 180 rlineto
          94 vlineto
          -420 -253 rlineto
          endchar
        </CharString>
        <CharString name="lessequal">
          -157 51 72 430 -20 hstem
          383 51 rmoveto
          72 -332 -72 vlineto
          -1 293 rmoveto
          330 -160 rlineto
          88 vlineto
          -202 97 202 100 rlineto
          84 vlineto
          -330 -163 rlineto
          endchar
        </CharString>
        <CharString name="lira">
          -136 -15 76 -51 69 162 52 59 52 238 73 hstemhm
          122 80 hintmask 01111100
          62 352 rmoveto
          92 hlineto
          4 -18 2 -18 -23 vvcurveto
          -111 hlineto
          -11 -52 rlineto
          114 hlineto
          -16 -56 -44 -52 -92 -77 8 -64 rcurveline
          11 37 45 7 31 hhcurveto
          hintmask 10111100
          45 callsubr
          hintmask 01111100
          -7 67 rlineto
          hintmask 10111100
          -12 -35 -25 -6 -24 hhcurveto
          hintmask 01111100
          46 callsubr
          82 75 35 49 14 48 rrcurveto
          140 hlineto
          11 52 rlineto
          -143 hlineto
          29 -2 15 -2 15 vhcurveto
          160 hlineto
          11 52 rlineto
          -182 hlineto
          -10 38 -12 35 35 -7 callgsubr
          -37 10 -35 10 -36 hvcurveto
          -69 hlineto
          endchar
        </CharString>
        <CharString name="logicalnot">
          -46 141 -21 175 80 hstem
          82 375 rmoveto
          -17 -80 rlineto
          359 hlineto
          -37 -175 rlineto
          75 hlineto
          55 255 rlineto
          endchar
        </CharString>
        <CharString name="lozenge">
          -94 21 -21 730 -20 hstem
          228 730 rmoveto
          -186 -364 186 -366 rlineto
          94 hlineto
          186 366 -186 364 rlineto
          -39 -665 rmoveto
          -154 310 145 287 155 -308 rlineto
          endchar
        </CharString>
        <CharString name="lslash">
          -316 -7 80 657 -20 hstem
          44 97 -97 195 vstem
          30 283 rmoveto
          65 42 -47 -222 rlineto
          -2 -11 -2 -11 -10 vvcurveto
          -49 32 -29 55 30 46 9 12 31 vhcurveto
          3 71 rlineto
          -7 -18 -24 -5 -14 hhcurveto
          -29 -15 16 27 10 2 12 4 17 hvcurveto
          50 236 127 82 -16 49 -97 -63 58 271 -68 callsubr
          -72 -337 -94 -61 rlineto
          endchar
        </CharString>
        <CharString name="m">
          266 21 callsubr
          -9 -20 hstemhm
          407 96 235 95 hintmask 11011000
          5 hmoveto
          -42 callgsubr
          82 40 70 55 66 hhcurveto
          46 25 -27 -59 -21 -3 -24 -6 -29 hvcurveto
          -62 -292 3 callsubr
          66 314 rlineto
          81 40 70 57 66 hhcurveto
          47 25 -28 -59 -21 -3 -24 -6 -28 hvcurveto
          -62 -292 3 callsubr
          67 -1 callgsubr
          33 4 31 28 vvcurveto
          76 -31 51 -85 -79 -74 -44 -83 -61 vhcurveto
          81 -2 -42 46 -77 hhcurveto
          -77 -80 -47 -74 -53 hvcurveto
          hintmask 10111000
          -27 callgsubr
          endchar
        </CharString>
        <CharString name="macron">
          -232 652 58 hstem
          361 652 -62 callsubr
          endchar
        </CharString>
        <CharString name="minus">
          -66 269 72 hstem
          477 269 rmoveto
          72 -403 -72 vlineto
          endchar
        </CharString>
        <CharString name="mu">
          -11 40 callsubr
          140 249 hintmask 11011000
          -32 -212 rmoveto
          88 hlineto
          54 279 rlineto
          -42 5 27 -35 57 hhcurveto
          74 85 58 64 43 hvcurveto
          -11 -46 -1 -15 -12 vvcurveto
          hintmask 10111000
          -26 21 -17 34 9 12 2 2 15 vhcurveto
          17 76 rlineto
          -16 1 -7 5 13 vvcurveto
          4 1 4 1 5 vhcurveto
          88 414 -68 callsubr
          -70 -327 rlineto
          hintmask 11011000
          -80 -46 -75 -49 -65 hhcurveto
          -53 -27 30 61 20 3 23 6 26 hvcurveto
          63 296 -68 callsubr
          endchar
        </CharString>
        <CharString name="multiply">
          -146 123 -21 341 -20 hstem
          284 273 rmoveto
          113 114 -55 56 -114 -114 -113 113 -56 -55 113 -114 -115 -115 55 -56 116 116 116 -116 56 55 rlineto
          endchar
        </CharString>
        <CharString name="n">
          -50 21 52 callsubr
          hintmask 11010000
          5 hmoveto
          88 hlineto
          67 315 rlineto
          -96 callsubr
          hintmask 10110000
          -27 callgsubr
          endchar
        </CharString>
        <CharString name="nacute">
          20 callgsubr
          228 -20 hstemhm
          422 95 hintmask 11011000
          495 730 -87 callgsubr
          -381 -609 rmoveto
          88 hlineto
          67 315 rlineto
          -96 callsubr
          hintmask 10111000
          -27 callgsubr
          endchar
        </CharString>
        <CharString name="napostrophe">
          20 callgsubr
          228 -20 hstemhm
          422 95 hintmask 11011000
          -8 28 callsubr
          -35 -692 rmoveto
          88 hlineto
          67 315 rlineto
          -96 callsubr
          hintmask 10111000
          -27 callgsubr
          endchar
        </CharString>
        <CharString name="ncaron">
          20 callgsubr
          29 85 -2 callsubr
          422 95 hintmask 10111100
          313 616 -88 callsubr
          -231 -706 rmoveto
          -42 callgsubr
          hintmask 11001100
          -96 callsubr
          hintmask 10111100
          -27 callgsubr
          endchar
        </CharString>
        <CharString name="ncommaaccent">
          -50 -192 -21 234 37 callsubr
          180 -88 callgsubr
          -132 213 rmoveto
          88 hlineto
          67 315 rlineto
          -96 callsubr
          hintmask 11011000
          -27 callgsubr
          endchar
        </CharString>
        <CharString name="ndotaccent">
          20 callgsubr
          122 106 hstemhm
          422 95 hintmask 11011000
          377 624 rmoveto
          22 106 rlineto
          -79 hlineto
          -23 -106 rlineto
          -292 -624 rmoveto
          88 hlineto
          67 315 rlineto
          -96 callsubr
          hintmask 10111000
          -27 callgsubr
          endchar
        </CharString>
        <CharString name="nine">
          -43 -154 77 164 71 337 76 hstem
          37 85 322 83 vstem
          173 -154 rmoveto
          210 144 232 267 140 -72 86 -119 -155 -144 -133 -155 -111 75 -85 112 78 75 45 69 42 hvcurveto
          -176 -39 -88 -102 -101 hhcurveto
          -66 -50 40 62 -14 hvcurveto
          -65 -53 rlineto
          -79 25 65 -47 87 hhcurveto
          74 312 rmoveto
          -73 -52 61 77 106 100 93 97 74 51 -62 -77 -105 -98 -93 -99 hvcurveto
          endchar
        </CharString>
        <CharString name="nine.denominator">
          -218 -5 52 85 49 177 51 hstem
          22 54 220 52 vstem
          122 -5 rmoveto
          134 92 121 156 85 -50 52 -81 -102 -93 -74 -88 -65 52 -50 80 48 53 23 35 27 hvcurveto
          27 callgsubr
          46 -25 58 hhcurveto
          46 186 rmoveto
          -53 -39 34 42 53 64 48 65 53 38 -35 -42 -53 -63 -47 -65 hvcurveto
          endchar
        </CharString>
        <CharString name="nine.lnum">
          -25 -10 78 163 72 337 75 hstem
          76 87 322 82 vstem
          76 427 rmoveto
          -110 75 -86 113 77 76 45 69 42 vhcurveto
          -176 -39 -88 -101 -102 hhcurveto
          -65 -50 40 62 -14 hvcurveto
          -65 -53 rlineto
          -80 25 65 -47 87 hhcurveto
          209 145 234 265 141 -72 85 -119 -155 -145 -132 -156 hvcurveto
          283 213 rmoveto
          74 52 -63 -77 -105 -100 -92 -97 -74 -51 61 77 105 99 94 97 hvcurveto
          endchar
        </CharString>
        <CharString name="nine.numerator">
          -218 315 52 86 49 177 51 hstem
          90 54 221 51 vstem
          90 568 -57 callgsubr
        </CharString>
        <CharString name="nineinferior">
          -217 -85 52 85 49 177 51 hstem
          5 54 220 52 vstem
          5 167 rmoveto
          -65 52 -50 80 48 53 23 35 27 vhcurveto
          27 callgsubr
          47 -25 57 hhcurveto
          135 91 121 156 85 -50 52 -81 -102 -93 -74 -88 hvcurveto
          183 111 rmoveto
          53 38 -35 -42 -53 -63 -47 -65 -53 -39 34 42 53 63 48 66 hvcurveto
          endchar
        </CharString>
        <CharString name="ninesuperior">
          -218 395 52 86 49 177 51 hstem
          107 54 221 51 vstem
          107 648 -57 callgsubr
        </CharString>
        <CharString name="notequal">
          -132 78 -21 122 60 74 60 122 -20 hstem
          84 313 rmoveto
          148 hlineto
          -41 -74 rlineto
          -107 -60 74 hlineto
          -54 -100 38 -22 66 122 rlineto
          181 60 -148 hlineto
          41 74 rlineto
          107 60 -75 hlineto
          55 100 -38 22 -67 -122 rlineto
          -180 hlineto
          endchar
        </CharString>
        <CharString name="ntilde">
          20 callgsubr
          125 -37 callsubr
          422 95 hintmask 11010110
          5 hmoveto
          88 hlineto
          67 315 rlineto
          -96 callsubr
          hintmask 10110110
          -27 callgsubr
          269 105 -86 callsubr
          hintmask 11001010
          -91 callgsubr
          hintmask 11010110
          -46 callgsubr
        </CharString>
        <CharString name="numbersign">
          47 21 -21 201 68 178 64 11 callsubr
          672 511 rmoveto
          -113 hlineto
          89 199 rlineto
          -73 hlineto
          -87 -199 rlineto
          -155 hlineto
          88 199 rlineto
          -72 hlineto
          -88 -199 rlineto
          -137 hlineto
          -14 -64 rlineto
          121 hlineto
          -77 -178 rlineto
          -124 hlineto
          -14 -68 rlineto
          107 44 callsubr
          155 44 callsubr
          142 hlineto
          14 68 rlineto
          -126 hlineto
          78 178 rlineto
          128 hlineto
          -432 -178 rmoveto
          77 178 rlineto
          155 hlineto
          -78 -178 rlineto
          endchar
        </CharString>
        <CharString name="o">
          -39 -34 callgsubr
          -75 callsubr
          endchar
        </CharString>
        <CharString name="oacute">
          -14 callsubr
          458 730 -87 callgsubr
          -127 -619 -105 callsubr
          endchar
        </CharString>
        <CharString name="obreve">
          -39 -34 callgsubr
          88 -26 callsubr
          22 91 152 52 130 92 hintmask 11101110
          -94 callgsubr
          120 596 -39 callsubr
          hintmask 11011110
          -97 callsubr
          hintmask 11101110
          -51 callsubr
        </CharString>
        <CharString name="ocircumflex">
          -14 callsubr
          272 616 -98 callsubr
          -7 -650 -105 callsubr
          endchar
        </CharString>
        <CharString name="odblgrave">
          -39 -10 76 389 76 199 -20 -75 callsubr
          166 543 -91 callsubr
        </CharString>
        <CharString name="odieresis">
          -39 -34 callgsubr
          93 102 30 callgsubr
          315 624 -93 callgsubr
          -176 -634 -105 callsubr
          endchar
        </CharString>
        <CharString name="odotbelow">
          -39 12 callsubr
          66 -30 callsubr
          -75 callsubr
          -10 -248 -93 callsubr
        </CharString>
        <CharString name="oe">
          362 -10 65 176 57 167 76 hstem
          22 91 334 80 340 83 vstem
          222 -10 rmoveto
          88 84 55 94 67 hvcurveto
          -91 28 66 -58 89 hhcurveto
          95 99 53 79 52 hvcurveto
          -70 21 rlineto
          -52 -29 -67 -36 -63 hhcurveto
          -80 -54 62 84 10 0 10 2 10 hvcurveto
          408 hlineto
          4 8 9 24 48 vvcurveto
          132 -74 88 -124 -95 -85 -55 -97 -61 vhcurveto
          94 -17 -64 58 -92 hhcurveto
          -164 -152 -147 -177 -124 78 -93 122 hvcurveto
          17 76 rmoveto
          -76 -50 65 86 128 104 110 105 76 49 -67 -87 -127 -102 -108 -106 hvcurveto
          300 222 rmoveto
          103 27 83 74 87 hhcurveto
          78 53 -58 -87 -10 -1 -11 -1 -11 hvcurveto
          endchar
        </CharString>
        <CharString name="ogonek">
          -372 -160 -21 11 callsubr
          32 54 vstem
          100 23 callsubr
          -22 18 rlineto
          -90 -48 -40 -42 -44 -39 callgsubr
          endchar
        </CharString>
        <CharString name="ograve">
          -39 -10 76 389 76 199 -20 -75 callsubr
          97 543 -70 callsubr
        </CharString>
        <CharString name="ohungarumlaut">
          -14 callsubr
          385 730 -58 callgsubr
          -189 -619 -105 callsubr
          endchar
        </CharString>
        <CharString name="oinvertedbreve">
          -39 -34 callgsubr
          88 -16 callsubr
          22 91 305 50 -21 92 hintmask 11101010
          -94 callgsubr
          17 553 rmoveto
          50 hlineto
          hintmask 11011100
          -69 callsubr
          hvcurveto
          hintmask 11101100
          -92 callgsubr
        </CharString>
        <CharString name="omacron">
          -39 -34 callgsubr
          121 58 30 callgsubr
          499 652 -62 callsubr
          1 -662 -105 callsubr
          endchar
        </CharString>
        <CharString name="one">
          -183 0 80 312 84 95 -20 hstem
          3 hmoveto
          346 -74 callgsubr
          -121 hlineto
          104 491 -42 callsubr
          -15 -11 -109 -80 -55 hhcurveto
          -18 -84 rlineto
          50 93 47 31 29 hvcurveto
          -83 -390 rlineto
          -135 hlineto
          endchar
        </CharString>
        <CharString name="one.denominator">
          -327 0 54 357 -20 hstem
          -16 hmoveto
          224 hlineto
          11 54 rlineto
          -81 hlineto
          -7 callsubr
          endchar
        </CharString>
        <CharString name="one.lnum">
          -193 0 80 459 82 97 -20 hstem
          1 hmoveto
          340 -74 callgsubr
          -121 hlineto
          136 638 -42 callsubr
          -4 -3 -101 -93 -68 hhcurveto
          -17 -82 rlineto
          51 91 55 31 27 hvcurveto
          -116 -545 rlineto
          -129 hlineto
          endchar
        </CharString>
        <CharString name="one.numerator">
          -348 320 55 356 -20 hstem
          195 375 -84 callgsubr
          endchar
        </CharString>
        <CharString name="oneeighth">
          231 51 callgsubr
          82 55 -22 53 325 -20 hstemhm
          452 -21 callgsubr
          hintmask 1110110100000000
          586 -5 -28 callsubr
          hintmask 1101101001000000
          -58 callsubr
          hintmask 1110110100000000
          -77 callgsubr
          hintmask 1101101010000000
          -49 callgsubr
          hintmask 1110110100000000
          -435 137 -84 callgsubr
          -179 -380 -85 callsubr
          endchar
        </CharString>
        <CharString name="onehalf">
          230 0 54 -38 -21 325 55 -18 54 320 -20 hstemhm
          746 61 hintmask 10011100
          444 hmoveto
          301 hlineto
          11 54 rlineto
          -217 hlineto
          8 35 25 44 80 27 rrcurveto
          110 38 45 35 79 vvcurveto
          58 -39 41 -79 -91 -63 -50 -18 -17 vhcurveto
          26 -40 rlineto
          23 24 44 31 59 hhcurveto
          50 25 -24 -33 -69 -79 -17 -67 -26 hvcurveto
          -89 -35 -46 -48 -21 -105 rrcurveto
          hintmask 01101100
          -241 375 -84 callgsubr
          -191 -380 -85 callsubr
          endchar
        </CharString>
        <CharString name="oneinferior">
          -326 -80 54 357 -20 hstem
          121 -26 rmoveto
          -7 callsubr
          -11 -54 rlineto
          224 hlineto
          11 54 rlineto
          endchar
        </CharString>
        <CharString name="onequarter">
          201 16 -21 26 -21 100 54 166 55 356 -20 hstemhm
          hintmask 01111000
          608 hmoveto
          55 hlineto
          21 100 -71 callgsubr
          -146 54 rmoveto
          198 180 -38 -180 rlineto
          -441 221 -84 callgsubr
          hintmask 10111000
          -156 -380 -85 callsubr
          endchar
        </CharString>
        <CharString name="onesuperior">
          -348 400 55 356 -20 hstem
          212 455 -84 callgsubr
          endchar
        </CharString>
        <CharString name="onethird">
          232 -5 55 134 50 86 55 -15 51 320 -20 hstemhm
          454 19 callsubr
          hintmask 1110110100000000
          586 39 callgsubr
          hintmask 1101110010000000
          -73 callgsubr
          hintmask 1110111000000000
          80 47 -35 callgsubr
          52 -32 79 hhcurveto
          -381 380 -84 callgsubr
          -191 -380 -85 callsubr
          endchar
        </CharString>
        <CharString name="oogonek">
          -39 -165 -21 176 -30 callsubr
          hstem
          22 91 6 54 274 92 vstem
          187 25 callgsubr
          151 25 119 142 151 vvcurveto
          120 -74 99 -128 -171 -144 -156 -167 -115 67 -96 120 -7 vhcurveto
          -62 -38 -28 -36 -37 -39 callgsubr
          52 252 rmoveto
          -76 -50 65 88 126 106 110 102 76 50 -67 -87 -127 -105 -108 -103 hvcurveto
          endchar
        </CharString>
        <CharString name="ordfeminine">
          -199 347 50 -32 -21 180 43 94 50 hstemhm
          73 68 195 70 hintmask 01111100
          165 344 rmoveto
          51 52 23 42 40 hvcurveto
          -3 -18 -1 -6 -6 vvcurveto
          hintmask 10111100
          -20 15 -12 29 7 10 1 2 10 vhcurveto
          13 62 rlineto
          -11 1 -5 4 10 vvcurveto
          3 0 3 1 3 vhcurveto
          28 131 rlineto
          3 15 2 13 13 vvcurveto
          67 -45 36 -77 -47 -47 -15 -31 -51 vhcurveto
          13 -45 rlineto
          27 44 37 14 35 hhcurveto
          44 24 -23 -39 -7 -1 -8 -2 -9 hvcurveto
          -5 -25 rlineto
          11 -23 -31 6 -33 hhcurveto
          -93 -75 -55 -77 hvcurveto
          hintmask 01111100
          -52 37 -39 55 vhcurveto
          hintmask 10111100
          31 53 rmoveto
          -33 -22 23 30 44 45 30 58 26 28 -4 -11 20 hvcurveto
          -10 -48 rlineto
          -33 -7 -59 -31 -46 hhcurveto
          endchar
        </CharString>
        <CharString name="ordmasculine">
          -186 344 61 244 62 hstem
          84 72 212 72 vstem
          223 344 rmoveto
          121 96 107 112 82 -50 66 -89 -120 -97 -105 -114 -80 49 -68 90 hvcurveto
          13 61 rmoveto
          -48 -32 41 55 81 66 67 66 48 32 -41 -55 -80 -66 -68 -66 hvcurveto
          endchar
        </CharString>
        <CharString name="oslash">
          -39 -10 76 -47 -21 457 76 -7 -20 hstemhm
          22 callgsubr
          hintmask 01101100
          13 -2 rmoveto
          54 hlineto
          32 32 rlineto
          hintmask 10011100
          -8 callgsubr
          hintmask 01101100
          16 callgsubr
          hintmask 10101100
          -45 callgsubr
        </CharString>
        <CharString name="oslashacute">
          -39 -10 76 -47 -21 457 76 -7 -20 226 -20 hstemhm
          22 callgsubr
          hintmask 01101110
          458 730 -87 callgsubr
          -336 -611 rmoveto
          54 hlineto
          32 32 rlineto
          hintmask 10011110
          -8 callgsubr
          hintmask 01101110
          16 callgsubr
          hintmask 10101110
          -45 callgsubr
        </CharString>
        <CharString name="otilde">
          -39 -34 callgsubr
          96 -37 callsubr
          22 callgsubr
          hintmask 11101110
          -94 callgsubr
          171 561 -86 callsubr
          hintmask 11010110
          -91 callgsubr
          hintmask 11101110
          -46 callgsubr
        </CharString>
        <CharString name="p">
          -17 -192 -21 203 50 callsubr
          468 92 hintmask 11101000
          -40 -213 rmoveto
          88 hlineto
          67 316 rlineto
          -65 23 54 -48 81 hhcurveto
          154 133 157 166 117 -69 101 -115 -75 -75 -43 -64 -53 hvcurveto
          hintmask 11011000
          21 98 rlineto
          -78 hlineto
          146 -456 rmoveto
          -66 -50 54 69 -13 hvcurveto
          32 149 rlineto
          hintmask 11101000
          64 27 86 53 59 hhcurveto
          80 51 -70 -86 -112 -95 -121 -111 hvcurveto
          endchar
        </CharString>
        <CharString name="paragraph">
          -22 -59 -21 304 68 350 68 hstem
          64 77 vstem
          64 412 rmoveto
          -114 70 -72 121 -2 vhcurveto
          -65 -304 rlineto
          76 hlineto
          65 304 rlineto
          62 hlineto
          -65 -304 rlineto
          76 hlineto
          154 722 rlineto
          66 hlineto
          15 68 rlineto
          -248 hlineto
          -200 -127 -119 -179 hvcurveto
          77 16 rmoveto
          120 76 92 127 2 vhcurveto
          -75 -350 rlineto
          -73 5 -55 44 87 vvcurveto
          266 -136 rmoveto
          -62 hlineto
          75 350 rlineto
          62 hlineto
          endchar
        </CharString>
        <CharString name="parenleft">
          -339 -21 -21 786 -20 hstem
          42 83 vstem
          42 261 rmoveto
          -98 26 -113 39 -92 vhcurveto
          72 34 rlineto
          -34 87 -20 107 82 vvcurveto
          166 136 192 73 88 vhcurveto
          -61 30 rlineto
          -128 -163 -103 -144 -176 vvcurveto
          endchar
        </CharString>
        <CharString name="parenright">
          -339 -21 -21 786 -20 hstem
          172 84 vstem
          256 432 rmoveto
          101 -27 113 -35 98 vhcurveto
          -75 -30 rlineto
          24 -58 29 -126 -106 vvcurveto
          -146 -85 -140 -119 -146 vhcurveto
          58 -34 rlineto
          129 153 101 151 170 vvcurveto
          endchar
        </CharString>
        <CharString name="partialdiff">
          -57 -10 76 297 71 204 77 hstemhm
          31 84 300 103 -83 83 hintmask 11110100
          250 -10 rmoveto
          159 109 140 269 224 -75 92 -145 -79 -75 -27 -49 -43 hvcurveto
          49 -53 rlineto
          31 26 59 21 55 hhcurveto
          89 56 -54 -165 -22 -1 -28 -3 -29 hvcurveto
          57 -20 -60 37 -75 hhcurveto
          -132 -113 -113 -126 -114 91 -91 128 hvcurveto
          2 76 rmoveto
          -78 -59 60 76 87 77 74 86 hvcurveto
          hintmask 11111000
          77 60 -59 -76 -86 -76 -76 -87 hvcurveto
          endchar
        </CharString>
        <CharString name="percent">
          90 41 callgsubr
          92 65 172 65 179 64 vstem
          212 428 rmoveto
          93 89 79 92 68 -48 29 callgsubr
          -26 35 44 60 54 57 53 38 27 -35 -44 -60 -54 -57 -53 hvcurveto
          234 -486 rmoveto
          93 88 79 92 68 -47 29 callgsubr
          -27 35 44 60 54 57 53 38 28 -35 -44 -61 -54 -56 -53 hvcurveto
          -417 -43 -85 callsubr
          endchar
        </CharString>
        <CharString name="period">
          -417 0 112 hstem
          74 18 callsubr
          endchar
        </CharString>
        <CharString name="periodcentered">
          -418 245 124 hstem
          124 245 -19 callgsubr
        </CharString>
        <CharString name="perthousand">
          436 41 callgsubr
          98 65 172 65 179 64 44 64 173 64 vstem
          220 428 rmoveto
          90 90 79 92 68 -48 53 -73 -90 -91 -79 -93 -67 48 -53 74 hvcurveto
          10 48 rmoveto
          -40 -27 35 43 61 54 57 51 40 27 -35 -43 -61 -54 -57 -51 hvcurveto
          234 -486 rmoveto
          90 89 79 93 67 -47 53 -74 -90 -90 -79 -92 -68 1 callsubr
          336 -48 rmoveto
          90 89 79 93 67 -47 53 -73 -90 -91 -79 -93 -67 1 callsubr
          -763 -43 -85 callsubr
          endchar
        </CharString>
        <CharString name="pi">
          75 -7 80 -52 -21 442 80 hstemhm
          137 85 181 85 hintmask 10111000
          510 -7 rmoveto
          31 45 9 12 29 hvcurveto
          -14 71 rlineto
          -7 -17 -22 -5 -15 hhcurveto
          -37 -22 23 39 hvcurveto
          307 110 80 -541 -80 80 vlineto
          hintmask 01111000
          -442 85 442 181 -339 vlineto
          hintmask 10111000
          -69 42 -41 65 vhcurveto
          endchar
        </CharString>
        <CharString name="plus">
          -201 212 -21 128 72 128 -20 hstem
          177 80 vstem
          257 391 rmoveto
          128 -80 -128 -118 -72 118 -128 80 128 118 72 vlineto
          endchar
        </CharString>
        <CharString name="plusminus">
          -132 51 72 209 72 136 -20 hstem
          190 80 vstem
          396 51 rmoveto
          72 -332 -72 vlineto
          206 353 rmoveto
          136 -80 -136 -126 -72 126 -136 80 136 126 72 vlineto
          endchar
        </CharString>
        <CharString name="product">
          159 -69 -21 720 80 hstem
          156 85 331 85 vstem
          572 -90 rmoveto
          85 720 80 80 -661 -80 80 -720 85 720 331 hlineto
          endchar
        </CharString>
        <CharString name="q">
          -18 -191 -21 202 50 callsubr
          22 92 hintmask 11011000
          194 -10 rmoveto
          75 71 39 74 60 hvcurveto
          -52 -245 rlineto
          -1 -5 -1 -5 -5 vvcurveto
          -33 25 -22 36 13 16 1 2 13 -99 callgsubr
          132 623 -9 callgsubr
          hvcurveto
          46 76 -11 callsubr
        </CharString>
        <CharString name="q.alt">
          -18 -192 -21 203 50 callsubr
          22 92 hintmask 11011000
          333 -213 rmoveto
          88 hlineto
          156 735 -9 callgsubr
          75 71 39 74 60 hvcurveto
          -160 -37 -11 callsubr
        </CharString>
        <CharString name="question">
          -155 0 116 530 73 hstem
          396 80 vstem
          191 211 rmoveto
          18 88 53 25 53 27 rrcurveto
          88 46 73 43 127 vvcurveto
          103 -73 49 -82 -84 -90 -47 -82 -52 vhcurveto
          51 -39 rlineto
          51 35 60 44 62 hhcurveto
          51 42 -32 -60 -108 -106 -36 -59 -35 hvcurveto
          -67 -39 -32 -53 -15 -72 rrcurveto
          31 -211 rmoveto
          24 116 rlineto
          -73 hlineto
          -25 -116 rlineto
          endchar
        </CharString>
        <CharString name="questiondown">
          -160 -213 73 530 116 hstem
          -37 80 vstem
          248 295 rmoveto
          -18 -88 -53 -25 -53 -27 rrcurveto
          -88 -46 -73 -43 -127 vvcurveto
          -103 73 -49 82 84 90 47 82 52 vhcurveto
          -51 39 rlineto
          -51 -35 -60 -44 -62 hhcurveto
          -51 -42 32 60 108 106 36 59 35 hvcurveto
          67 39 32 53 15 72 rrcurveto
          -31 211 rmoveto
          -24 -116 rlineto
          73 hlineto
          25 116 rlineto
          endchar
        </CharString>
        <CharString name="quotedbl">
          -299 502 216 hstem
          182 502 rmoveto
          54 callsubr
          188 hmoveto
          54 callsubr
          endchar
        </CharString>
        <CharString name="quotedblbase">
          -269 -115 229 -93 -21 hstemhm
          hintmask 10000000
          32 -115 rmoveto
          hintmask 01000000
          53 115 rlineto
          hintmask 10000000
          24 114 rlineto
          -84 hlineto
          hintmask 01000000
          -24 -114 rlineto
          30 hlineto
          hintmask 10000000
          -44 -115 rlineto
          180 hmoveto
          hintmask 01000000
          53 115 rlineto
          hintmask 10000000
          25 114 rlineto
          -84 hlineto
          hintmask 01000000
          -24 -114 rlineto
          29 hlineto
          hintmask 10000000
          -44 -115 rlineto
          endchar
        </CharString>
        <CharString name="quotedblleft">
          -280 501 229 hstem
          181 730 rmoveto
          -24 callsubr
          87 hmoveto
          -24 callsubr
          endchar
        </CharString>
        <CharString name="quotedblright">
          -286 501 229 hstem
          155 501 rmoveto
          -23 callgsubr
          175 hmoveto
          -23 callgsubr
          endchar
        </CharString>
        <CharString name="quoteleft">
          -411 522 -21 229 -20 hstem
          181 730 rmoveto
          -24 callsubr
          endchar
        </CharString>
        <CharString name="quoteright">
          -417 522 -21 229 -20 hstem
          155 501 rmoveto
          -23 callgsubr
          endchar
        </CharString>
        <CharString name="quotesinglbase">
          -405 -94 -21 136 -21 114 -20 hstem
          32 -115 rmoveto
          53 115 24 114 rlineto
          -84 hlineto
          -24 -114 rlineto
          30 hlineto
          -44 -115 rlineto
          endchar
        </CharString>
        <CharString name="quotesingle">
          -411 501 217 hstem
          182 501 rmoveto
          46 217 rlineto
          -76 hlineto
          -46 -217 rlineto
          endchar
        </CharString>
        <CharString name="r">
          6 callsubr
          hstemhm
          hintmask 11000000
          5 hmoveto
          -82 callsubr
          hintmask 10100000
          -3 callgsubr
          endchar
        </CharString>
        <CharString name="racute">
          6 callsubr
          228 -20 hstemhm
          hintmask 11010000
          376 730 -87 callgsubr
          -262 -609 rmoveto
          -82 callsubr
          hintmask 10110000
          -3 callgsubr
          endchar
        </CharString>
        <CharString name="radical">
          -197 21 -21 790 -20 hstem
          17 301 rmoveto
          84 hlineto
          86 -301 rlineto
          94 hlineto
          152 790 rlineto
          -84 hlineto
          -112 -713 -63 288 rlineto
          -157 hlineto
          endchar
        </CharString>
        <CharString name="rcaron">
          -263 -41 callsubr
          21 93 114 -20 hstem
          223 616 -88 callsubr
          -141 -706 rmoveto
          -82 callsubr
          -3 callgsubr
          endchar
        </CharString>
        <CharString name="rcommaaccent">
          -263 -2 callgsubr
          48 445 78 -1 -20 hstemhm
          hintmask 11100000
          8 -88 callgsubr
          40 213 rmoveto
          -82 callsubr
          hintmask 11010000
          -3 callgsubr
          endchar
        </CharString>
        <CharString name="rdblgrave">
          6 callsubr
          228 -20 hstemhm
          hintmask 11010000
          5 hmoveto
          -82 callsubr
          hintmask 10110000
          -3 callgsubr
          207 87 -91 callsubr
        </CharString>
        <CharString name="rdotbelow">
          -263 12 callsubr
          97 -21 445 78 -1 -20 hstemhm
          hintmask 11100000
          5 hmoveto
          -82 callsubr
          hintmask 11010000
          -3 callgsubr
          -64 -704 -93 callsubr
        </CharString>
        <CharString name="registered">
          232 -7 37 100 219 -57 57 171 59 98 38 hstemhm
          65 42 173 65 199 64 157 42 hintmask 1101111110000000
          435 -7 rmoveto
          213 39 callsubr
          -213 -213 38 callgsubr
          213 hvcurveto
          37 vmoveto
          -190 -138 141 184 182 138 140 190 190 140 -140 -183 -192 -144 -132 -186 hvcurveto
          -155 100 rmoveto
          65 hlineto
          hintmask 1011111110000000
          162 101 vlineto
          hintmask 1101111110000000
          102 -162 rlineto
          73 hlineto
          -109 172 rlineto
          57 14 39 57 62 vvcurveto
          70 -57 74 -79 vhcurveto
          -192 hlineto
          65 -230 rmoveto
          171 121 vlineto
          44 34 -34 -51 -50 -27 -36 -48 hvcurveto
          endchar
        </CharString>
        <CharString name="ring">
          -377 592 31 76 31 hstem
          69 41 79 40 vstem
          69 648 -85 callgsubr
          endchar
        </CharString>
        <CharString name="rinvertedbreve">
          6 callsubr
          185 43 hstemhm
          316 50 hintmask 11011000
          5 hmoveto
          -82 callsubr
          hintmask 10111000
          -3 callgsubr
          38 97 rmoveto
          50 hlineto
          -69 callsubr
          -8 -1 -8 -1 -9 hvcurveto
          49 hlineto
          2 8 1 8 8 vvcurveto
          48 -34 39 -51 -58 -56 -48 -63 -13 vhcurveto
          endchar
        </CharString>
        <CharString name="s">
          49 callgsubr
          hstem
          36 callsubr
          vstem
          178 -10 -92 callsubr
          endchar
        </CharString>
        <CharString name="s_t">
          174 -10 84 -60 -21 460 69 -55 55 9 -20 189 44 hstemhm
          56 83 186 85 -29 41 80 95 14 89 hintmask 1001011101100000
          179 -10 rmoveto
          114 117 62 119 83 -58 17 -81 16 hvcurveto
          -82 16 -50 8 60 vvcurveto
          68 66 28 64 43 48 -13 -44 36 vhcurveto
          50 53 rlineto
          hintmask 0110011011100000
          -6 9 -18 46 51 vvcurveto
          71 35 60 91 45 18 -15 -47 -27 -6 -37 -11 -52 vhcurveto
          -26 callgsubr
          68 hlineto
          -70 -330 rlineto
          -4 -20 -4 -16 -16 vvcurveto
          -53 41 -25 53 50 54 23 10 24 vhcurveto
          -4 70 rlineto
          hintmask 1010011011100000
          -6 -13 -34 -16 -30 hhcurveto
          -27 -19 13 26 6 1 4 1 6 hvcurveto
          69 324 rlineto
          109 hlineto
          15 69 rlineto
          -110 hlineto
          10 50 8 41 34 vvcurveto
          63 -28 34 -93 -149 -49 -86 -84 -27 5 -24 5 -23 vhcurveto
          hintmask 1000111101100000
          22 -29 -46 9 -38 hhcurveto
          -102 -120 -64 -118 -88 66 -15 86 -18 hvcurveto
          66 -14 51 -12 -53 vvcurveto
          -61 -68 -33 -67 -58 -55 24 45 -48 vhcurveto
          -48 -60 rlineto
          -41 41 74 -33 83 hhcurveto
          endchar
        </CharString>
        <CharString name="sacute">
          26 callsubr
          401 730 -87 callgsubr
          -114 -619 -92 callsubr
          endchar
        </CharString>
        <CharString name="scaron">
          49 callgsubr
          0 85 -2 callsubr
          36 callsubr
          hintmask 10111100
          267 616 -88 callsubr
          -12 -716 rmoveto
          137 98 76 108 -4 callsubr
          hvcurveto
          -69 18 -30 13 37 vvcurveto
          hintmask 11011100
          68 58 32 68 53 50 -19 -39 34 vhcurveto
          51 53 rlineto
          41 -37 -61 28 -74 hhcurveto
          -121 -108 -70 -117 -62 47 -23 98 -27 hvcurveto
          79 -21 40 -15 -42 vvcurveto
          13 callsubr
        </CharString>
        <CharString name="schwa">
          -50 -10 66 176 58 174 67 hstem
          10 85 341 92 vstem
          213 -10 rmoveto
          173 142 153 168 122 -75 98 -127 -102 -96 -56 -76 -49 hvcurveto
          71 -21 rlineto
          51 32 66 35 60 hhcurveto
          75 53 -57 -85 -10 -1 -11 -1 -11 hvcurveto
          -408 hlineto
          -12 -28 -4 -36 -29 vvcurveto
          -117 74 -90 129 vhcurveto
          15 66 rmoveto
          -78 -55 58 86 11 0 10 2 11 hvcurveto
          327 hlineto
          -102 -28 -82 -74 -86 hhcurveto
          endchar
        </CharString>
        <CharString name="scircumflex">
          26 callsubr
          233 616 -98 callsubr
          -12 -650 -92 callsubr
          endchar
        </CharString>
        <CharString name="sdotbelow">
          -142 12 callsubr
          66 65 412 64 hstem
          36 callsubr
          vstem
          178 -10 -92 callsubr
          -4 -172 -93 callsubr
        </CharString>
        <CharString name="section">
          -119 -88 84 381 72 187 79 hstemhm
          73 85 -65 90 138 94 -60 86 hintmask 11101010
          392 201 rmoveto
          23 22 26 46 50 vvcurveto
          95 -84 34 -82 1 vhcurveto
          -53 1 -39 17 52 vvcurveto
          72 68 45 63 44 44 -16 -41 12 vhcurveto
          75 32 rlineto
          49 -21 -41 55 -101 hhcurveto
          -111 -122 -89 -120 -36 10 -32 14 -15 hvcurveto
          hintmask 11110100
          -19 -21 -25 -40 -52 vvcurveto
          -83 61 -47 98 -6 vhcurveto
          42 -3 47 -8 -52 vvcurveto
          -72 -73 -43 -62 -49 -38 20 45 -34 vhcurveto
          -68 -54 rlineto
          -41 27 55 -54 93 hhcurveto
          97 146 68 152 31 -8 25 -15 13 hvcurveto
          -234 109 rmoveto
          33 18 31 18 16 vhcurveto
          -8 16 26 -5 27 hhcurveto
          hintmask 11110010
          42 50 -18 -54 -31 -18 -33 -22 -16 hvcurveto
          -45 21 -112 -24 88 vvcurveto
          endchar
        </CharString>
        <CharString name="semicolon">
          -415 -60 -21 487 32 callgsubr
          -23 -112 rlineto
          -51 -487 26 callgsubr
        </CharString>
        <CharString name="servicemark">
          95 420 49 -32 -21 247 47 5 -20 hstemhm
          126 63 78 65 hintmask 10101100
          536 532 rmoveto
          -34 178 rlineto
          -85 hlineto
          -61 -290 rlineto
          59 hlineto
          45 208 37 -166 rlineto
          49 hlineto
          108 166 -44 -208 rlineto
          59 hlineto
          62 290 rlineto
          -86 hlineto
          -291 -28 rmoveto
          hintmask 10011100
          20 -23 -31 13 -42 hhcurveto
          -72 -60 -38 -66 -41 29 -17 52 -14 hvcurveto
          45 -12 15 -9 -18 vvcurveto
          -21 -21 -10 -36 -42 -35 17 17 -13 vhcurveto
          -37 -45 rlineto
          hintmask 01101100
          -27 29 39 -15 47 hhcurveto
          74 60 31 69 46 -34 19 -54 13 hvcurveto
          -43 10 -12 11 13 vvcurveto
          22 18 13 39 35 29 -16 -15 11 vhcurveto
          endchar
        </CharString>
        <CharString name="seven">
          -101 -106 -21 629 81 hstem
          -25 -127 rmoveto
          100 hlineto
          490 32 callsubr
        </CharString>
        <CharString name="seven.denominator">
          -265 21 -21 351 55 hstem
          -10 hmoveto
          25 callsubr
        </CharString>
        <CharString name="seven.lnum">
          -103 21 -21 629 81 hstem
          7 hmoveto
          99 hlineto
          491 32 callsubr
        </CharString>
        <CharString name="seven.numerator">
          -265 346 -21 350 55 hstem
          58 325 -22 callgsubr
        </CharString>
        <CharString name="seveneighths">
          218 51 callgsubr
          115 53 269 55 hstemhm
          439 -21 callgsubr
          hintmask 1111101000000000
          573 -5 -28 callsubr
          hintmask 1111010010000000
          -58 callsubr
          hintmask 1111101000000000
          -77 callgsubr
          hintmask 1111010100000000
          -49 callgsubr
          -576 -243 -85 callsubr
          58 292 -22 callgsubr
        </CharString>
        <CharString name="seveninferior">
          -264 -59 -21 351 55 hstem
          -27 -80 rmoveto
          25 callsubr
        </CharString>
        <CharString name="sevensuperior">
          -263 426 -21 350 55 hstem
          76 405 -22 callgsubr
        </CharString>
        <CharString name="six">
          -69 callgsubr
        </CharString>
        <CharString name="six.denominator">
          -219 -5 50 43 callgsubr
          9 50 221 54 vstem
          139 -5 rmoveto
          103 92 74 87 65 -52 50 -80 -47 -54 -22 -36 -26 hvcurveto
          -18 callgsubr
          hvcurveto
          13 50 17 callgsubr
        </CharString>
        <CharString name="six.lnum">
          -69 callgsubr
        </CharString>
        <CharString name="six.numerator">
          -218 315 51 43 callgsubr
          77 51 221 54 vstem
          403 477 -46 callsubr
          62 47 67 47 callsubr
        </CharString>
        <CharString name="sixinferior">
          -219 -85 50 43 callgsubr
          -8 50 221 54 vstem
          317 76 rmoveto
          65 -52 50 -80 -47 -54 -22 -36 -26 vhcurveto
          -18 callgsubr
          103 92 74 87 hvcurveto
          -182 -111 17 callgsubr
        </CharString>
        <CharString name="sixsuperior">
          -218 395 51 43 callgsubr
          94 51 221 54 vstem
          420 557 -46 callsubr
          63 47 66 47 callsubr
        </CharString>
        <CharString name="slash">
          11 9 callsubr
          582 710 rmoveto
          -608 -710 rlineto
          98 hlineto
          608 710 rlineto
          endchar
        </CharString>
        <CharString name="space">
          -370 endchar
        </CharString>
        <CharString name="sterling">
          -126 -15 76 -51 69 228 68 267 73 hstemhm
          123 80 -42 79 hintmask 01110100
          55 307 rmoveto
          106 hlineto
          -95 -38 -50 -122 -106 vhcurveto
          8 -64 rlineto
          11 37 45 7 31 hhcurveto
          hintmask 10111000
          45 callsubr
          hintmask 01111000
          -7 67 rlineto
          hintmask 10111000
          -12 -35 -25 -6 -24 hhcurveto
          hintmask 01110100
          46 callsubr
          118 109 21 52 77 vvcurveto
          149 hlineto
          15 68 rlineto
          -172 hlineto
          hintmask 10111000
          -11 50 -18 44 43 -7 callgsubr
          -45 17 -45 11 -47 hvcurveto
          -82 hlineto
          endchar
        </CharString>
        <CharString name="summation">
          -2 0 80 557 73 hstem
          538 710 rmoveto
          -458 -56 hlineto
          216 -298 -223 -293 rlineto
          -63 480 80 -374 4 vlineto
          212 285 -191 264 rlineto
          4 338 vlineto
          endchar
        </CharString>
        <CharString name="t">
          -279 -7 81 5 callsubr
          hintmask 11010000
          142 -7 -5 callgsubr
          -64 callsubr
          15 69 rlineto
          -111 hlineto
          hintmask 10110000
          10 callgsubr
          hintmask 11010000
          -60 callsubr
          -55 40 -25 54 vhcurveto
          endchar
        </CharString>
        <CharString name="t.alt">
          -287 21 -21 442 80 174 -20 hstem
          36 hmoveto
          90 hlineto
          94 442 rlineto
          117 -74 callgsubr
          -117 hlineto
          37 174 -42 callsubr
          -37 -174 rlineto
          -73 -21 callsubr
          73 hlineto
          endchar
        </CharString>
        <CharString name="tbar">
          -279 -7 81 220 56 103 69 -69 243 hstemhm
          48 96 hintmask 11101000
          25 294 rmoveto
          67 hlineto
          -41 -192 rlineto
          -2 -10 -1 -10 -9 vvcurveto
          -55 40 -25 54 53 52 16 17 25 vhcurveto
          -6 70 rlineto
          -6 -11 -34 -16 -32 hhcurveto
          -26 -19 13 30 6 1 8 3 14 hvcurveto
          32 149 rlineto
          111 hlineto
          12 56 rlineto
          -111 hlineto
          22 103 rlineto
          111 hlineto
          14 69 rlineto
          -110 hlineto
          hintmask 11011000
          10 callgsubr
          hintmask 11101000
          -37 -174 rlineto
          -68 hlineto
          -14 -69 rlineto
          67 hlineto
          -22 -103 rlineto
          -67 hlineto
          endchar
        </CharString>
        <CharString name="tcaron">
          -279 -7 81 379 69 208 -20 hstem
          48 95 -95 220 vstem
          357 -38 callsubr
          -161 -636 -5 callgsubr
          -64 callsubr
          15 69 rlineto
          -111 hlineto
          10 callgsubr
          -60 callsubr
          -55 40 -25 54 vhcurveto
          endchar
        </CharString>
        <CharString name="tdotbelow">
          -279 12 callsubr
          69 81 5 callsubr
          hintmask 11101000
          142 -7 -5 callgsubr
          -64 callsubr
          15 69 rlineto
          -111 hlineto
          hintmask 11011000
          10 callgsubr
          hintmask 11101000
          -60 callsubr
          -55 40 -25 54 vhcurveto
          -3 -175 -93 callsubr
        </CharString>
        <CharString name="thorn">
          -39 -192 -21 195 80 392 80 176 -20 hstem
          450 91 vstem
          -40 -213 rmoveto
          90 hlineto
          58 273 rlineto
          -40 15 35 -38 80 hhcurveto
          178 125 188 151 108 -63 105 -122 -74 -52 -39 -46 -39 hvcurveto
          55 261 -42 callsubr
          98 -648 rmoveto
          -70 -54 47 49 6 1 4 1 5 hvcurveto
          36 171 rlineto
          59 41 58 51 65 hhcurveto
          77 41 -70 -83 -121 -86 -118 -110 hvcurveto
          endchar
        </CharString>
        <CharString name="three">
          -98 -147 80 263 74 227 79 hstemhm
          337 93 -37 37 -37 95 hintmask 11101000
          152 -147 rmoveto
          159 119 102 143 72 -37 54 -63 12 hvcurveto
          hintmask 11100100
          90 15 68 89 90 vvcurveto
          88 -65 58 -106 -95 -95 -45 -67 -48 vhcurveto
          42 -56 rlineto
          56 42 60 33 68 hhcurveto
          61 41 -28 -55 -79 -65 -65 -104 hvcurveto
          -27 hlineto
          -16 -74 rlineto
          25 hlineto
          hintmask 11110000
          87 44 -43 -66 -98 -66 -56 -103 -78 -40 34 54 -18 hvcurveto
          -70 -59 rlineto
          -69 26 68 -40 96 hhcurveto
          endchar
        </CharString>
        <CharString name="three.denominator">
          -237 -5 55 134 50 126 51 hstemhm
          -15 19 callsubr
          hintmask 11110100
          117 39 callgsubr
          hintmask 11110010
          -73 callgsubr
          hintmask 11111000
          80 47 -35 callgsubr
          52 -32 79 hhcurveto
          endchar
        </CharString>
        <CharString name="three.lnum">
          -58 -9 82 253 75 240 78 hstemhm
          10 61 327 90 -40 40 -40 95 hintmask 11110100
          201 -9 rmoveto
          140 147 86 141 75 -41 60 -72 14 hvcurveto
          hintmask 11110010
          110 26 58 72 86 vvcurveto
          98 -75 70 -116 -90 -99 -42 -70 -53 vhcurveto
          46 -61 rlineto
          51 32 71 44 74 hhcurveto
          68 47 -38 -65 -89 -89 -48 -129 hvcurveto
          -32 hlineto
          -16 -75 rlineto
          32 hlineto
          hintmask 11111000
          116 68 -39 -73 -82 -87 -59 -98 -98 -44 59 69 hvcurveto
          -61 -53 rlineto
          -95 73 -62 118 vhcurveto
          endchar
        </CharString>
        <CharString name="three.numerator">
          -238 314 35 callsubr
          52 34 callsubr
          hintmask 11110100
          184 314 rmoveto
          93 94 47 -17 callsubr
          hintmask 11110010
          -61 callgsubr
          hintmask 11111000
          -33 callsubr
          endchar
        </CharString>
        <CharString name="threeeighths">
          237 51 callgsubr
          76 56 -17 53 97 51 126 51 hstemhm
          59 34 callsubr
          49 -21 callgsubr
          hintmask 1110111010101000
          191 314 rmoveto
          93 94 47 -17 callsubr
          hintmask 1110111001101000
          -61 callgsubr
          hintmask 1110111100101000
          -33 callsubr
          400 -319 -28 callsubr
          hintmask 1101111100010010
          -58 callsubr
          hintmask 1110111100101000
          -77 callgsubr
          hintmask 1101111100010100
          -49 callgsubr
          -524 -243 rmoveto
          332 348 334 335 -35 37 rlineto
          hintmask 1110111100101000
          -327 -345 -338 -337 rlineto
          endchar
        </CharString>
        <CharString name="threeinferior">
          -237 -85 55 134 50 126 51 hstemhm
          -32 19 callsubr
          hintmask 11110100
          100 -85 46 callgsubr
          hintmask 11110010
          -73 callgsubr
          hintmask 11111000
          79 48 -35 callgsubr
          53 -32 78 hhcurveto
          endchar
        </CharString>
        <CharString name="threequarters">
          208 16 -21 26 -21 100 54 160 35 callsubr
          57 34 callsubr
          hintmask 0111111010000000
          189 314 rmoveto
          93 94 47 -17 callsubr
          hintmask 0111111001000000
          -61 callgsubr
          hintmask 0111111100000000
          -33 callsubr
          425 -314 rmoveto
          55 hlineto
          21 100 -71 callgsubr
          -146 54 rmoveto
          198 180 -38 -180 rlineto
          hintmask 1011111100000000
          -504 -159 -85 callsubr
          endchar
        </CharString>
        <CharString name="threesuperior">
          -238 394 35 callsubr
          109 224 25 30 -30 60 hintmask 11111000
          204 394 rmoveto
          87 97 47 83 45 -29 34 -50 8 hvcurveto
          hintmask 11110100
          69 14 40 37 51 vvcurveto
          58 -52 40 -79 -60 -65 -23 -39 -33 vhcurveto
          27 -43 rlineto
          32 27 44 22 49 hhcurveto
          46 36 -20 -36 -46 -56 -24 -87 hvcurveto
          -22 hlineto
          -10 -51 rlineto
          22 hlineto
          80 48 -21 -40 -43 -58 -29 -61 -72 -33 40 28 hvcurveto
          -40 -38 rlineto
          -51 12 47 -35 76 hhcurveto
          endchar
        </CharString>
        <CharString name="tilde">
          -221 627 54 -39 -21 48 -1 callsubr
          hintmask 10010000
          267 627 -86 callsubr
          hintmask 01100000
          -91 callgsubr
          hintmask 10010000
          -46 callgsubr
        </CharString>
        <CharString name="trademark">
          114 441 -21 232 60 -2 -20 hstemhm
          hintmask 11000000
          386 712 rmoveto
          -240 hlineto
          -13 -60 rlineto
          90 hlineto
          -49 -232 rlineto
          60 hlineto
          49 232 rlineto
          90 hlineto
          -6 -232 rmoveto
          60 hlineto
          44 208 38 -166 rlineto
          48 hlineto
          109 166 -45 -208 rlineto
          60 hlineto
          hintmask 10100000
          62 290 rlineto
          -86 hlineto
          -109 -178 -34 178 rlineto
          -85 hlineto
          endchar
        </CharString>
        <CharString name="two">
          -103 0 80 423 78 hstem
          389 99 vstem
          -21 hmoveto
          426 -74 callgsubr
          -318 hlineto
          29 75 101 53 61 29 rrcurveto
          70 33 123 57 120 vvcurveto
          75 -57 59 -103 -118 -93 -72 -23 -27 vhcurveto
          43 -64 rlineto
          30 31 56 51 75 hhcurveto
          64 30 -39 -40 -80 -106 -34 -94 -49 hvcurveto
          -144 -75 -43 -79 -23 -107 rrcurveto
          endchar
        </CharString>
        <CharString name="two.denominator">
          -231 0 54 303 54 hstem
          284 63 vstem
          -29 hmoveto
          312 hlineto
          12 54 rlineto
          -225 hlineto
          8 35 26 44 83 27 rrcurveto
          114 38 46 35 79 -29 callsubr
        </CharString>
        <CharString name="two.lnum">
          -52 0 80 557 82 hstem
          463 100 vstem
          -18 hmoveto
          468 -74 callgsubr
          -354 hlineto
          19 91 48 49 140 63 rrcurveto
          119 54 124 56 160 vvcurveto
          92 -57 74 -120 -141 -103 -94 -27 -28 vhcurveto
          44 -57 rlineto
          39 39 75 57 87 hhcurveto
          72 32 -44 -56 -133 -126 -28 -106 -49 hvcurveto
          -133 -62 -76 -79 -40 -186 rrcurveto
          endchar
        </CharString>
        <CharString name="two.numerator">
          -234 320 54 303 54 hstem
          352 63 vstem
          343 320 53 callgsubr
          45 82 26 rrcurveto
          110 36 51 39 77 -29 callgsubr
        </CharString>
        <CharString name="twoinferior">
          -231 -80 54 303 54 hstem
          267 63 vstem
          266 -80 rmoveto
          12 54 rlineto
          -225 hlineto
          8 35 26 44 83 27 rrcurveto
          110 36 50 38 78 -29 callsubr
        </CharString>
        <CharString name="twosuperior">
          -234 400 54 303 54 hstem
          369 63 vstem
          360 400 53 callgsubr
          44 82 27 rrcurveto
          106 35 55 37 80 -29 callgsubr
        </CharString>
        <CharString name="twothirds">
          246 -5 55 134 50 86 54 -14 51 266 54 hstemhm
          347 60 61 19 callsubr
          hintmask 1110111010000000
          600 39 callgsubr
          hintmask 1101111001000000
          -73 callgsubr
          hintmask 1110111100000000
          80 47 -35 callgsubr
          52 -32 79 hhcurveto
          -262 325 rmoveto
          12 54 rlineto
          -211 hlineto
          8 35 26 45 79 26 rrcurveto
          106 36 49 39 77 vvcurveto
          58 -38 41 -79 -91 -65 -50 -18 -15 vhcurveto
          26 -39 rlineto
          22 24 44 31 58 hhcurveto
          51 25 -24 -32 -68 -79 -18 -68 -27 hvcurveto
          -89 -35 -45 -48 -21 -105 rrcurveto
          91 -325 -85 callsubr
          endchar
        </CharString>
        <CharString name="u">
          -54 callgsubr
          hstemhm
          33 93 0 249 hintmask 10101000
          -57 callsubr
          hintmask 01110000
          -27 19 -17 36 -106 callsubr
          -69 -327 rlineto
          hintmask 10110000
          -59 callgsubr
        </CharString>
        <CharString name="u.alt">
          -46 -10 76 -45 -36 callgsubr
          hstemhm
          33 93 hintmask 10110000
          161 -10 rmoveto
          77 85 43 74 53 hvcurveto
          hintmask 01110000
          -23 -107 rlineto
          85 hlineto
          111 522 -68 callsubr
          -69 -327 rlineto
          hintmask 10110000
          -73 -42 -74 -56 -68 hhcurveto
          -61 -21 36 54 21 4 24 5 25 hvcurveto
          63 296 rlineto
          -87 hlineto
          -67 -313 rlineto
          -7 -31 -4 -29 -27 vvcurveto
          -78 33 -54 95 vhcurveto
          endchar
        </CharString>
        <CharString name="uacute">
          22 callsubr
          440 730 -87 callgsubr
          -176 -619 -104 callsubr
          endchar
        </CharString>
        <CharString name="ubreve">
          -54 callgsubr
          117 43 -43 111 -37 callgsubr
          -123 52 hintmask 10110010
          -57 callsubr
          hintmask 01110101
          -27 19 -17 36 -106 callsubr
          -69 -327 rlineto
          hintmask 10110101
          -102 callgsubr
          191 672 -39 callsubr
          hintmask 10101101
          -97 callsubr
          hintmask 10110101
          -51 callsubr
        </CharString>
        <CharString name="ucircumflex">
          22 callsubr
          273 616 -98 callsubr
          -75 -650 -104 callsubr
          endchar
        </CharString>
        <CharString name="udblgrave">
          22 callsubr
          155 -10 -104 callsubr
          240 619 -91 callsubr
        </CharString>
        <CharString name="udieresis">
          -54 callgsubr
          122 102 -37 callgsubr
          hintmask 10110100
          305 624 -93 callgsubr
          -233 -634 -104 callsubr
          endchar
        </CharString>
        <CharString name="udotbelow">
          -40 12 callsubr
          66 76 -49 -21 526 9 callgsubr
          hintmask 11010100
          -57 callsubr
          hintmask 10111000
          -27 19 -17 36 -106 callsubr
          -69 -327 rlineto
          hintmask 11011000
          -102 callgsubr
          59 -172 -93 callsubr
        </CharString>
        <CharString name="ugrave">
          22 callsubr
          155 -10 -104 callsubr
          172 619 -70 callsubr
        </CharString>
        <CharString name="uhungarumlaut">
          22 callsubr
          155 -10 -104 callsubr
          210 740 -58 callgsubr
          endchar
        </CharString>
        <CharString name="uinvertedbreve">
          -54 callgsubr
          117 -16 callsubr
          33 93 249 73 -50 50 hintmask 10110110
          -57 callsubr
          hintmask 01110110
          -27 19 -17 36 -106 callsubr
          -69 -327 rlineto
          hintmask 10110110
          -102 callgsubr
          81 629 rmoveto
          50 hlineto
          hintmask 10101101
          -69 callsubr
          hvcurveto
          hintmask 10110110
          -92 callgsubr
        </CharString>
        <CharString name="umacron">
          -54 callgsubr
          150 58 -37 callgsubr
          hintmask 10110100
          155 -10 -104 callsubr
          330 662 -62 callsubr
          endchar
        </CharString>
        <CharString name="underscore">
          -134 -80 80 hstem
          338 -80 rmoveto
          17 80 rlineto
          -357 -21 callsubr
          endchar
        </CharString>
        <CharString name="uni00A0">
          -370 endchar
        </CharString>
        <CharString name="uni00AD">
          14 callgsubr
        </CharString>
        <CharString name="uni015E">
          -29 20 callsubr
          37 80 561 80 hstem
          96 99 94 46 100 100 vstem
          119 -163 rmoveto
          -71 callsubr
          34 42 rlineto
          146 9 118 76 150 vvcurveto
          -3 callsubr
          vhcurveto
          -100 25 -51 20 59 vvcurveto
          79 54 58 121 80 65 -37 -37 22 vhcurveto
          57 73 rlineto
          49 -46 -69 32 -90 hhcurveto
          -161 -132 -92 -154 -85 62 -36 110 -30 hvcurveto
          104 -28 63 -24 -65 vvcurveto
          -80 -66 -47 -108 -103 -82 50 45 -29 vhcurveto
          -59 -76 58 -62 84 -34 96 -3 rlinecurve
          -58 -82 -73 callsubr
          endchar
        </CharString>
        <CharString name="uni015F">
          -142 20 callsubr
          34 64 412 64 hstem
          60 87 74 46 57 89 vstem
          51 -163 rmoveto
          -71 callsubr
          31 39 rlineto
          125 8 88 73 102 vvcurveto
          -4 callsubr
          vhcurveto
          -69 18 -30 13 37 vvcurveto
          68 58 32 68 53 50 -19 -39 34 vhcurveto
          51 53 rlineto
          41 -37 -61 28 -74 hhcurveto
          -121 -108 -70 -117 -62 47 -23 98 -27 hvcurveto
          79 -21 40 -15 -42 vvcurveto
          -60 -55 -39 -79 -63 -53 24 46 -48 vhcurveto
          -50 -59 41 -45 68 -25 71 -5 rlinecurve
          -56 -79 -73 callsubr
          endchar
        </CharString>
</ttFont>
